<svg version="1.1" id="Layer_1" xmlns="http://www.w3.org/2000/svg" xmlns:xlink="http://www.w3.org/1999/xlink" x="0px" y="0px"
	 width="100%" viewBox="0 0 724 798" enable-background="new 0 0 724 798" xml:space="preserve">
<path opacity="000000" stroke="none" 
	d="
M1.000000,282.000000 
	C1.000000,188.000000 1.000000,94.500000 1.000000,1.000000 
	C242.333328,1.000000 483.666656,1.000000 725.000000,1.000000 
	C725.000000,267.000000 725.000000,533.000000 725.000000,799.000000 
	C483.666656,799.000000 242.333328,799.000000 1.000000,799.000000 
	C1.000000,626.833313 1.000000,454.666656 1.000000,282.000000 
M592.507751,631.803284 
	C597.071899,630.306580 601.675964,628.919067 606.183594,627.268250 
	C608.520935,626.412231 610.687561,625.090271 613.178467,623.474854 
	C613.463074,623.008728 613.747681,622.542603 614.712219,621.881348 
	C615.993469,620.448425 617.274658,619.015564 618.765991,617.347656 
	C604.463684,599.309998 590.398987,581.571960 576.101135,563.180115 
	C567.826904,552.739502 559.552612,542.298950 551.054688,531.205444 
	C541.274780,518.808899 531.494812,506.412323 521.503235,493.402252 
	C511.719055,481.052887 501.934906,468.703522 491.974091,455.745117 
	C489.341187,452.338745 486.708252,448.932373 484.418274,445.969666 
	C491.024994,440.574066 497.502899,435.283661 504.574188,429.786560 
	C505.379669,428.844666 506.185150,427.902771 507.626678,426.718048 
	C511.201080,422.201599 514.775452,417.685181 518.873474,412.747101 
	C522.576843,406.162323 526.280151,399.577515 530.550049,392.547302 
	C539.244446,371.623199 542.134705,349.713715 540.826416,327.329681 
	C545.519592,326.374542 549.381592,325.317780 553.313660,324.854370 
	C558.662964,324.223999 562.646729,321.918427 565.649658,316.561981 
	C567.344788,302.136139 569.039978,287.710266 570.836670,272.420044 
	C557.144104,275.496094 544.575806,278.319580 531.171997,281.047028 
	C529.885376,280.785065 527.807800,280.931122 527.430664,280.200012 
	C521.635010,268.963959 514.071228,259.070099 504.214020,249.768188 
	C515.896484,247.315628 526.694458,245.128586 537.443420,242.722717 
	C539.515564,242.258911 541.395691,240.937622 543.976990,239.603485 
	C544.769897,238.423615 545.562744,237.243744 546.887817,235.584183 
	C547.520752,233.943588 548.558472,232.341599 548.719116,230.655991 
	C549.603027,221.384796 550.261108,212.092239 551.020447,202.808960 
	C551.365173,198.594406 551.764526,194.384308 552.185852,189.645630 
	C540.574768,192.291336 529.790833,194.748581 518.221252,197.145386 
	C512.815369,198.471939 507.409485,199.798492 501.202759,201.032532 
	C496.470184,202.077744 491.737640,203.122955 486.235260,204.204117 
	C481.458252,205.384521 476.681213,206.564926 471.075226,207.777939 
	C464.719086,209.228653 458.362946,210.679367 451.203217,212.036133 
	C442.138489,214.088058 433.073730,216.139984 423.223053,218.116837 
	C415.818542,219.817368 408.414062,221.517899 400.245972,223.176590 
	C395.828522,224.317078 390.756073,224.349243 388.285126,230.206375 
	C387.512329,231.983337 386.384949,233.691849 386.026428,235.548782 
	C384.205475,244.981064 382.581024,254.451324 380.893646,263.909332 
	C380.190613,267.849915 379.502136,271.793121 378.697693,276.355316 
	C384.028107,275.262756 388.231262,274.362122 392.450348,273.543610 
	C406.582733,270.801727 420.487823,266.120514 435.193115,267.997314 
	C452.297394,270.180267 465.751282,278.313049 474.315491,293.232513 
	C471.880127,293.869720 469.444733,294.506958 466.213898,295.047577 
	C452.152863,298.117096 438.091858,301.186584 423.257690,304.234070 
	C413.566681,305.076782 409.354797,311.096191 407.754089,320.049561 
	C406.560394,326.726257 404.679321,333.277588 403.212677,339.908691 
	C401.985657,345.456329 400.915588,351.038635 399.678375,357.082672 
	C431.269135,350.476135 461.894989,344.071411 492.960114,337.574829 
	C493.356293,342.199738 493.873230,346.147308 494.000946,350.107361 
	C494.423920,363.224579 491.502899,375.765778 486.883759,388.706573 
	C484.886719,392.121368 482.889648,395.536163 480.278107,399.204956 
	C474.258331,406.666534 466.360382,411.593292 457.140900,415.877838 
	C451.869904,417.251007 446.598541,418.622894 441.328064,419.997955 
	C439.171356,420.560608 437.016510,421.130219 434.289398,422.004242 
	C433.463470,423.244141 432.637543,424.484039 431.138397,426.180267 
	C430.852264,429.032257 430.049805,431.945160 430.377686,434.724731 
	C431.329803,442.796082 432.945709,450.789398 433.889038,458.861481 
	C434.522522,464.282196 436.205872,468.820251 439.795166,473.169464 
	C468.487732,507.936981 496.941223,542.901733 525.474670,577.800598 
	C540.846680,596.602051 556.193420,615.424683 571.690002,634.122986 
	C572.832153,635.501099 575.267517,636.907593 576.805908,636.634644 
	C580.312866,636.012207 583.635986,634.354248 587.681763,633.066528 
	C589.068726,632.627747 590.455627,632.188965 592.507751,631.803284 
M410.120453,24.683847 
	C401.749573,26.223541 393.378693,27.763237 384.224701,29.271053 
	C375.484680,31.216782 366.744629,33.162510 357.208984,35.036213 
	C349.138885,37.016171 341.068817,38.996128 332.183838,40.921230 
	C323.123810,43.305447 314.063812,45.689659 304.222198,48.022175 
	C294.151276,51.073448 284.080383,54.124725 273.262054,57.168736 
	C262.657501,61.010265 251.742432,64.200356 242.201843,71.883141 
	C233.043167,78.574699 225.864487,87.009621 218.918564,97.680977 
	C230.231155,95.858002 240.123337,94.263924 250.814575,92.702667 
	C261.573669,90.942116 272.332794,89.181564 283.965973,87.426056 
	C293.988159,85.918190 304.010345,84.410324 314.172394,83.594360 
	C314.145996,84.062202 314.119629,84.530045 313.673157,85.604576 
	C309.839844,96.735573 306.006531,107.866577 301.802338,119.660629 
	C300.539764,120.449577 299.370880,121.594894 297.995941,121.956352 
	C294.715149,122.818832 291.337189,123.311508 287.137878,123.865608 
	C279.384888,125.139977 271.631897,126.414337 263.003235,127.634781 
	C250.926193,129.551498 238.849167,131.468231 225.893387,133.377075 
	C214.596039,135.255020 203.298691,137.132980 191.141724,138.914154 
	C190.477478,138.965027 189.806534,138.972321 189.149918,139.072983 
	C134.385208,147.466980 79.626183,155.898407 24.848150,164.204514 
	C20.988569,164.789764 18.662477,166.205460 17.551805,170.137360 
	C16.427599,174.117172 14.569887,177.887634 13.070216,181.764008 
	C10.650320,188.019012 8.260537,194.285660 5.606564,201.202805 
	C8.125000,200.884125 9.753835,200.718735 11.369296,200.467392 
	C31.590452,197.321274 51.811680,194.175537 72.028976,191.004761 
	C115.090179,184.251236 158.149078,177.483032 202.093033,170.725601 
	C213.402573,168.845566 224.712097,166.965530 236.866516,165.155212 
	C248.940857,163.256393 261.015198,161.357574 274.015656,159.440018 
	C276.365295,159.200638 278.714935,158.961258 281.374847,158.690262 
	C281.075928,165.265717 280.809204,171.133438 280.249725,177.882263 
	C279.824921,184.645950 279.568451,191.428009 278.834412,198.157959 
	C278.686249,199.516815 276.948517,201.337662 275.562988,201.796753 
	C272.474304,202.820160 269.145172,203.117859 265.046143,203.659409 
	C257.701111,204.840378 250.356064,206.021362 242.192123,207.132431 
	C232.793945,208.743103 223.395767,210.353775 213.136490,211.877518 
	C176.825226,217.460724 140.602249,223.763580 104.154572,228.234756 
	C91.487053,229.788712 84.547768,234.551651 80.940590,246.372635 
	C78.860962,253.187698 75.167992,259.510437 72.031906,266.428192 
	C73.268654,266.372437 73.756783,266.395691 74.230011,266.322571 
	C106.266777,261.372009 138.306854,256.442505 170.336273,251.444763 
	C188.234818,248.651932 206.115509,245.744736 224.822693,242.964523 
	C233.916061,241.525421 243.009415,240.086319 252.981628,238.642120 
	C258.446655,237.816772 263.911713,236.991425 269.678223,236.120544 
	C270.468597,247.350128 271.309998,258.047791 271.932495,268.758148 
	C272.186493,273.128693 271.966095,277.526794 271.115234,281.861298 
	C266.744476,282.607697 262.373749,283.354126 257.171448,284.012207 
	C251.115753,285.045959 245.060074,286.079742 238.174713,287.028107 
	C220.270782,289.887054 202.380264,292.835571 184.450195,295.520050 
	C181.328598,295.987427 179.980438,297.329498 179.086044,300.182953 
	C177.098129,306.524994 175.240677,312.974213 172.492310,318.997498 
	C167.139984,330.727570 166.933075,342.918213 168.776398,355.179718 
	C171.904480,375.987396 175.181625,396.791107 179.191162,417.442108 
	C182.547470,434.728546 186.932846,451.820282 191.078247,468.946014 
	C192.896149,476.456329 195.250656,483.836700 197.440491,491.554382 
	C232.418045,486.888275 266.711884,482.313354 301.812744,477.797943 
	C305.256287,477.319061 308.689178,476.681091 312.149292,476.448944 
	C313.333588,476.369476 315.388885,477.014740 315.683868,477.824951 
	C318.776306,486.318237 321.592010,494.912323 324.628784,503.906555 
	C319.721069,504.721832 315.364380,505.445557 310.170410,506.081696 
	C234.184662,516.173828 158.198929,526.265991 81.696739,536.426758 
	C85.475525,547.313110 89.050568,557.612549 92.623100,567.904724 
	C93.703957,567.904724 94.371727,567.981750 95.016937,567.893616 
	C122.886543,564.086487 150.750854,560.240356 178.622879,556.451050 
	C211.937286,551.921814 245.260239,547.455383 278.575104,542.929504 
	C292.407318,541.050354 306.228149,539.087830 320.918915,537.240479 
	C327.281067,536.434998 333.643250,535.629517 340.608337,535.242188 
	C344.760223,545.931458 348.966522,556.600098 353.022766,567.325562 
	C353.947571,569.770813 354.353821,572.412292 354.124695,574.866150 
	C347.411194,575.832581 340.697693,576.798950 333.093628,577.685913 
	C285.668335,584.094299 238.243027,590.502686 190.364639,596.972290 
	C192.233139,608.205139 193.944672,618.494385 195.759521,629.404602 
	C245.122147,622.804626 294.065338,616.260803 343.787628,609.774902 
	C350.534668,608.640747 357.281708,607.506531 364.609802,606.821899 
	C372.587219,620.638062 380.564636,634.454285 388.683105,648.514771 
	C385.164398,649.183899 382.584778,649.674500 379.172058,650.078064 
	C373.112823,651.021973 367.053589,651.965942 360.117432,652.814941 
	C343.467499,655.040588 326.817474,657.265625 310.167664,659.492065 
	C301.100403,660.704590 292.011841,661.782837 282.979187,663.213806 
	C280.177277,663.657776 275.823700,663.241089 276.191223,667.888977 
	C276.987549,677.960754 278.254150,687.995361 279.382019,698.546570 
	C285.537567,697.470459 291.290924,696.682495 296.933228,695.404175 
	C300.895172,694.506531 303.471161,695.275085 306.364502,698.504761 
	C319.575592,713.251465 332.705811,728.125061 346.770508,742.037720 
	C361.723663,756.829407 379.352478,767.783630 400.483917,773.896667 
	C407.324280,775.209656 414.164612,776.522583 421.847229,778.025574 
	C426.899506,778.294617 431.951782,778.563660 437.877502,778.970215 
	C442.660339,778.522156 447.443207,778.074158 453.102539,777.655884 
	C457.772705,776.957825 462.442871,776.259766 468.006195,775.574402 
	C476.340607,774.298462 484.674988,773.022522 493.808136,771.793152 
	C506.209961,769.542786 518.611816,767.292419 531.837708,765.104858 
	C544.269653,762.557800 556.701538,760.010742 569.943115,757.400391 
	C579.520508,753.723022 589.097839,750.045593 599.302368,746.165955 
	C606.286133,740.962830 613.269897,735.759644 620.859680,730.215088 
	C626.950378,723.160645 633.041077,716.106140 639.719788,708.732300 
	C644.607300,700.499390 649.494812,692.266541 654.898071,683.466309 
	C658.260315,675.703369 662.022339,668.086182 664.915649,660.152222 
	C677.508118,625.621094 683.253845,589.744080 684.953308,553.173767 
	C686.653076,516.596069 683.918030,480.297394 676.947693,444.346863 
	C666.124695,388.526123 647.122314,335.780426 616.758789,287.497528 
	C609.623718,276.151794 601.060059,265.704498 592.967773,254.319565 
	C592.712891,254.326370 592.458069,254.333176 592.203247,254.339951 
	C592.299316,254.717728 592.395386,255.095490 592.693237,256.178406 
	C605.250183,289.068420 618.808411,321.617157 630.159180,354.918274 
	C655.051086,427.947174 660.634705,502.926208 649.068176,579.114380 
	C646.053223,598.973816 641.543335,618.606323 637.219543,638.933594 
	C632.770874,650.607117 628.322205,662.280701 623.312561,674.347473 
	C618.491516,682.102905 613.670471,689.858398 608.243408,697.943420 
	C601.498474,704.304932 594.753540,710.666443 587.321289,717.151855 
	C579.273376,722.491272 570.387329,725.729492 560.042419,727.618164 
	C545.532410,729.419739 531.557861,727.341797 517.614563,721.293152 
	C511.855682,718.392273 505.647827,716.129639 500.430054,712.459473 
	C489.072327,704.470703 478.219238,695.764404 466.862061,686.808716 
	C452.021637,669.902832 437.181213,652.996887 422.067108,635.516724 
	C421.255219,634.092896 420.476440,632.648987 419.626312,631.248352 
	C411.578125,617.988647 403.339996,604.839722 395.539734,591.435913 
	C391.918030,585.212463 389.140869,578.497498 385.940430,571.282898 
	C372.270142,541.303284 361.795593,510.163910 351.927032,478.773621 
	C344.093842,453.857697 338.291504,428.488770 333.343140,402.044525 
	C331.590393,391.800140 329.753174,381.569275 328.113434,371.306854 
	C326.942078,363.975983 325.637024,356.632507 325.087006,349.242859 
	C323.519012,328.175201 322.306488,307.081055 321.103027,285.070526 
	C321.171967,263.421051 321.240906,241.771561 321.639465,219.355286 
	C321.776917,213.592285 321.526215,207.787323 322.143494,202.076187 
	C323.050812,193.681091 324.577942,185.352966 326.077789,176.159576 
	C326.647064,172.665634 326.909668,169.087219 327.844543,165.694000 
	C330.399628,156.420151 333.237976,147.224350 336.420319,137.443817 
	C342.298981,125.340294 348.177612,113.236763 354.632141,100.738914 
	C360.813232,92.847549 366.994324,84.956184 373.790192,76.816269 
	C380.911865,71.721916 388.033539,66.627563 395.877625,61.288258 
	C403.919891,59.140408 411.962158,56.992554 420.927856,54.960411 
	C428.617279,55.644085 436.306702,56.327755 444.588776,57.453041 
	C459.393646,61.553032 472.573792,68.836052 484.688873,78.123856 
	C521.758423,106.542503 554.926941,138.957062 583.765564,175.711929 
	C653.566833,264.673615 691.120605,366.509583 703.981934,478.911926 
	C704.360718,481.635620 704.739502,484.359344 705.118286,487.083069 
	C705.332520,487.039398 705.546814,486.995758 705.761108,486.952087 
	C705.761108,483.989624 705.761108,481.027130 705.842224,477.127289 
	C705.487976,441.222626 701.936401,405.646606 694.568848,370.492859 
	C677.549011,289.283569 643.479980,215.755936 594.201660,149.196533 
	C569.951416,116.442139 543.470459,85.589371 511.974457,59.524521 
	C489.595764,41.004787 464.548737,27.615238 434.114410,24.147631 
	C426.406525,24.363686 418.698608,24.579741 410.120453,24.683847 
z"/>
<path fill="#CC9933" opacity="1.000000" stroke="none" 
	d="
M301.005707,477.738434 
	C266.711884,482.313354 232.418045,486.888275 197.440491,491.554382 
	C195.250656,483.836700 192.896149,476.456329 191.078247,468.946014 
	C186.932846,451.820282 182.547470,434.728546 179.191162,417.442108 
	C175.181625,396.791107 171.904480,375.987396 168.776398,355.179718 
	C166.933075,342.918213 167.139984,330.727570 172.492310,318.997498 
	C175.240677,312.974213 177.098129,306.524994 179.086044,300.182953 
	C179.980438,297.329498 181.328598,295.987427 184.450195,295.520050 
	C202.380264,292.835571 220.270782,289.887054 238.591553,287.465546 
	C239.526306,289.991333 239.904846,292.126099 240.582397,294.161285 
	C260.257233,353.258606 279.968719,412.343750 299.633148,471.444550 
	C300.307220,473.470459 300.557770,475.637299 301.005707,477.738434 
z"/>
<path fill="#FCE97F" opacity="1.000000" stroke="none" 
	d="
M435.015503,24.434700 
	C464.548737,27.615238 489.595764,41.004787 511.974457,59.524521 
	C543.470459,85.589371 569.951416,116.442139 594.201660,149.196533 
	C643.479980,215.755936 677.549011,289.283569 694.568848,370.492859 
	C701.936401,405.646606 705.487976,441.222626 705.530212,477.571228 
	C704.856323,478.042145 704.494446,478.069092 704.132568,478.096069 
	C691.120605,366.509583 653.566833,264.673615 583.765564,175.711929 
	C554.926941,138.957062 521.758423,106.542503 484.688873,78.123856 
	C472.573792,68.836052 459.393646,61.553032 444.292786,56.817039 
	C443.494507,53.779305 443.152283,51.330421 442.461029,48.984383 
	C440.044281,40.781979 437.507019,32.615082 435.015503,24.434700 
z"/>
<path fill="#FDEA80" opacity="1.000000" stroke="none" 
	d="
M593.153625,254.843887 
	C601.060059,265.704498 609.623718,276.151794 616.758789,287.497528 
	C647.122314,335.780426 666.124695,388.526123 676.947693,444.346863 
	C683.918030,480.297394 686.653076,516.596069 684.953308,553.173767 
	C683.253845,589.744080 677.508118,625.621094 664.915649,660.152222 
	C662.022339,668.086182 658.260315,675.703369 654.489319,683.344727 
	C651.993286,677.445618 649.921326,671.662598 647.815186,665.892029 
	C644.462097,656.704651 641.086243,647.525574 637.720032,638.343018 
	C641.543335,618.606323 646.053223,598.973816 649.068176,579.114380 
	C660.634705,502.926208 655.051086,427.947174 630.159180,354.918274 
	C618.808411,321.617157 605.250183,289.068420 592.760742,255.671478 
	C592.828186,255.164536 593.153625,254.843887 593.153625,254.843887 
z"/>
<path fill="#D4A741" opacity="1.000000" stroke="none" 
	d="
M333.361023,402.885193 
	C338.291504,428.488770 344.093842,453.857697 351.927032,478.773621 
	C361.795593,510.163910 372.270142,541.303284 385.626465,571.732544 
	C385.062103,573.169983 384.422119,574.250427 384.631012,575.129089 
	C385.398254,578.356323 386.355682,581.547058 387.404114,584.697388 
	C402.370483,629.668396 417.316559,674.646179 432.371857,719.587463 
	C438.866669,738.974976 445.600677,758.282349 452.226044,777.626099 
	C447.443207,778.074158 442.660339,778.522156 437.436462,778.510620 
	C435.420624,773.160583 433.887695,768.256287 432.264648,763.381897 
	C413.170563,706.039368 394.052521,648.704712 374.961243,591.361267 
	C340.620636,488.214081 306.294037,385.062225 271.961548,281.912354 
	C271.966095,277.526794 272.186493,273.128693 271.932495,268.758148 
	C271.309998,258.047791 270.468597,247.350128 269.678223,236.120544 
	C263.911713,236.991425 258.446655,237.816772 252.516586,238.210571 
	C250.979416,234.169174 249.903091,230.560532 248.836044,226.949158 
	C246.891479,220.367737 244.952393,213.784698 243.011017,207.202332 
	C250.356064,206.021362 257.701111,204.840378 265.502380,204.107056 
	C266.249512,206.015793 266.386688,207.528000 266.853302,208.930618 
	C287.936371,272.303131 309.036621,335.669922 330.229095,399.005890 
	C330.723297,400.482941 332.292999,401.600128 333.361023,402.885193 
z"/>
<path fill="#CA9833" opacity="1.000000" stroke="none" 
	d="
M320.054169,537.163208 
	C306.228149,539.087830 292.407318,541.050354 278.575104,542.929504 
	C245.260239,547.455383 211.937286,551.921814 178.622879,556.451050 
	C150.750854,560.240356 122.886543,564.086487 95.016937,567.893616 
	C94.371727,567.981750 93.703957,567.904724 92.623100,567.904724 
	C89.050568,557.612549 85.475525,547.313110 81.696739,536.426758 
	C158.198929,526.265991 234.184662,516.173828 310.605469,506.509888 
	C314.045044,517.013123 317.049622,527.088135 320.054169,537.163208 
z"/>
<path fill="#D2A33D" opacity="1.000000" stroke="none" 
	d="
M271.538391,281.886841 
	C306.294037,385.062225 340.620636,488.214081 374.961243,591.361267 
	C394.052521,648.704712 413.170563,706.039368 432.264648,763.381897 
	C433.887695,768.256287 435.420624,773.160583 436.999756,778.441895 
	C431.951782,778.563660 426.899506,778.294617 421.424500,777.526733 
	C420.475037,774.615051 420.163605,772.130676 419.389465,769.799927 
	C406.726288,731.674316 393.999176,693.569885 381.314331,655.451416 
	C380.742920,653.734314 380.435547,651.929199 380.005188,650.165100 
	C382.584778,649.674500 385.164398,649.183899 388.683105,648.514771 
	C380.564636,634.454285 372.587219,620.638062 364.307556,606.237183 
	C362.933289,602.031982 361.852997,598.413940 360.790985,594.790405 
	C358.854492,588.183105 356.928864,581.572632 354.998718,574.963440 
	C354.353821,572.412292 353.947571,569.770813 353.022766,567.325562 
	C348.966522,556.600098 344.760223,545.931458 340.305664,534.630127 
	C339.530060,531.755005 339.277435,529.418762 338.552277,527.239685 
	C312.271545,448.266663 285.943817,369.309296 259.645508,290.342133 
	C258.967133,288.305176 258.544739,286.182983 258.002991,284.100525 
	C262.373749,283.354126 266.744476,282.607697 271.538391,281.886841 
z"/>
<path fill="#CB9933" opacity="1.000000" stroke="none" 
	d="
M399.852905,773.567017 
	C379.352478,767.783630 361.723663,756.829407 346.770508,742.037720 
	C332.705811,728.125061 319.575592,713.251465 306.364502,698.504761 
	C303.471161,695.275085 300.895172,694.506531 296.933228,695.404175 
	C291.290924,696.682495 285.537567,697.470459 279.382019,698.546570 
	C278.254150,687.995361 276.987549,677.960754 276.191223,667.888977 
	C275.823700,663.241089 280.177277,663.657776 282.979187,663.213806 
	C292.011841,661.782837 301.100403,660.704590 310.167664,659.492065 
	C326.817474,657.265625 343.467499,655.040588 360.571533,653.264160 
	C361.888794,656.912476 362.596680,660.163208 363.638885,663.302979 
	C375.204315,698.144592 386.828400,732.966797 398.405884,767.804443 
	C399.028717,769.678650 399.376892,771.644043 399.852905,773.567017 
z"/>
<path fill="#CA9833" opacity="1.000000" stroke="none" 
	d="
M201.208923,170.720856 
	C158.149078,177.483032 115.090179,184.251236 72.028976,191.004761 
	C51.811680,194.175537 31.590452,197.321274 11.369296,200.467392 
	C9.753835,200.718735 8.125000,200.884125 5.606564,201.202805 
	C8.260537,194.285660 10.650320,188.019012 13.070216,181.764008 
	C14.569887,177.887634 16.427599,174.117172 17.551805,170.137360 
	C18.662477,166.205460 20.988569,164.789764 24.848150,164.204514 
	C79.626183,155.898407 134.385208,147.466980 189.149918,139.072983 
	C189.806534,138.972321 190.477478,138.965027 191.585510,139.351089 
	C192.634659,141.851608 193.233643,143.917068 193.846420,145.978424 
	C196.298264,154.226608 198.754379,162.473495 201.208923,170.720856 
z"/>
<path fill="#CA9833" opacity="1.000000" stroke="none" 
	d="
M343.008545,609.716919 
	C294.065338,616.260803 245.122147,622.804626 195.759521,629.404602 
	C193.944672,618.494385 192.233139,608.205139 190.364639,596.972290 
	C238.243027,590.502686 285.668335,584.094299 333.545105,578.144775 
	C334.530945,580.825195 334.967163,583.075867 335.617126,585.263000 
	C338.042999,593.425598 340.538940,601.567322 343.008545,609.716919 
z"/>
<path fill="#CF9F39" opacity="1.000000" stroke="none" 
	d="
M257.587219,284.056366 
	C258.544739,286.182983 258.967133,288.305176 259.645508,290.342133 
	C285.943817,369.309296 312.271545,448.266663 338.552277,527.239685 
	C339.277435,529.418762 339.530060,531.755005 340.004211,534.421021 
	C333.643250,535.629517 327.281067,536.434998 320.486542,537.201843 
	C317.049622,527.088135 314.045044,517.013123 311.024109,506.553680 
	C315.364380,505.445557 319.721069,504.721832 324.628784,503.906555 
	C321.592010,494.912323 318.776306,486.318237 315.683868,477.824951 
	C315.388885,477.014740 313.333588,476.369476 312.149292,476.448944 
	C308.689178,476.681091 305.256287,477.319061 301.409241,477.768188 
	C300.557770,475.637299 300.307220,473.470459 299.633148,471.444550 
	C279.968719,412.343750 260.257233,353.258606 240.582397,294.161285 
	C239.904846,292.126099 239.526306,289.991333 239.006378,287.508240 
	C245.060074,286.079742 251.115753,285.045959 257.587219,284.056366 
z"/>
<path fill="#CA9833" opacity="1.000000" stroke="none" 
	d="
M224.004272,242.889084 
	C206.115509,245.744736 188.234818,248.651932 170.336273,251.444763 
	C138.306854,256.442505 106.266777,261.372009 74.230011,266.322571 
	C73.756783,266.395691 73.268654,266.372437 72.031906,266.428192 
	C75.167992,259.510437 78.860962,253.187698 80.940590,246.372635 
	C84.547768,234.551651 91.487053,229.788712 104.154572,228.234756 
	C140.602249,223.763580 176.825226,217.460724 213.623322,212.295532 
	C217.408203,222.772049 220.706238,232.830566 224.004272,242.889084 
z"/>
<path fill="#D8AE47" opacity="1.000000" stroke="none" 
	d="
M333.352112,402.464844 
	C332.292999,401.600128 330.723297,400.482941 330.229095,399.005890 
	C309.036621,335.669922 287.936371,272.303131 266.853302,208.930618 
	C266.386688,207.528000 266.249512,206.015793 265.936340,204.132980 
	C269.145172,203.117859 272.474304,202.820160 275.562988,201.796753 
	C276.948517,201.337662 278.686249,199.516815 278.834412,198.157959 
	C279.568451,191.428009 279.824921,184.645950 280.707458,177.531860 
	C282.396057,179.458923 283.983826,181.615311 284.803955,184.032181 
	C295.762573,216.326263 306.587616,248.665665 317.559753,280.955109 
	C318.188904,282.806549 319.800018,284.324280 320.954132,285.997345 
	C322.306488,307.081055 323.519012,328.175201 325.087006,349.242859 
	C325.637024,356.632507 326.942078,363.975983 328.113434,371.306854 
	C329.753174,381.569275 331.590393,391.800140 333.352112,402.464844 
z"/>
<path fill="#EECF56" opacity="1.000000" stroke="none" 
	d="
M543.364441,240.011917 
	C541.395691,240.937622 539.515564,242.258911 537.443420,242.722717 
	C526.694458,245.128586 515.896484,247.315628 504.214020,249.768188 
	C514.071228,259.070099 521.635010,268.963959 527.430664,280.200012 
	C527.807800,280.931122 529.885376,280.785065 531.587524,281.531860 
	C534.299194,293.716888 536.523376,305.431885 538.935913,317.108002 
	C539.645203,320.540771 542.149475,321.367798 545.452087,320.699677 
	C551.949768,319.385162 558.478333,318.223145 564.994080,316.998047 
	C562.646729,321.918427 558.662964,324.223999 553.313660,324.854370 
	C549.381592,325.317780 545.519592,326.374542 540.826416,327.329681 
	C542.134705,349.713715 539.244446,371.623199 529.962769,392.580811 
	C528.568481,390.657410 527.455261,388.768951 527.000488,386.733368 
	C520.603943,358.103485 514.308289,329.451080 507.964417,300.809387 
	C503.378601,280.104980 498.700165,259.420929 494.175018,238.703354 
	C491.666260,227.217575 489.387482,215.681534 487.005066,204.168152 
	C491.737640,203.122955 496.470184,202.077744 501.606079,201.485153 
	C503.387329,208.542068 504.563782,215.196732 506.198639,221.736786 
	C507.901733,228.549774 510.047180,235.252182 511.710266,242.251373 
	C508.493530,243.037079 505.543427,243.481262 502.652222,244.171997 
	C501.851013,244.363434 501.224701,245.287125 500.518127,245.874847 
	C501.298920,246.567505 502.007568,247.704849 502.877808,247.846024 
	C504.110229,248.045990 505.467926,247.541916 506.761536,247.285553 
	C518.963806,244.867462 531.163757,242.438065 543.364441,240.011917 
z"/>
<path fill="#EBC952" opacity="1.000000" stroke="none" 
	d="
M486.620178,204.186127 
	C489.387482,215.681534 491.666260,227.217575 494.175018,238.703354 
	C498.700165,259.420929 503.378601,280.104980 507.964417,300.809387 
	C514.308289,329.451080 520.603943,358.103485 527.000488,386.733368 
	C527.455261,388.768951 528.568481,390.657410 529.679565,392.803528 
	C526.280151,399.577515 522.576843,406.162323 518.304932,412.733368 
	C517.029846,411.242859 516.011536,409.835663 515.664001,408.278717 
	C511.380890,389.088867 507.254608,369.863892 502.942566,350.680634 
	C501.903717,346.059082 500.333252,341.557037 498.967163,336.708862 
	C498.610229,335.944336 498.293365,335.470947 497.972412,334.672058 
	C497.966217,333.912567 497.964111,333.478546 497.976501,332.703735 
	C497.993988,331.908630 497.997009,331.454315 498.213684,330.750519 
	C497.966125,328.431915 497.505310,326.362701 497.043488,324.293701 
	C490.728027,295.999969 484.338806,267.722412 478.135193,239.404190 
	C475.834106,228.900330 473.968445,218.301086 471.904205,207.745331 
	C476.681213,206.564926 481.458252,205.384521 486.620178,204.186127 
z"/>
<path fill="#DAB049" opacity="1.000000" stroke="none" 
	d="
M422.340820,636.091003 
	C437.181213,652.996887 452.021637,669.902832 466.979736,687.526428 
	C467.565948,690.498108 467.818176,692.823669 468.536285,694.995117 
	C476.147675,718.009338 483.862488,740.989380 491.455902,764.009460 
	C492.273956,766.489441 492.505676,769.162842 493.009369,771.746582 
	C484.674988,773.022522 476.340607,774.298462 467.501038,775.155762 
	C453.173431,733.183411 439.310577,691.643066 425.586304,650.057007 
	C424.094604,645.536987 423.403351,640.752686 422.340820,636.091003 
z"/>
<path fill="#DDB54D" opacity="1.000000" stroke="none" 
	d="
M321.028564,285.533936 
	C319.800018,284.324280 318.188904,282.806549 317.559753,280.955109 
	C306.587616,248.665665 295.762573,216.326263 284.803955,184.032181 
	C283.983826,181.615311 282.396057,179.458923 280.853821,177.091309 
	C280.809204,171.133438 281.075928,165.265717 281.374847,158.690262 
	C278.714935,158.961258 276.365295,159.200638 273.525330,159.027466 
	C272.137115,155.601456 271.234009,152.589508 270.342255,149.574203 
	C268.184998,142.279861 266.033020,134.983963 263.878906,127.688705 
	C271.631897,126.414337 279.384888,125.139977 287.571228,124.314835 
	C288.194397,125.902016 288.233337,127.090622 288.595917,128.170563 
	C298.415802,157.418671 308.244019,186.664062 318.183960,215.871414 
	C318.724243,217.459030 320.245300,218.712875 321.309814,220.122070 
	C321.240906,241.771561 321.171967,263.421051 321.028564,285.533936 
z"/>
<path fill="#DFB746" opacity="1.000000" stroke="none" 
	d="
M457.911926,415.777069 
	C466.360382,411.593292 474.258331,406.666534 480.854645,399.372467 
	C483.566223,409.743835 485.606506,419.968811 487.870026,430.144073 
	C489.351593,436.804352 491.229523,437.363190 497.110535,433.592926 
	C499.278748,432.202942 501.683777,431.182312 503.980774,429.993225 
	C497.502899,435.283661 491.024994,440.574066 484.418274,445.969666 
	C486.708252,448.932373 489.341187,452.338745 492.029053,456.545715 
	C492.157166,460.000610 491.774841,462.762665 492.373505,465.292572 
	C498.824310,492.551666 505.429626,519.774170 511.652618,546.949341 
	C510.389526,546.015869 509.390808,545.206116 508.556641,544.252319 
	C505.007202,540.193909 501.506531,536.092896 497.993103,532.003662 
	C497.998199,532.000000 497.987946,532.011780 497.938995,531.667847 
	C497.251801,530.373779 496.684784,529.365662 495.964722,528.482239 
	C485.018097,515.052002 475.272156,501.404205 472.315094,483.346008 
	C468.597870,460.645538 462.807648,438.284546 457.911926,415.777069 
z"/>
<path fill="#D7AB44" opacity="1.000000" stroke="none" 
	d="
M422.203949,635.803833 
	C423.403351,640.752686 424.094604,645.536987 425.586304,650.057007 
	C439.310577,691.643066 453.173431,733.183411 467.054474,775.149353 
	C462.442871,776.259766 457.772705,776.957825 452.664307,777.640991 
	C445.600677,758.282349 438.866669,738.974976 432.371857,719.587463 
	C417.316559,674.646179 402.370483,629.668396 387.404114,584.697388 
	C386.355682,581.547058 385.398254,578.356323 384.631012,575.129089 
	C384.422119,574.250427 385.062103,573.169983 385.646667,572.093750 
	C389.140869,578.497498 391.918030,585.212463 395.539734,591.435913 
	C403.339996,604.839722 411.578125,617.988647 419.626312,631.248352 
	C420.476440,632.648987 421.255219,634.092896 422.203949,635.803833 
z"/>
<path fill="#CF9F39" opacity="1.000000" stroke="none" 
	d="
M400.168396,773.731812 
	C399.376892,771.644043 399.028717,769.678650 398.405884,767.804443 
	C386.828400,732.966797 375.204315,698.144592 363.638885,663.302979 
	C362.596680,660.163208 361.888794,656.912476 361.009979,653.311646 
	C367.053589,651.965942 373.112823,651.021973 379.588623,650.121582 
	C380.435547,651.929199 380.742920,653.734314 381.314331,655.451416 
	C393.999176,693.569885 406.726288,731.674316 419.389465,769.799927 
	C420.163605,772.130676 420.475037,774.615051 421.003357,777.431763 
	C414.164612,776.522583 407.324280,775.209656 400.168396,773.731812 
z"/>
<path fill="#E0BA52" opacity="1.000000" stroke="none" 
	d="
M493.408752,771.769836 
	C492.505676,769.162842 492.273956,766.489441 491.455902,764.009460 
	C483.862488,740.989380 476.147675,718.009338 468.536285,694.995117 
	C467.818176,692.823669 467.565948,690.498108 467.128662,687.797729 
	C478.219238,695.764404 489.072327,704.470703 500.430054,712.459473 
	C505.647827,716.129639 511.855682,718.392273 517.824829,721.971680 
	C518.572937,724.900452 518.978271,727.192322 519.670837,729.393921 
	C523.412537,741.288940 527.225342,753.161682 531.013672,765.041992 
	C518.611816,767.292419 506.209961,769.542786 493.408752,771.769836 
z"/>
<path fill="#E8C44F" opacity="1.000000" stroke="none" 
	d="
M471.489716,207.761627 
	C473.968445,218.301086 475.834106,228.900330 478.135193,239.404190 
	C484.338806,267.722412 490.728027,295.999969 497.043488,324.293701 
	C497.505310,326.362701 497.966125,328.431915 497.869293,330.758423 
	C496.206696,331.669189 495.102234,332.322571 493.574219,332.989929 
	C487.773010,333.991760 482.395325,334.979614 476.956482,335.616150 
	C475.366302,331.314301 473.326599,327.478149 472.411591,323.390259 
	C470.318726,314.040283 468.775696,304.567230 467.009369,295.144165 
	C469.444733,294.506958 471.880127,293.869720 475.005676,293.147156 
	C476.467682,292.712585 477.239532,292.363373 478.349365,292.006531 
	C479.485016,291.667236 480.282745,291.335602 481.272980,290.807251 
	C481.314117,289.735504 481.162720,288.860535 481.001953,287.641663 
	C480.325134,286.201050 479.657654,285.104309 478.995087,284.003784 
	C479.000000,284.000000 478.989655,284.009583 478.930756,283.701416 
	C478.249268,282.927765 477.626678,282.462311 476.857422,281.692078 
	C473.475006,278.256989 470.239349,275.126648 466.947449,271.645203 
	C464.497589,263.754333 461.673615,256.319214 459.809235,248.650803 
	C456.869568,236.559616 454.574646,224.311676 452.006805,212.130066 
	C458.362946,210.679367 464.719086,209.228653 471.489716,207.761627 
z"/>
<path fill="#E8C65E" opacity="1.000000" stroke="none" 
	d="
M354.056274,101.133240 
	C348.177612,113.236763 342.298981,125.340294 335.838959,137.656677 
	C334.233887,136.292709 332.835419,134.843964 332.245728,133.118774 
	C327.491486,119.210213 322.972656,105.220772 318.158691,91.333443 
	C317.359772,89.028770 315.475769,87.100235 314.093262,84.997879 
	C314.119629,84.530045 314.145996,84.062202 314.097961,82.830002 
	C312.866058,77.423271 311.771149,72.764206 310.536285,68.142509 
	C308.745178,61.438793 306.852905,54.762089 305.003784,48.073868 
	C314.063812,45.689659 323.123810,43.305447 332.605591,41.339478 
	C339.081787,60.215004 345.104095,78.683006 351.251221,97.109367 
	C351.747498,98.597031 353.101044,99.798691 354.056274,101.133240 
z"/>
<path fill="#E8C44F" opacity="1.000000" stroke="none" 
	d="
M521.714905,494.015778 
	C531.494812,506.412323 541.274780,518.808899 550.870605,531.822083 
	C550.649475,535.032654 550.169495,537.713196 550.656677,540.204590 
	C552.248230,548.342773 553.975708,556.467834 556.044373,564.496460 
	C560.827271,583.058594 562.115784,602.566345 570.641846,619.966797 
	C569.471130,619.156555 568.514160,618.507996 567.824280,617.645813 
	C558.862000,606.445740 549.937683,595.215393 540.990845,583.614258 
	C538.809692,576.462097 536.156921,569.800171 534.563538,562.893799 
	C529.672791,541.695251 525.142273,520.412659 520.639709,499.127197 
	C520.310059,497.568939 521.325073,495.726227 521.714905,494.015778 
z"/>
<path fill="#E4BE4B" opacity="1.000000" stroke="none" 
	d="
M521.609070,493.709015 
	C521.325073,495.726227 520.310059,497.568939 520.639709,499.127197 
	C525.142273,520.412659 529.672791,541.695251 534.563538,562.893799 
	C536.156921,569.800171 538.809692,576.462097 540.700439,583.447998 
	C535.150879,576.896423 530.003479,570.030090 524.559875,563.407288 
	C521.275391,559.411255 517.530640,555.793579 513.865234,551.802979 
	C513.535889,551.345398 513.289978,551.144531 512.956360,550.655762 
	C512.606079,549.211548 512.299377,548.109131 511.992676,547.006714 
	C505.429626,519.774170 498.824310,492.551666 492.373505,465.292572 
	C491.774841,462.762665 492.157166,460.000610 492.117371,456.850250 
	C501.934906,468.703522 511.719055,481.052887 521.609070,493.709015 
z"/>
<path fill="#DAAF41" opacity="1.000000" stroke="none" 
	d="
M457.526428,415.827454 
	C462.807648,438.284546 468.597870,460.645538 472.315094,483.346008 
	C475.272156,501.404205 485.018097,515.052002 495.964722,528.482239 
	C496.684784,529.365662 497.251801,530.373779 497.598267,531.613159 
	C495.950409,530.732849 494.358734,529.748169 493.273651,528.365845 
	C478.131470,509.075562 463.039307,489.745880 447.986267,470.385895 
	C445.252350,466.869751 441.225586,463.483917 440.419373,459.506195 
	C437.892700,447.039612 436.619568,434.318939 434.860809,421.696716 
	C437.016510,421.130219 439.171356,420.560608 441.328064,419.997955 
	C446.598541,418.622894 451.869904,417.251007 457.526428,415.827454 
z"/>
<path fill="#E0B847" opacity="1.000000" stroke="none" 
	d="
M466.611633,295.095886 
	C468.775696,304.567230 470.318726,314.040283 472.411591,323.390259 
	C473.326599,327.478149 475.366302,331.314301 476.560364,335.695557 
	C473.786804,336.597015 471.347656,337.064850 468.909668,337.538849 
	C459.790466,339.311768 450.690979,341.195221 441.546448,342.825989 
	C434.435059,344.094177 432.582947,342.834412 430.987976,335.850372 
	C428.587128,325.337646 426.342102,314.789276 424.030823,304.256073 
	C438.091858,301.186584 452.152863,298.117096 466.611633,295.095886 
z"/>
<path fill="#CFA43B" opacity="1.000000" stroke="none" 
	d="
M423.644257,304.245056 
	C426.342102,314.789276 428.587128,325.337646 430.987976,335.850372 
	C432.582947,342.834412 434.435059,344.094177 441.546448,342.825989 
	C450.690979,341.195221 459.790466,339.311768 468.909668,337.538849 
	C471.347656,337.064850 473.786804,336.597015 476.621521,336.046936 
	C482.395325,334.979614 487.773010,333.991760 493.971252,332.997101 
	C495.848572,333.008392 496.905304,333.026459 497.962036,333.044556 
	C497.964111,333.478546 497.966217,333.912567 497.783081,334.834778 
	C497.726898,335.881836 497.856018,336.440643 498.050659,337.410217 
	C498.393921,339.945587 499.155884,342.138306 498.868195,344.183380 
	C497.374207,354.803375 495.612579,365.385681 493.705750,376.235840 
	C491.364868,380.339691 489.262390,384.188751 487.159912,388.037811 
	C491.502899,375.765778 494.423920,363.224579 494.000946,350.107361 
	C493.873230,346.147308 493.356293,342.199738 492.960114,337.574829 
	C461.894989,344.071411 431.269135,350.476135 399.678375,357.082672 
	C400.915588,351.038635 401.985657,345.456329 403.212677,339.908691 
	C404.679321,333.277588 406.560394,326.726257 407.754089,320.049561 
	C409.354797,311.096191 413.566681,305.076782 423.644257,304.245056 
z"/>
<path fill="#EDCC54" opacity="1.000000" stroke="none" 
	d="
M570.979736,620.029175 
	C562.115784,602.566345 560.827271,583.058594 556.044373,564.496460 
	C553.975708,556.467834 552.248230,548.342773 550.656677,540.204590 
	C550.169495,537.713196 550.649475,535.032654 550.982483,532.148560 
	C559.552612,542.298950 567.826904,552.739502 575.916199,563.788330 
	C575.723450,566.808350 575.317993,569.298889 575.776855,571.618347 
	C577.737366,581.529358 579.779541,591.431274 582.127747,601.256226 
	C584.201050,609.930725 586.719421,618.498779 589.030518,627.457886 
	C588.976074,628.492432 588.932373,629.183044 588.610352,629.947815 
	C587.864746,630.556030 587.397461,631.090088 586.584473,631.654663 
	C585.776794,631.710205 585.314880,631.735107 584.623413,631.578491 
	C579.316345,631.204956 575.953552,628.597473 573.933899,623.704956 
	C573.249451,622.930664 572.624756,622.465332 571.781006,621.812622 
	C571.367981,621.093201 571.173889,620.561157 570.979736,620.029175 
z"/>
<path fill="#E0BA52" opacity="1.000000" stroke="none" 
	d="
M321.474640,219.738678 
	C320.245300,218.712875 318.724243,217.459030 318.183960,215.871414 
	C308.244019,186.664062 298.415802,157.418671 288.595917,128.170563 
	C288.233337,127.090622 288.194397,125.902016 288.001526,124.358780 
	C291.337189,123.311508 294.715149,122.818832 297.995941,121.956352 
	C299.370880,121.594894 300.539764,120.449577 302.318085,119.425652 
	C303.756226,120.885475 304.949097,122.488716 305.558685,124.289398 
	C310.975189,140.290085 316.212433,156.352036 321.737244,172.314697 
	C322.365875,174.131104 324.438110,175.447876 325.841003,176.996307 
	C324.577942,185.352966 323.050812,193.681091 322.143494,202.076187 
	C321.526215,207.787323 321.776917,213.592285 321.474640,219.738678 
z"/>
<path fill="#E3BE56" opacity="1.000000" stroke="none" 
	d="
M325.959412,176.577942 
	C324.438110,175.447876 322.365875,174.131104 321.737244,172.314697 
	C316.212433,156.352036 310.975189,140.290085 305.558685,124.289398 
	C304.949097,122.488716 303.756226,120.885475 302.503540,119.094131 
	C306.006531,107.866577 309.839844,96.735573 313.883179,85.301231 
	C315.475769,87.100235 317.359772,89.028770 318.158691,91.333443 
	C322.972656,105.220772 327.491486,119.210213 332.245728,133.118774 
	C332.835419,134.843964 334.233887,136.292709 335.610870,137.933594 
	C333.237976,147.224350 330.399628,156.420151 327.844543,165.694000 
	C326.909668,169.087219 326.647064,172.665634 325.959412,176.577942 
z"/>
<path fill="#E2BB49" opacity="1.000000" stroke="none" 
	d="
M451.605011,212.083099 
	C454.574646,224.311676 456.869568,236.559616 459.809235,248.650803 
	C461.673615,256.319214 464.497589,263.754333 466.599976,271.592773 
	C458.528870,268.608795 450.749023,265.326111 442.597961,262.039795 
	C441.484131,262.030029 440.741577,262.023834 439.725922,261.766724 
	C437.972626,261.340210 436.492401,261.164612 434.950012,260.631531 
	C433.942291,258.556152 432.546356,256.941711 432.123993,255.103561 
	C429.303040,242.826309 426.689728,230.501358 424.009003,218.191895 
	C433.073730,216.139984 442.138489,214.088058 451.605011,212.083099 
z"/>
<path fill="#E6C55D" opacity="1.000000" stroke="none" 
	d="
M531.425659,765.073486 
	C527.225342,753.161682 523.412537,741.288940 519.670837,729.393921 
	C518.978271,727.192322 518.572937,724.900452 518.046631,722.236877 
	C531.557861,727.341797 545.532410,729.419739 560.517517,728.064453 
	C561.578613,730.899353 562.086975,733.310242 562.765015,735.672363 
	C564.852966,742.946106 567.005859,750.201294 569.133484,757.463684 
	C556.701538,760.010742 544.269653,762.557800 531.425659,765.073486 
z"/>
<path fill="#F6DA5D" opacity="1.000000" stroke="none" 
	d="
M565.321899,316.780029 
	C558.478333,318.223145 551.949768,319.385162 545.452087,320.699677 
	C542.149475,321.367798 539.645203,320.540771 538.935913,317.108002 
	C536.523376,305.431885 534.299194,293.716888 532.005310,281.579895 
	C544.575806,278.319580 557.144104,275.496094 570.836670,272.420044 
	C569.039978,287.710266 567.344788,302.136139 565.321899,316.780029 
z"/>
<path fill="#EDCE66" opacity="1.000000" stroke="none" 
	d="
M354.344208,100.936081 
	C353.101044,99.798691 351.747498,98.597031 351.251221,97.109367 
	C345.104095,78.683006 339.081787,60.215004 333.013031,41.366905 
	C341.068817,38.996128 349.138885,37.016171 357.608795,35.467480 
	C362.198151,48.940849 366.354004,61.994083 370.652649,75.000122 
	C370.940521,75.871147 372.309357,76.384903 373.175415,77.064819 
	C366.994324,84.956184 360.813232,92.847549 354.344208,100.936081 
z"/>
<path fill="#D7AB44" opacity="1.000000" stroke="none" 
	d="
M263.441071,127.661743 
	C266.033020,134.983963 268.184998,142.279861 270.342255,149.574203 
	C271.234009,152.589508 272.137115,155.601456 273.062286,159.036850 
	C261.015198,161.357574 248.940857,163.256393 236.384827,164.742767 
	C232.859482,154.015198 229.815796,143.700073 226.772125,133.384949 
	C238.849167,131.468231 250.926193,129.551498 263.441071,127.661743 
z"/>
<path fill="#F6DA5D" opacity="1.000000" stroke="none" 
	d="
M519.006897,197.205811 
	C529.790833,194.748581 540.574768,192.291336 552.185852,189.645630 
	C551.764526,194.384308 551.365173,198.594406 551.020447,202.808960 
	C550.261108,212.092239 549.603027,221.384796 548.719116,230.655991 
	C548.558472,232.341599 547.520752,233.943588 546.172424,235.807358 
	C539.973816,237.016251 534.490540,238.001953 528.946289,238.631317 
	C525.592468,224.585266 522.299683,210.895554 519.006897,197.205811 
z"/>
<path fill="#F0D258" opacity="1.000000" stroke="none" 
	d="
M589.041260,627.113831 
	C586.719421,618.498779 584.201050,609.930725 582.127747,601.256226 
	C579.779541,591.431274 577.737366,581.529358 575.776855,571.618347 
	C575.317993,569.298889 575.723450,566.808350 576.032776,564.115234 
	C590.398987,581.571960 604.463684,599.309998 618.765991,617.347656 
	C617.274658,619.015564 615.993469,620.448425 614.129761,621.723511 
	C611.806824,621.834290 610.038635,621.986694 608.330566,622.392273 
	C601.890198,623.921509 595.469421,625.533081 589.041260,627.113831 
z"/>
<path fill="#D0A13B" opacity="1.000000" stroke="none" 
	d="
M226.332764,133.381012 
	C229.815796,143.700073 232.859482,154.015198 235.962402,164.707916 
	C224.712097,166.965530 213.402573,168.845566 201.650970,170.723236 
	C198.754379,162.473495 196.298264,154.226608 193.846420,145.978424 
	C193.233643,143.917068 192.634659,141.851608 192.015320,139.399475 
	C203.298691,137.132980 214.596039,135.255020 226.332764,133.381012 
z"/>
<path fill="#F9E37A" opacity="1.000000" stroke="none" 
	d="
M637.469788,638.638306 
	C641.086243,647.525574 644.462097,656.704651 647.815186,665.892029 
	C649.921326,671.662598 651.993286,677.445618 654.231445,683.628357 
	C649.494812,692.266541 644.607300,700.499390 639.061768,708.823303 
	C637.406372,707.529297 636.029114,706.280029 635.476990,704.735779 
	C633.039551,697.919067 630.964111,690.972351 628.502380,684.165039 
	C627.235474,680.661621 625.433655,677.351624 623.873535,673.954224 
	C628.322205,662.280701 632.770874,650.607117 637.469788,638.638306 
z"/>
<path fill="#F0D56C" opacity="1.000000" stroke="none" 
	d="
M373.482788,76.940552 
	C372.309357,76.384903 370.940521,75.871147 370.652649,75.000122 
	C366.354004,61.994083 362.198151,48.940849 358.006592,35.503494 
	C366.744629,33.162510 375.484680,31.216782 384.637451,29.656567 
	C388.418549,40.539120 391.786865,51.036156 395.155212,61.533203 
	C388.033539,66.627563 380.911865,71.721916 373.482788,76.940552 
z"/>
<path fill="#E3BE56" opacity="1.000000" stroke="none" 
	d="
M304.612976,48.048019 
	C306.852905,54.762089 308.745178,61.438793 310.536285,68.142509 
	C311.771149,72.764206 312.866058,77.423271 314.028015,82.484047 
	C304.010345,84.410324 293.988159,85.918190 283.500000,87.005127 
	C282.561523,84.829002 282.147491,83.055565 281.606506,81.321747 
	C279.093384,73.267159 276.545135,65.223549 274.009460,57.176006 
	C284.080383,54.124725 294.151276,51.073448 304.612976,48.048019 
z"/>
<path fill="#DCB243" opacity="1.000000" stroke="none" 
	d="
M423.616028,218.154358 
	C426.689728,230.501358 429.303040,242.826309 432.123993,255.103561 
	C432.546356,256.941711 433.942291,258.556152 434.609680,260.636719 
	C433.877808,261.008606 433.424072,261.017883 432.529816,261.026917 
	C429.738495,261.028625 427.387726,261.030579 424.742188,261.058655 
	C423.964935,261.392334 423.482483,261.699799 422.610535,262.070618 
	C418.480438,262.758514 414.739868,263.383057 410.941528,263.649719 
	C407.592346,249.933990 404.300964,236.576218 401.009552,223.218430 
	C408.414062,221.517899 415.818542,219.817368 423.616028,218.154358 
z"/>
<path fill="#DDB54D" opacity="1.000000" stroke="none" 
	d="
M273.635742,57.172371 
	C276.545135,65.223549 279.093384,73.267159 281.606506,81.321747 
	C282.147491,83.055565 282.561523,84.829002 283.062927,87.002602 
	C272.332794,89.181564 261.573669,90.942116 250.341736,92.337799 
	C247.533325,85.201721 245.197754,78.430527 242.862198,71.659325 
	C251.742432,64.200356 262.657501,61.010265 273.635742,57.172371 
z"/>
<path fill="#CF9F39" opacity="1.000000" stroke="none" 
	d="
M224.413483,242.926804 
	C220.706238,232.830566 217.408203,222.772049 214.053879,212.338989 
	C223.395767,210.353775 232.793945,208.743103 242.601562,207.167389 
	C244.952393,213.784698 246.891479,220.367737 248.836044,226.949158 
	C249.903091,230.560532 250.979416,234.169174 252.077164,238.213120 
	C243.009415,240.086319 233.916061,241.525421 224.413483,242.926804 
z"/>
<path fill="#B48A2F" opacity="1.000000" stroke="none" 
	d="
M584.852905,631.759949 
	C585.314880,631.735107 585.776794,631.710205 586.614380,632.029419 
	C587.004578,632.621460 587.019226,632.869263 587.033813,633.117065 
	C583.635986,634.354248 580.312866,636.012207 576.805908,636.634644 
	C575.267517,636.907593 572.832153,635.501099 571.690002,634.122986 
	C556.193420,615.424683 540.846680,596.602051 525.474670,577.800598 
	C496.941223,542.901733 468.487732,507.936981 439.795166,473.169464 
	C436.205872,468.820251 434.522522,464.282196 433.889038,458.861481 
	C432.945709,450.789398 431.329803,442.796082 430.377686,434.724731 
	C430.049805,431.945160 430.852264,429.032257 431.654175,426.330688 
	C433.442719,434.159271 435.117859,441.797668 435.882172,449.526154 
	C436.755127,458.353088 438.847473,466.343231 445.306091,472.925140 
	C449.124542,476.816528 452.319611,481.325378 455.739685,485.600830 
	C472.535858,506.597870 489.291962,527.626953 506.104370,548.610962 
	C519.594666,565.448547 533.140381,582.241760 546.670959,599.047058 
	C555.728821,610.297119 564.818115,621.521912 573.857422,632.786743 
	C575.550110,634.896179 577.130432,636.296387 579.407898,633.144165 
	C581.431824,632.691833 583.142395,632.225891 584.852905,631.759949 
z"/>
<path fill="#EDCE66" opacity="1.000000" stroke="none" 
	d="
M569.538330,757.432007 
	C567.005859,750.201294 564.852966,742.946106 562.765015,735.672363 
	C562.086975,733.310242 561.578613,730.899353 560.985901,728.084717 
	C570.387329,725.729492 579.273376,722.491272 587.679016,717.477295 
	C590.727966,726.150024 593.363220,734.516174 596.168152,742.825073 
	C596.611511,744.138550 597.820251,745.193604 598.675171,746.368164 
	C589.097839,750.045593 579.520508,753.723022 569.538330,757.432007 
z"/>
<path fill="#E8C44F" opacity="1.000000" stroke="none" 
	d="
M493.944153,375.981110 
	C495.612579,365.385681 497.374207,354.803375 498.868195,344.183380 
	C499.155884,342.138306 498.393921,339.945587 498.306274,337.411133 
	C498.666718,337.000854 498.837006,337.000427 499.007324,337.000000 
	C500.333252,341.557037 501.903717,346.059082 502.942566,350.680634 
	C507.254608,369.863892 511.380890,389.088867 515.664001,408.278717 
	C516.011536,409.835663 517.029846,411.242859 518.043152,412.944214 
	C514.775452,417.685181 511.201080,422.201599 507.152252,426.510132 
	C506.313446,425.560516 505.782410,424.855621 505.609467,424.071686 
	C502.379913,409.434814 499.223877,394.781616 495.949432,380.154938 
	C495.620941,378.687531 494.628479,377.368835 493.944153,375.981110 
z"/>
<path fill="#F5DD73" opacity="1.000000" stroke="none" 
	d="
M623.593018,674.150879 
	C625.433655,677.351624 627.235474,680.661621 628.502380,684.165039 
	C630.964111,690.972351 633.039551,697.919067 635.476990,704.735779 
	C636.029114,706.280029 637.406372,707.529297 638.767822,708.982971 
	C633.041077,716.106140 626.950378,723.160645 620.397461,730.019531 
	C616.239990,719.087219 612.544739,708.350586 608.849487,697.613892 
	C613.670471,689.858398 618.491516,682.102905 623.593018,674.150879 
z"/>
<path fill="#F0D56C" opacity="1.000000" stroke="none" 
	d="
M608.546448,697.778687 
	C612.544739,708.350586 616.239990,719.087219 620.094482,730.190186 
	C613.269897,735.759644 606.286133,740.962830 598.988770,746.267090 
	C597.820251,745.193604 596.611511,744.138550 596.168152,742.825073 
	C593.363220,734.516174 590.727966,726.150024 588.022705,717.415405 
	C594.753540,710.666443 601.498474,704.304932 608.546448,697.778687 
z"/>
<path fill="#E5C04C" opacity="1.000000" stroke="none" 
	d="
M493.705750,376.235840 
	C494.628479,377.368835 495.620941,378.687531 495.949432,380.154938 
	C499.223877,394.781616 502.379913,409.434814 505.609467,424.071686 
	C505.782410,424.855621 506.313446,425.560516 506.834229,426.631531 
	C506.185150,427.902771 505.379669,428.844666 504.277466,429.889893 
	C501.683777,431.182312 499.278748,432.202942 497.110535,433.592926 
	C491.229523,437.363190 489.351593,436.804352 487.870026,430.144073 
	C485.606506,419.968811 483.566223,409.743835 481.161896,399.245483 
	C482.889648,395.536163 484.886719,392.121368 487.021851,388.372192 
	C489.262390,384.188751 491.364868,380.339691 493.705750,376.235840 
z"/>
<path fill="#F5DD73" opacity="1.000000" stroke="none" 
	d="
M395.516418,61.410728 
	C391.786865,51.036156 388.418549,40.539120 385.029022,29.672504 
	C393.378693,27.763237 401.749573,26.223541 410.559906,25.155565 
	C411.481781,27.703621 411.824219,29.824739 412.471497,31.848337 
	C414.929016,39.530891 417.485168,47.181900 420.004425,54.844704 
	C411.962158,56.992554 403.919891,59.140408 395.516418,61.410728 
z"/>
<path fill="#D7AA3E" opacity="1.000000" stroke="none" 
	d="
M400.627747,223.197510 
	C404.300964,236.576218 407.592346,249.933990 410.653137,263.897705 
	C406.904938,265.271973 403.420898,266.329803 399.862030,266.742218 
	C394.269562,267.390320 388.626678,267.603455 383.005524,267.628174 
	C383.018005,266.510406 383.030090,265.765228 383.369507,264.932068 
	C384.108032,263.873505 384.519196,262.902924 384.932739,261.566711 
	C384.937500,260.469818 384.939911,259.738556 385.189606,258.776428 
	C385.600616,257.673767 385.764343,256.802002 385.930725,255.564850 
	C385.936493,254.468719 385.939697,253.737961 386.190186,252.776184 
	C386.600098,251.672714 386.762726,250.800293 386.928528,249.562622 
	C386.936951,248.466904 386.942200,247.736435 387.180634,246.813004 
	C387.581665,246.052902 387.749512,245.485764 387.921570,244.527328 
	C387.933807,243.092606 387.941803,242.049179 388.182495,240.812515 
	C388.582489,240.052292 388.749817,239.485291 388.920441,238.554520 
	C388.927460,237.463257 388.931122,236.735748 389.165710,235.811951 
	C389.265503,234.744049 389.134369,233.872437 389.001099,232.608887 
	C388.974518,231.433594 388.950043,230.650269 388.925568,229.866943 
	C390.756073,224.349243 395.828522,224.317078 400.627747,223.197510 
z"/>
<path fill="#F9E37A" opacity="1.000000" stroke="none" 
	d="
M420.466125,54.902557 
	C417.485168,47.181900 414.929016,39.530891 412.471497,31.848337 
	C411.824219,29.824739 411.481781,27.703621 410.995056,25.211540 
	C418.698608,24.579741 426.406525,24.363686 434.564941,24.291164 
	C437.507019,32.615082 440.044281,40.781979 442.461029,48.984383 
	C443.152283,51.330421 443.494507,53.779305 443.996460,56.596230 
	C436.306702,56.327755 428.617279,55.644085 420.466125,54.902557 
z"/>
<path fill="#F2D358" opacity="1.000000" stroke="none" 
	d="
M518.614075,197.175598 
	C522.299683,210.895554 525.592468,224.585266 528.546021,238.652298 
	C522.804260,240.020737 517.401733,241.011841 511.999207,242.002945 
	C510.047180,235.252182 507.901733,228.549774 506.198639,221.736786 
	C504.563782,215.196732 503.387329,208.542068 502.006531,201.531403 
	C507.409485,199.798492 512.815369,198.471939 518.614075,197.175598 
z"/>
<path fill="#C99F39" opacity="1.000000" stroke="none" 
	d="
M579.094482,633.130615 
	C577.130432,636.296387 575.550110,634.896179 573.857422,632.786743 
	C564.818115,621.521912 555.728821,610.297119 546.670959,599.047058 
	C533.140381,582.241760 519.594666,565.448547 506.104370,548.610962 
	C489.291962,527.626953 472.535858,506.597870 455.739685,485.600830 
	C452.319611,481.325378 449.124542,476.816528 445.306091,472.925140 
	C438.847473,466.343231 436.755127,458.353088 435.882172,449.526154 
	C435.117859,441.797668 433.442719,434.159271 431.990784,426.102509 
	C432.637543,424.484039 433.463470,423.244141 434.575104,421.850464 
	C436.619568,434.318939 437.892700,447.039612 440.419373,459.506195 
	C441.225586,463.483917 445.252350,466.869751 447.986267,470.385895 
	C463.039307,489.745880 478.131470,509.075562 493.273651,528.365845 
	C494.358734,529.748169 495.950409,530.732849 497.647217,531.957092 
	C497.987946,532.011780 497.998199,532.000000 498.005310,532.367676 
	C499.049896,534.561584 499.823883,536.617004 501.175049,538.170471 
	C504.989929,542.556458 509.041656,546.736389 513.000000,550.997559 
	C513.289978,551.144531 513.535889,551.345398 513.875000,552.167480 
	C514.576416,553.898926 514.950562,555.212891 515.732727,556.205200 
	C533.288635,578.477234 550.816040,600.772644 568.552246,622.900513 
	C571.590942,626.691589 575.556885,629.739441 579.094482,633.130615 
z"/>
<path fill="#CF9F39" opacity="1.000000" stroke="none" 
	d="
M343.398071,609.745911 
	C340.538940,601.567322 338.042999,593.425598 335.617126,585.263000 
	C334.967163,583.075867 334.530945,580.825195 333.990387,578.184570 
	C340.697693,576.798950 347.411194,575.832581 354.561707,574.914795 
	C356.928864,581.572632 358.854492,588.183105 360.790985,594.790405 
	C361.852997,598.413940 362.933289,602.031982 364.017029,606.012451 
	C357.281708,607.506531 350.534668,608.640747 343.398071,609.745911 
z"/>
<path fill="#B48A2F" opacity="1.000000" stroke="none" 
	d="
M384.942322,259.007294 
	C384.939911,259.738556 384.937500,260.469818 384.611267,261.665253 
	C383.872375,263.092987 383.457275,264.056519 383.042175,265.020081 
	C383.030090,265.765228 383.018005,266.510406 382.762787,267.892151 
	C381.445312,271.501801 382.859161,272.179779 385.465698,271.677521 
	C391.169739,270.578369 396.867828,269.448517 402.569183,268.335419 
	C418.907410,265.145508 435.225159,261.841156 451.454803,268.975006 
	C462.711823,273.923126 471.945282,281.122498 478.011383,292.014160 
	C477.239532,292.363373 476.467682,292.712585 475.366455,293.038666 
	C465.751282,278.313049 452.297394,270.180267 435.193115,267.997314 
	C420.487823,266.120514 406.582733,270.801727 392.450348,273.543610 
	C388.231262,274.362122 384.028107,275.262756 378.697693,276.355316 
	C379.502136,271.793121 380.190613,267.849915 380.893646,263.909332 
	C382.581024,254.451324 384.205475,244.981064 386.026428,235.548782 
	C386.384949,233.691849 387.512329,231.983337 388.605347,230.036652 
	C388.950043,230.650269 388.974518,231.433594 388.780426,232.808441 
	C388.686188,234.269394 388.810516,235.138809 388.934814,236.008240 
	C388.931122,236.735748 388.927460,237.463257 388.658447,238.619659 
	C388.245361,239.700943 388.097595,240.353333 387.949829,241.005737 
	C387.941803,242.049179 387.933807,243.092606 387.659393,244.592041 
	C387.244476,245.700668 387.095947,246.353302 386.947449,247.005951 
	C386.942200,247.736435 386.936951,248.466904 386.632141,249.646973 
	C386.202728,251.066772 386.072815,252.037003 385.942871,253.007217 
	C385.939697,253.737961 385.936493,254.468719 385.633728,255.648132 
	C385.203491,257.066956 385.072906,258.037140 384.942322,259.007294 
z"/>
<path fill="#D7AB44" opacity="1.000000" stroke="none" 
	d="
M242.532013,71.771233 
	C245.197754,78.430527 247.533325,85.201721 249.942200,92.321381 
	C240.123337,94.263924 230.231155,95.858002 218.918564,97.680977 
	C225.864487,87.009621 233.043167,78.574699 242.532013,71.771233 
z"/>
<path fill="#EBC952" opacity="1.000000" stroke="none" 
	d="
M511.710297,242.251373 
	C517.401733,241.011841 522.804260,240.020737 528.607056,239.008636 
	C534.490540,238.001953 539.973816,237.016251 545.906372,236.047211 
	C545.562744,237.243744 544.769897,238.423615 543.670715,239.807709 
	C531.163757,242.438065 518.963806,244.867462 506.761536,247.285553 
	C505.467926,247.541916 504.110229,248.045990 502.877808,247.846024 
	C502.007568,247.704849 501.298920,246.567505 500.518127,245.874847 
	C501.224701,245.287125 501.851013,244.363434 502.652222,244.171997 
	C505.543427,243.481262 508.493530,243.037079 511.710297,242.251373 
z"/>
<path fill="#DAAF41" opacity="1.000000" stroke="none" 
	d="
M589.030518,627.457886 
	C595.469421,625.533081 601.890198,623.921509 608.330566,622.392273 
	C610.038635,621.986694 611.806824,621.834290 613.789795,621.821106 
	C613.747681,622.542603 613.463074,623.008728 612.654907,623.729126 
	C605.417236,625.985718 598.703125,627.987976 591.602234,629.986084 
	C590.439819,629.945801 589.664246,629.909668 588.888611,629.873535 
	C588.932373,629.183044 588.976074,628.492432 589.030518,627.457886 
z"/>
<path fill="#B48A2F" opacity="1.000000" stroke="none" 
	d="
M591.989014,629.990234 
	C598.703125,627.987976 605.417236,625.985718 612.531311,623.981201 
	C610.687561,625.090271 608.520935,626.412231 606.183594,627.268250 
	C601.675964,628.919067 597.071899,630.306580 592.213257,631.336670 
	C591.942139,630.576721 591.965576,630.283508 591.989014,629.990234 
z"/>
<path fill="#C99F39" opacity="1.000000" stroke="none" 
	d="
M704.057251,478.503967 
	C704.494446,478.069092 704.856323,478.042145 705.489624,478.039917 
	C705.761108,481.027130 705.761108,483.989624 705.761108,486.952087 
	C705.546814,486.995758 705.332520,487.039398 705.118286,487.083069 
	C704.739502,484.359344 704.360718,481.635620 704.057251,478.503967 
z"/>
<path fill="#C99F39" opacity="1.000000" stroke="none" 
	d="
M591.602234,629.986084 
	C591.965576,630.283508 591.942139,630.576721 591.880676,631.310059 
	C590.455627,632.188965 589.068726,632.627747 587.357788,633.091797 
	C587.019226,632.869263 587.004578,632.621460 586.960022,631.998840 
	C587.397461,631.090088 587.864746,630.556030 588.610352,629.947754 
	C589.664246,629.909668 590.439819,629.945801 591.602234,629.986084 
z"/>
<path fill="#FDEA80" opacity="1.000000" stroke="none" 
	d="
M592.659790,255.318893 
	C592.395386,255.095490 592.299316,254.717728 592.203247,254.339966 
	C592.458069,254.333176 592.712891,254.326370 593.060669,254.581726 
	C593.153625,254.843887 592.828186,255.164536 592.659790,255.318893 
z"/>
<path fill="#E2BB49" opacity="1.000000" stroke="none" 
	d="
M497.976501,332.703735 
	C496.905304,333.026459 495.848572,333.008392 494.394806,332.983124 
	C495.102234,332.322571 496.206696,331.669189 497.655579,331.007904 
	C497.997009,331.454315 497.993988,331.908630 497.976501,332.703735 
z"/>
<path fill="#E2BB49" opacity="1.000000" stroke="none" 
	d="
M498.967194,336.708862 
	C498.837006,337.000427 498.666718,337.000854 498.240784,337.000397 
	C497.856018,336.440643 497.726898,335.881836 497.787170,335.160278 
	C498.293365,335.470947 498.610229,335.944336 498.967194,336.708862 
z"/>
<path fill="#DAAF41" opacity="1.000000" stroke="none" 
	d="
M512.956360,550.655762 
	C509.041656,546.736389 504.989929,542.556458 501.175049,538.170471 
	C499.823883,536.617004 499.049896,534.561584 498.000214,532.371338 
	C501.506531,536.092896 505.007202,540.193909 508.556641,544.252319 
	C509.390808,545.206116 510.389526,546.015869 511.652649,546.949341 
	C512.299377,548.109131 512.606079,549.211548 512.956360,550.655762 
z"/>
<path fill="#C99F39" opacity="1.000000" stroke="none" 
	d="
M478.349365,292.006531 
	C471.945282,281.122498 462.711823,273.923126 451.454803,268.975006 
	C435.225159,261.841156 418.907410,265.145508 402.569183,268.335419 
	C396.867828,269.448517 391.169739,270.578369 385.465698,271.677521 
	C382.859161,272.179779 381.445312,271.501801 382.762421,268.264771 
	C388.626678,267.603455 394.269562,267.390320 399.862030,266.742218 
	C403.420898,266.329803 406.904938,265.271973 410.710907,264.255615 
	C414.739868,263.383057 418.480438,262.758514 422.798645,262.255981 
	C423.929779,261.929474 424.483337,261.480988 425.036926,261.032471 
	C427.387726,261.030579 429.738495,261.028625 432.647552,261.375671 
	C435.470215,261.822296 437.734619,261.919983 439.999023,262.017639 
	C440.741577,262.023834 441.484131,262.030029 442.698792,262.376801 
	C443.807648,263.196198 444.376862,263.921875 445.091125,264.117157 
	C458.225250,267.707672 468.512604,275.374603 476.798828,285.992432 
	C477.240326,286.558136 478.237244,286.690369 478.989441,287.369904 
	C479.695709,288.811615 480.388062,289.907776 481.080444,291.003967 
	C480.282745,291.335602 479.485016,291.667236 478.349365,292.006531 
z"/>
<path fill="#D7AB44" opacity="1.000000" stroke="none" 
	d="
M478.975586,287.024414 
	C478.237244,286.690369 477.240326,286.558136 476.798828,285.992432 
	C468.512604,275.374603 458.225250,267.707672 445.091125,264.117157 
	C444.376862,263.921875 443.807648,263.196198 443.070068,262.380432 
	C450.749023,265.326111 458.528870,268.608795 466.656189,271.943909 
	C470.239349,275.126648 473.475006,278.256989 476.917969,281.999268 
	C477.746704,283.077332 478.368195,283.543457 478.989655,284.009583 
	C478.989655,284.009583 479.000000,284.000000 478.996765,284.377014 
	C478.998505,285.500732 479.003540,286.247437 479.000671,287.000488 
	C478.992828,287.006897 478.975586,287.024414 478.975586,287.024414 
z"/>
<path fill="#D7AB44" opacity="1.000000" stroke="none" 
	d="
M481.272980,290.807251 
	C480.388062,289.907776 479.695709,288.811615 478.989441,287.369934 
	C478.975586,287.024414 478.992828,287.006897 479.253967,287.118469 
	C480.013824,287.481873 480.512573,287.733704 481.011322,287.985535 
	C481.162720,288.860535 481.314117,289.735504 481.272980,290.807251 
z"/>
<path fill="#E2BB49" opacity="1.000000" stroke="none" 
	d="
M481.001953,287.641663 
	C480.512573,287.733704 480.013824,287.481873 479.261810,287.112061 
	C479.003540,286.247437 478.998505,285.500732 478.991821,284.380798 
	C479.657654,285.104309 480.325134,286.201050 481.001953,287.641663 
z"/>
<path fill="#E2BB49" opacity="1.000000" stroke="none" 
	d="
M478.930756,283.701416 
	C478.368195,283.543457 477.746704,283.077332 477.064667,282.304047 
	C477.626678,282.462311 478.249268,282.927765 478.930756,283.701416 
z"/>
<path fill="#DAAF41" opacity="1.000000" stroke="none" 
	d="
M579.407898,633.144165 
	C575.556885,629.739441 571.590942,626.691589 568.552246,622.900513 
	C550.816040,600.772644 533.288635,578.477234 515.732727,556.205200 
	C514.950562,555.212891 514.576416,553.898926 514.002441,552.370361 
	C517.530640,555.793579 521.275391,559.411255 524.559875,563.407288 
	C530.003479,570.030090 535.150879,576.896423 540.713379,583.826416 
	C549.937683,595.215393 558.862000,606.445740 567.824280,617.645813 
	C568.514160,618.507996 569.471130,619.156555 570.641846,619.966797 
	C571.173889,620.561157 571.367981,621.093201 571.842407,622.120056 
	C572.746338,623.081238 573.369995,623.547546 573.993652,624.013855 
	C575.953552,628.597473 579.316345,631.204956 584.623413,631.578491 
	C583.142395,632.225891 581.431824,632.691833 579.407898,633.144165 
z"/>
<path fill="#E8C44F" opacity="1.000000" stroke="none" 
	d="
M573.933899,623.704956 
	C573.369995,623.547546 572.746338,623.081238 572.061401,622.307495 
	C572.624756,622.465332 573.249451,622.930664 573.933899,623.704956 
z"/>
<path fill="#D7AB44" opacity="1.000000" stroke="none" 
	d="
M439.725922,261.766724 
	C437.734619,261.919983 435.470215,261.822296 433.088074,261.375885 
	C433.424072,261.017883 433.877808,261.008606 434.671875,260.994171 
	C436.492401,261.164612 437.972626,261.340210 439.725922,261.766724 
z"/>
<path fill="#D7AB44" opacity="1.000000" stroke="none" 
	d="
M424.742157,261.058655 
	C424.483337,261.480988 423.929779,261.929474 423.188110,262.192627 
	C423.482483,261.699799 423.964935,261.392334 424.742157,261.058655 
z"/>
<path fill="#C99F39" opacity="1.000000" stroke="none" 
	d="
M385.189575,258.776428 
	C385.072906,258.037140 385.203491,257.066956 385.631104,256.013519 
	C385.764343,256.802002 385.600616,257.673767 385.189575,258.776428 
z"/>
<path fill="#C99F39" opacity="1.000000" stroke="none" 
	d="
M389.165741,235.811951 
	C388.810516,235.138809 388.686188,234.269394 388.782532,233.200409 
	C389.134369,233.872437 389.265503,234.744049 389.165741,235.811951 
z"/>
<path fill="#C99F39" opacity="1.000000" stroke="none" 
	d="
M386.190186,252.776184 
	C386.072815,252.037003 386.202728,251.066772 386.628998,250.012207 
	C386.762726,250.800293 386.600098,251.672714 386.190186,252.776184 
z"/>
<path fill="#C99F39" opacity="1.000000" stroke="none" 
	d="
M383.369507,264.932068 
	C383.457275,264.056519 383.872375,263.092987 384.608917,262.030884 
	C384.519196,262.902924 384.108032,263.873505 383.369507,264.932068 
z"/>
<path fill="#C99F39" opacity="1.000000" stroke="none" 
	d="
M388.182495,240.812515 
	C388.097595,240.353333 388.245361,239.700943 388.655121,238.983398 
	C388.749817,239.485291 388.582489,240.052292 388.182495,240.812515 
z"/>
<path fill="#C99F39" opacity="1.000000" stroke="none" 
	d="
M387.180603,246.813004 
	C387.095947,246.353302 387.244476,245.700668 387.655182,244.983322 
	C387.749512,245.485764 387.581665,246.052902 387.180603,246.813004 
z"/>
</svg>