<svg version="1.1" id="Layer_1" xmlns="http://www.w3.org/2000/svg" xmlns:xlink="http://www.w3.org/1999/xlink" x="0px" y="0px"
	 width="100%" viewBox="0 0 1749 257" enable-background="new 0 0 1749 257" xml:space="preserve">
<path opacity="000000" stroke="none" 
	d="
M1335.000000,258.000000 
	C890.055359,258.000000 445.610687,258.000000 1.083020,258.000000 
	C1.083020,172.399414 1.083020,86.798729 1.083020,1.099020 
	C584.000000,1.099020 1167.000000,1.099020 1749.973877,1.099020 
	C1749.973877,86.722755 1749.973877,172.361374 1749.973877,258.000000 
	C1611.798584,258.000000 1473.649292,258.000000 1335.000000,258.000000 
M553.082336,26.092892 
	C539.056763,26.150663 525.031189,26.208435 510.081421,26.096790 
	C495.723022,26.152887 481.364624,26.208986 466.081390,26.097925 
	C456.814209,26.097925 447.547028,26.097925 438.264160,26.097925 
	C438.264160,98.902863 438.264160,171.176147 438.264160,243.520370 
	C447.103485,243.520370 455.559631,243.520370 464.931061,243.719803 
	C485.956696,243.655548 506.982300,243.591309 528.926025,243.720551 
	C551.462097,243.720551 573.998230,243.720551 596.816162,243.720551 
	C596.816162,231.820847 596.816162,220.405136 596.897217,208.419296 
	C596.598572,208.271683 596.299927,208.124054 595.084900,207.761948 
	C572.722900,207.834381 550.360901,207.906799 527.085022,207.753860 
	C513.448669,207.761642 499.812286,207.769424 485.908447,207.404816 
	C485.694427,207.183701 485.454834,206.995041 485.219055,205.922256 
	C485.219055,158.287552 485.219055,110.652847 485.219055,62.144840 
	C494.427856,62.144840 502.711395,62.144840 511.905548,62.390976 
	C525.602112,62.308804 539.298645,62.226631 553.904785,62.394993 
	C568.166748,62.394993 582.428711,62.394993 596.790161,62.394993 
	C596.790161,50.307926 596.790161,38.648327 596.845276,26.504311 
	C596.656860,26.128368 596.382141,26.048210 595.094238,26.098404 
	C581.398499,26.152824 567.702820,26.207243 553.082336,26.092892 
M1205.362915,24.405987 
	C1201.713867,24.087307 1198.070557,23.607321 1194.414795,23.477516 
	C1177.463257,22.875610 1160.858643,24.626759 1144.266113,31.131365 
	C1141.968506,32.090076 1139.650391,33.002823 1137.376099,34.014229 
	C1084.131714,57.693542 1057.611328,114.104065 1075.128906,167.876205 
	C1085.302856,199.106537 1105.636719,221.774109 1136.424561,235.597794 
	C1152.823853,242.918411 1169.925415,246.662720 1188.075684,246.246704 
	C1188.075684,232.647171 1188.075684,219.581024 1188.075684,206.121735 
	C1168.897095,206.109665 1152.770996,198.907791 1138.659668,185.557495 
	C1121.327026,167.096161 1115.642334,145.234848 1119.916992,120.580391 
	C1122.913452,103.298836 1131.919922,89.481575 1145.732300,77.975204 
	C1163.812378,64.290558 1184.072021,61.231247 1206.494629,65.936493 
	C1220.655396,69.480049 1232.002075,77.495369 1241.974487,88.755486 
	C1242.536621,89.573318 1243.083252,90.402451 1243.663330,91.207344 
	C1265.275391,121.192062 1262.139404,162.348129 1236.265869,187.293762 
	C1224.608643,198.532837 1210.599121,204.753326 1193.876465,206.160019 
	C1201.930054,218.709213 1209.707397,230.828018 1217.600098,243.126724 
	C1234.798828,238.890854 1250.598267,232.374481 1264.808472,220.903168 
	C1298.661743,192.972977 1312.247070,157.146088 1304.692261,114.085968 
	C1299.985596,87.259956 1286.038696,65.367859 1263.706177,48.336155 
	C1257.471436,44.554909 1251.236572,40.773663 1244.550659,36.463783 
	C1232.346313,30.520199 1219.752930,25.862526 1205.362915,24.405987 
M1382.968506,201.982132 
	C1390.813232,214.916519 1398.597168,227.888657 1406.589722,240.731049 
	C1407.459473,242.128479 1409.525391,243.629089 1411.048462,243.641708 
	C1427.022583,243.774277 1442.999146,243.613144 1459.894531,243.741440 
	C1468.490112,243.741440 1477.085693,243.741440 1485.948486,243.741440 
	C1485.948486,229.043259 1485.948486,214.848221 1485.948486,200.301636 
	C1477.153564,200.301636 1468.569092,200.301636 1459.061523,200.142624 
	C1433.712158,200.200912 1408.362671,200.259201 1382.552490,200.245758 
	C1382.463013,200.373383 1382.269287,200.565994 1382.301636,200.617737 
	C1382.457031,200.866989 1382.673584,201.078262 1382.968506,201.982132 
M139.363800,18.120270 
	C137.055466,17.900517 134.751312,17.611019 132.438126,17.472162 
	C115.640907,16.463863 99.041588,17.381218 82.124786,22.752199 
	C52.285915,32.037197 30.150856,50.493900 18.267017,79.480675 
	C4.897424,112.091469 3.966532,145.847794 15.341094,179.125748 
	C26.220261,210.954361 48.973827,231.530396 81.716576,242.105652 
	C100.183121,247.720474 118.969612,248.640167 138.827164,246.028336 
	C178.761002,241.808731 214.472397,210.372986 219.230789,174.835266 
	C203.737778,170.485474 188.181992,166.118057 172.323502,161.665649 
	C167.280670,181.885147 157.552841,197.797729 137.161606,205.924500 
	C129.282944,206.882660 121.411690,208.546021 113.523819,208.629013 
	C102.480103,208.745178 92.591866,204.090469 82.849213,198.225052 
	C73.916328,190.940018 67.405655,181.968994 64.019096,170.882507 
	C57.665279,150.082184 57.420216,128.865372 60.481010,107.590263 
	C62.691711,92.223999 68.391014,78.382744 81.007332,68.288322 
	C81.562630,67.844025 81.726067,66.909981 82.816513,66.145462 
	C88.929703,63.425800 94.846832,60.064968 101.197807,58.122929 
	C113.572701,54.338863 126.168312,55.161037 139.194107,58.691696 
	C155.635635,64.469894 166.005203,75.956963 170.771606,92.921745 
	C187.014404,89.373535 202.961441,85.889938 219.134705,82.356926 
	C215.245956,69.992760 210.321762,58.939342 202.289230,49.613831 
	C185.928406,30.619448 164.580276,21.330212 139.363800,18.120270 
M1003.605042,33.110229 
	C999.377563,31.694330 995.221130,29.995777 990.910278,28.911411 
	C972.131531,24.187782 952.995422,26.490690 933.064575,26.103792 
	C909.705444,26.152628 886.346252,26.201464 862.441162,26.137583 
	C862.299255,26.424194 862.157288,26.710806 861.740662,27.899759 
	C861.740662,99.740532 861.740662,171.581299 861.740662,243.394165 
	C877.824158,243.394165 893.203552,243.394165 909.067261,243.394165 
	C909.067261,183.342926 909.067261,123.666542 909.067261,63.587303 
	C917.364319,63.587303 925.172119,63.587303 933.899414,63.794739 
	C943.881042,63.803230 953.863159,63.759117 963.844055,63.846985 
	C967.653992,63.880524 971.556213,63.748695 975.252319,64.499771 
	C987.795044,67.048515 996.101379,75.130974 1002.123352,86.760231 
	C1008.249634,102.990112 1003.738586,116.558952 991.082397,128.564087 
	C988.504028,130.056335 986.087158,132.286041 983.315002,132.892838 
	C976.828125,134.312790 970.188232,135.604340 963.579163,135.780518 
	C948.199707,136.190475 932.801941,135.911194 916.664856,135.911194 
	C925.124634,150.232193 933.145874,163.931976 941.376038,177.505142 
	C942.011230,178.552750 944.109863,179.184784 945.538452,179.202744 
	C954.681091,179.317795 963.848999,179.583878 972.963501,179.041687 
	C979.346619,178.662003 985.658081,177.077194 992.780396,176.078110 
	C998.787048,173.711761 1005.127502,171.954346 1010.744019,168.876205 
	C1038.582520,153.619308 1054.813110,130.620178 1052.615845,98.156418 
	C1050.494019,66.806602 1032.280884,46.096519 1003.605042,33.110229 
M1663.067017,204.051239 
	C1638.760620,205.761124 1620.069580,195.083603 1604.871460,177.033188 
	C1592.783813,184.684158 1581.170410,192.034897 1568.843140,199.837540 
	C1572.064453,203.980026 1574.719238,207.990616 1577.959961,211.452560 
	C1588.976562,223.220703 1602.532959,231.161087 1617.593262,236.545517 
	C1632.585815,241.905685 1647.992554,244.807571 1664.911255,243.394287 
	C1682.627197,242.436279 1698.650635,237.000305 1712.897949,226.153473 
	C1740.816528,204.898483 1751.004761,149.146408 1701.305908,128.006622 
	C1690.209106,123.286537 1678.444580,120.136902 1666.252930,115.997665 
	C1658.628052,113.669525 1650.780396,111.880539 1643.445679,108.850014 
	C1637.084839,106.221916 1630.652222,102.969124 1625.416870,98.596786 
	C1616.887939,91.473938 1617.171631,80.091370 1625.752930,73.013298 
	C1629.590942,69.847519 1634.521606,67.526993 1639.335693,66.125839 
	C1648.847046,63.357632 1658.461914,65.161995 1668.451782,67.703911 
	C1680.490723,71.372940 1690.040161,79.061615 1699.193237,87.276619 
	C1710.978882,79.682671 1722.397217,72.325432 1734.325439,64.639648 
	C1729.761108,59.905277 1725.857666,55.355423 1721.444458,51.370438 
	C1706.499512,37.875820 1688.954102,29.803942 1668.255005,26.662617 
	C1658.149902,26.454681 1647.939941,25.228519 1637.961914,26.255419 
	C1618.500122,28.258345 1601.485474,35.902359 1588.802246,51.603813 
	C1572.985718,71.184387 1569.478394,110.981422 1594.854736,129.952072 
	C1601.939941,135.248749 1610.005981,139.817352 1618.315063,142.767639 
	C1634.243774,148.423279 1650.668945,152.680389 1667.441528,157.891739 
	C1672.739380,160.594025 1678.452393,162.709763 1683.256836,166.109421 
	C1697.233643,175.999817 1695.743042,192.386673 1680.181030,199.641052 
	C1675.173340,201.975464 1669.411621,202.692474 1663.067017,204.051239 
M689.930481,63.996651 
	C697.419189,64.004112 704.921753,64.307053 712.393860,63.958969 
	C729.177124,63.177135 745.167542,65.735069 760.312561,74.685036 
	C787.687866,92.120644 799.647400,123.083160 791.098999,154.442337 
	C785.508850,174.949387 772.576904,189.373322 753.268494,199.141525 
	C745.767456,201.174835 738.356140,204.419403 730.746277,204.983200 
	C716.000549,206.075668 701.143066,205.654465 686.332092,205.875900 
	C684.615845,205.901535 682.901123,206.024429 680.655090,206.126297 
	C687.844666,218.313675 694.630798,229.910217 701.564697,241.417725 
	C702.209656,242.488083 703.785034,243.651077 704.939697,243.662842 
	C721.409485,243.830704 737.927002,244.361801 754.752930,239.691467 
	C770.400269,235.001053 785.181091,228.380356 798.285522,218.590439 
	C840.684692,186.915237 853.448792,131.513123 828.799011,86.495094 
	C818.116577,66.985710 803.042664,51.789356 782.963257,41.946682 
	C775.480530,38.278709 767.666016,35.287693 759.437134,31.500587 
	C736.711060,24.215698 713.284729,26.216122 689.081909,26.091511 
	C673.723572,26.148926 658.365234,26.206341 642.082581,26.093510 
	C635.133911,26.093510 628.185242,26.093510 621.202759,26.093510 
	C621.202759,98.880630 621.202759,171.181870 621.202759,243.525223 
	C627.750427,243.525223 633.883301,243.525223 640.931213,243.726410 
	C649.875427,243.726410 658.819702,243.726410 668.198669,243.726410 
	C668.198669,183.596970 668.198669,124.023415 668.198669,63.847218 
	C675.427490,63.847218 682.215820,63.847218 689.930481,63.996651 
M417.067352,21.115232 
	C389.379761,21.174597 361.692200,21.233961 333.081024,21.121689 
	C313.059296,21.176746 293.037567,21.231804 272.109589,21.113947 
	C263.595306,19.275537 258.224854,22.527643 256.005585,30.989948 
	C255.757675,31.935238 255.169495,32.792725 254.728622,33.685757 
	C251.381546,40.465355 248.031845,47.243671 244.399094,54.597031 
	C254.205185,54.597031 263.114532,54.597031 272.940735,54.782822 
	C276.936646,54.866043 281.002380,54.505909 284.914307,55.122215 
	C293.822418,56.525661 302.774841,57.956024 311.474884,60.260303 
	C316.972839,61.716484 321.336792,65.465408 323.281830,72.261169 
	C305.849640,72.261169 288.933044,72.261169 271.114777,72.092514 
	C263.427460,70.512550 258.618286,73.415810 256.394257,81.053123 
	C255.571457,83.878593 253.831757,86.436859 252.511948,89.117828 
	C249.906693,94.409866 247.302658,99.702484 244.435303,105.528847 
	C254.212234,105.528847 263.121246,105.528847 272.946228,105.713165 
	C289.623413,105.713165 306.300568,105.713165 323.487335,105.713165 
	C321.453461,112.209167 317.357361,115.362175 312.635712,118.040955 
	C303.429260,123.264168 293.233093,124.269753 282.078247,125.096359 
	C272.357483,125.096359 262.636749,125.096359 252.451370,125.096359 
	C252.451370,136.274673 252.413910,146.700348 252.510117,157.124771 
	C252.519608,158.152420 253.102264,159.413940 253.833984,160.159485 
	C263.126617,169.627487 272.495300,179.020859 282.119446,189.013397 
	C297.365814,204.469971 312.612183,219.926559 328.134064,235.965637 
	C332.473022,242.249817 338.200684,244.343857 345.991455,243.967484 
	C360.288940,243.276764 374.644135,243.787170 388.975250,243.772552 
	C390.358704,243.771133 391.741943,243.599167 394.248291,243.431046 
	C372.674103,222.769470 351.891693,202.866165 330.842224,182.342743 
	C322.018860,173.814362 313.195526,165.285980 304.982635,157.347672 
	C314.103516,154.841888 323.552887,152.245850 333.668335,149.504166 
	C349.660736,142.832657 364.165527,133.481033 369.731995,116.579117 
	C373.196411,106.059692 378.721832,104.223709 387.521545,105.858017 
	C399.016602,107.992920 405.568878,103.531029 409.182404,92.510231 
	C411.462708,85.555611 415.511169,79.180763 419.070312,71.926735 
	C403.381866,71.926735 388.616699,71.926735 374.481323,71.926735 
	C371.524261,66.024925 368.828369,60.644413 365.905518,54.810860 
	C376.903931,54.810860 387.663361,54.900127 398.418152,54.718048 
	C400.100403,54.689571 402.660522,53.888756 403.290955,52.661980 
	C408.442505,42.637737 413.232239,32.427521 418.509460,22.034334 
	C418.333832,21.795483 418.158203,21.556629 417.067352,21.115232 
M1552.881836,49.500061 
	C1552.881836,41.751694 1552.881836,34.003326 1552.881836,26.312508 
	C1535.952026,26.312508 1519.846802,26.312508 1503.607422,26.312508 
	C1503.607422,98.876518 1503.607422,171.188934 1503.607422,243.507263 
	C1520.134277,243.507263 1536.231079,243.507263 1552.881836,243.507263 
	C1552.881836,178.986572 1552.881836,114.743301 1552.881836,49.500061 
M1327.090576,101.499985 
	C1327.090576,148.752777 1327.090576,196.005585 1327.090576,243.454498 
	C1343.183838,243.454498 1358.731445,243.454498 1374.465088,243.454498 
	C1374.465088,170.929611 1374.465088,98.732613 1374.465088,26.359703 
	C1358.617432,26.359703 1343.063477,26.359703 1327.090576,26.359703 
	C1327.090576,51.269215 1327.090576,75.884590 1327.090576,101.499985 
M540.500183,116.613319 
	C525.291748,116.613319 510.083344,116.613319 494.649139,116.613319 
	C494.854248,117.797607 494.818665,118.328690 495.033234,118.724007 
	C501.527832,130.689453 507.964417,142.688416 514.680542,154.528732 
	C515.413696,155.821228 517.768860,156.852829 519.389282,156.878159 
	C531.861267,157.073151 544.337524,156.989868 556.812500,156.992462 
	C560.736694,156.993271 564.660950,156.992584 568.592041,156.992584 
	C568.592041,143.249786 568.592041,130.181610 568.592041,116.612793 
	C559.386719,116.612793 550.443481,116.612793 540.500183,116.613319 
z"/>
<path fill="#FEEA7F" opacity="1.000000" stroke="none" 
	d="
M932.979980,63.587303 
	C925.172119,63.587303 917.364319,63.587303 909.067261,63.587303 
	C909.067261,123.666542 909.067261,183.342926 909.067261,243.394165 
	C893.203552,243.394165 877.824158,243.394165 861.740662,243.394165 
	C861.740662,171.581299 861.740662,99.740532 862.069275,27.365658 
	C862.641357,26.685528 862.837769,26.491777 862.987122,26.250299 
	C886.346252,26.201464 909.705444,26.152628 933.526367,26.633907 
	C933.652039,39.305115 933.316040,51.446209 932.979980,63.587303 
z"/>
<path fill="#D6AC46" opacity="1.000000" stroke="none" 
	d="
M1552.881836,50.000050 
	C1552.881836,114.743301 1552.881836,178.986572 1552.881836,243.507263 
	C1536.231079,243.507263 1520.134277,243.507263 1503.607422,243.507263 
	C1503.607422,171.188934 1503.607422,98.876518 1503.607422,26.312508 
	C1519.846802,26.312508 1535.952026,26.312508 1552.881836,26.312508 
	C1552.881836,34.003326 1552.881836,41.751694 1552.881836,50.000050 
z"/>
<path fill="#E0BC55" opacity="1.000000" stroke="none" 
	d="
M1327.090576,100.999977 
	C1327.090576,75.884590 1327.090576,51.269215 1327.090576,26.359703 
	C1343.063477,26.359703 1358.617432,26.359703 1374.465088,26.359703 
	C1374.465088,98.732613 1374.465088,170.929611 1374.465088,243.454498 
	C1358.731445,243.454498 1343.183838,243.454498 1327.090576,243.454498 
	C1327.090576,196.005585 1327.090576,148.752777 1327.090576,100.999977 
z"/>
<path fill="#CB9833" opacity="1.000000" stroke="none" 
	d="
M81.006287,241.794373 
	C48.973827,231.530396 26.220261,210.954361 15.341094,179.125748 
	C3.966532,145.847794 4.897424,112.091469 18.267017,79.480675 
	C30.150856,50.493900 52.285915,32.037197 82.538727,23.207333 
	C82.659126,37.842999 82.365578,52.023525 82.072021,66.204056 
	C81.726067,66.909981 81.562630,67.844025 81.007332,68.288322 
	C68.391014,78.382744 62.691711,92.223999 60.481010,107.590263 
	C57.420216,128.865372 57.665279,150.082184 64.019096,170.882507 
	C67.405655,181.968994 73.916328,190.940018 82.782631,198.915070 
	C82.144066,202.129257 81.116814,204.646484 81.078194,207.178772 
	C80.902229,218.714981 81.004227,230.255447 81.006287,241.794373 
z"/>
<path fill="#F9E47A" opacity="1.000000" stroke="none" 
	d="
M754.005005,199.106079 
	C772.576904,189.373322 785.508850,174.949387 791.098999,154.442337 
	C799.647400,123.083160 787.687866,92.120644 760.127808,73.972473 
	C759.628662,66.213951 759.067322,59.167862 759.071167,52.122086 
	C759.074890,45.410542 759.668457,38.699329 760.002747,31.987980 
	C767.666016,35.287693 775.480530,38.278709 782.963257,41.946682 
	C803.042664,51.789356 818.116577,66.985710 828.799011,86.495094 
	C853.448792,131.513123 840.684692,186.915237 798.285522,218.590439 
	C785.181091,228.380356 770.400269,235.001053 754.359070,239.296860 
	C753.643494,236.306473 753.005859,233.704666 753.055176,231.115952 
	C753.258423,220.443832 753.670044,209.775681 754.005005,199.106079 
z"/>
<path fill="#F0D56C" opacity="1.000000" stroke="none" 
	d="
M1145.066284,78.168221 
	C1131.919922,89.481575 1122.913452,103.298836 1119.916992,120.580391 
	C1115.642334,145.234848 1121.327026,167.096161 1138.814087,186.311096 
	C1138.645630,200.195526 1138.428223,213.330429 1137.918091,226.453979 
	C1137.805786,229.340286 1136.655273,232.186234 1135.982910,235.050781 
	C1105.636719,221.774109 1085.302856,199.106537 1075.128906,167.876205 
	C1057.611328,114.104065 1084.131714,57.693542 1137.376099,34.014229 
	C1139.650391,33.002823 1141.968506,32.090076 1144.632324,31.588230 
	C1145.021118,47.419472 1145.043701,62.793846 1145.066284,78.168221 
z"/>
<path fill="#DBB24B" opacity="1.000000" stroke="none" 
	d="
M273.015839,21.286861 
	C293.037567,21.231804 313.059296,21.176746 333.543304,21.657192 
	C333.671143,64.678398 333.336700,107.164108 333.002258,149.649811 
	C323.552887,152.245850 314.103516,154.841888 304.982635,157.347672 
	C313.195526,165.285980 322.018860,173.814362 330.590576,182.778625 
	C329.892609,185.037781 329.108887,186.850800 329.053070,188.685959 
	C328.579742,204.249405 328.239044,219.816864 327.858551,235.383133 
	C312.612183,219.926559 297.365814,204.469971 282.019470,188.226303 
	C282.282715,166.700089 282.645935,145.960968 283.009186,125.221840 
	C293.233093,124.269753 303.429260,123.264168 312.635712,118.040955 
	C317.357361,115.362175 321.453461,112.209167 323.487335,105.713165 
	C306.300568,105.713165 289.623413,105.713165 272.483032,105.183151 
	C272.018707,93.855812 272.017578,83.058495 272.016449,72.261169 
	C288.933044,72.261169 305.849640,72.261169 323.281830,72.261169 
	C321.336792,65.465408 316.972839,61.716484 311.474884,60.260303 
	C302.774841,57.956024 293.822418,56.525661 284.914307,55.122215 
	C281.002380,54.505909 276.936646,54.866043 272.479553,54.266926 
	C272.350861,42.929642 272.683350,32.108250 273.015839,21.286861 
z"/>
<path fill="#D2A43E" opacity="1.000000" stroke="none" 
	d="
M1666.888184,157.517761 
	C1650.668945,152.680389 1634.243774,148.423279 1618.315063,142.767639 
	C1610.005981,139.817352 1601.939941,135.248749 1594.854736,129.952072 
	C1569.478394,110.981422 1572.985718,71.184387 1588.802246,51.603813 
	C1601.485474,35.902359 1618.500122,28.258345 1637.961914,26.255419 
	C1647.939941,25.228519 1658.149902,26.454681 1668.627441,27.301025 
	C1669.000000,33.427395 1669.131470,38.919270 1668.968140,44.402363 
	C1668.741333,52.012951 1668.293213,59.616940 1667.939819,67.223755 
	C1658.461914,65.161995 1648.847046,63.357632 1639.335693,66.125839 
	C1634.521606,67.526993 1629.590942,69.847519 1625.752930,73.013298 
	C1617.171631,80.091370 1616.887939,91.473938 1625.416870,98.596786 
	C1630.652222,102.969124 1637.084839,106.221916 1643.445679,108.850014 
	C1650.780396,111.880539 1658.628052,113.669525 1666.621826,116.582359 
	C1666.956421,130.617294 1666.922241,144.067520 1666.888184,157.517761 
z"/>
<path fill="#DEB750" opacity="1.000000" stroke="none" 
	d="
M333.335297,149.576996 
	C333.336700,107.164108 333.671143,64.678398 334.005096,21.743011 
	C361.692200,21.233961 389.379761,21.174597 417.543152,21.458504 
	C418.018982,21.801773 418.131989,22.273849 418.131989,22.273848 
	C413.232239,32.427521 408.442505,42.637737 403.290955,52.661980 
	C402.660522,53.888756 400.100403,54.689571 398.418152,54.718048 
	C387.663361,54.900127 376.903931,54.810860 365.905518,54.810860 
	C368.828369,60.644413 371.524261,66.024925 374.481323,71.926735 
	C388.616699,71.926735 403.381866,71.926735 419.070312,71.926735 
	C415.511169,79.180763 411.462708,85.555611 409.182404,92.510231 
	C405.568878,103.531029 399.016602,107.992920 387.521545,105.858017 
	C378.721832,104.223709 373.196411,106.059692 369.731995,116.579117 
	C364.165527,133.481033 349.660736,142.832657 333.335297,149.576996 
z"/>
<path fill="#E6C45C" opacity="1.000000" stroke="none" 
	d="
M510.994904,62.144840 
	C502.711395,62.144840 494.427856,62.144840 485.219055,62.144840 
	C485.219055,110.652847 485.219055,158.287552 485.161011,206.692123 
	C485.460602,207.567062 485.818237,207.672134 486.175903,207.777222 
	C499.812286,207.769424 513.448669,207.761642 527.542358,208.336548 
	C528.002380,220.455185 528.005188,231.991119 528.007935,243.527054 
	C506.982300,243.591309 485.956696,243.655548 464.470459,243.182495 
	C464.339691,221.876099 464.685608,201.107269 464.994995,180.337891 
	C465.346527,156.739746 465.686920,133.141373 465.992828,109.542603 
	C466.352661,81.783714 466.670288,54.024281 467.006226,26.265083 
	C481.364624,26.208986 495.723022,26.152887 510.543579,26.633057 
	C511.002136,38.827827 510.998535,50.486336 510.994904,62.144840 
z"/>
<path fill="#F2D66D" opacity="1.000000" stroke="none" 
	d="
M643.006897,26.263756 
	C658.365234,26.206341 673.723572,26.148926 689.544434,26.629635 
	C689.672668,39.394245 689.338440,51.620731 689.004150,63.847218 
	C682.215820,63.847218 675.427490,63.847218 668.198669,63.847218 
	C668.198669,124.023415 668.198669,183.596970 668.198669,243.726410 
	C658.819702,243.726410 649.875427,243.726410 640.471924,243.217270 
	C640.341064,239.747986 640.910095,236.791885 640.959839,233.827057 
	C641.361572,209.889252 641.762695,185.950653 641.978638,162.010651 
	C642.386658,116.762276 642.671082,71.512779 643.006897,26.263756 
z"/>
<path fill="#CE9D38" opacity="1.000000" stroke="none" 
	d="
M1667.164795,157.704742 
	C1666.922241,144.067520 1666.956421,130.617294 1666.989014,116.715637 
	C1678.444580,120.136902 1690.209106,123.286537 1701.305908,128.006622 
	C1751.004761,149.146408 1740.816528,204.898483 1712.897949,226.153473 
	C1698.650635,237.000305 1682.627197,242.436279 1664.458984,242.834793 
	C1664.229980,238.980011 1664.672974,235.682205 1664.635010,232.389954 
	C1664.526245,222.975235 1664.222168,213.562775 1663.994873,204.149429 
	C1669.411621,202.692474 1675.173340,201.975464 1680.181030,199.641052 
	C1695.743042,192.386673 1697.233643,175.999817 1683.256836,166.109421 
	C1678.452393,162.709763 1672.739380,160.594025 1667.164795,157.704742 
z"/>
<path fill="#E4C058" opacity="1.000000" stroke="none" 
	d="
M466.543823,26.181503 
	C466.670288,54.024281 466.352661,81.783714 465.992828,109.542603 
	C465.686920,133.141373 465.346527,156.739746 464.994995,180.337891 
	C464.685608,201.107269 464.339691,221.876099 464.012848,243.082764 
	C455.559631,243.520370 447.103485,243.520370 438.264160,243.520370 
	C438.264160,171.176147 438.264160,98.902863 438.264160,26.097925 
	C447.547028,26.097925 456.814209,26.097925 466.543823,26.181503 
z"/>
<path fill="#F5DD73" opacity="1.000000" stroke="none" 
	d="
M991.742920,128.255463 
	C1003.738586,116.558952 1008.249634,102.990112 1002.473755,86.243637 
	C1003.216125,83.879791 1003.932495,82.035446 1003.949036,80.184853 
	C1004.088074,64.632332 1004.098877,49.078663 1004.148193,33.525341 
	C1032.280884,46.096519 1050.494019,66.806602 1052.615845,98.156418 
	C1054.813110,130.620178 1038.582520,153.619308 1010.744019,168.876205 
	C1005.127502,171.954346 998.787048,173.711761 992.390381,175.583710 
	C992.134888,167.170242 992.406372,159.250443 992.364868,151.332275 
	C992.324585,143.639145 991.963318,135.947662 991.742920,128.255463 
z"/>
<path fill="#E7C55D" opacity="1.000000" stroke="none" 
	d="
M1264.023560,48.926182 
	C1286.038696,65.367859 1299.985596,87.259956 1304.692261,114.085968 
	C1312.247070,157.146088 1298.661743,192.972977 1264.198730,220.679108 
	C1263.392822,218.657333 1262.996094,216.855606 1263.031860,215.062515 
	C1263.307251,201.266769 1263.746460,187.474045 1263.981934,173.677795 
	C1264.379517,150.386948 1264.887573,127.094536 1264.926270,103.802086 
	C1264.956543,85.510666 1264.348145,67.218185 1264.023560,48.926182 
z"/>
<path fill="#E8C960" opacity="1.000000" stroke="none" 
	d="
M1263.864868,48.631168 
	C1264.348145,67.218185 1264.956543,85.510666 1264.926270,103.802086 
	C1264.887573,127.094536 1264.379517,150.386948 1263.981934,173.677795 
	C1263.746460,187.474045 1263.307251,201.266769 1263.031860,215.062515 
	C1262.996094,216.855606 1263.392822,218.657333 1263.876709,220.767303 
	C1250.598267,232.374481 1234.798828,238.890854 1217.600098,243.126724 
	C1209.707397,230.828018 1201.930054,218.709213 1193.876465,206.160019 
	C1210.599121,204.753326 1224.608643,198.532837 1236.265869,187.293762 
	C1262.139404,162.348129 1265.275391,121.192062 1243.663330,91.207344 
	C1243.083252,90.402451 1242.536621,89.573318 1242.247314,88.343918 
	C1243.346558,86.159439 1244.844116,84.402672 1244.887329,82.610893 
	C1245.123047,72.815422 1245.001587,63.011364 1245.002319,53.210258 
	C1245.002808,47.804302 1245.002075,42.398346 1245.001831,36.992401 
	C1251.236572,40.773663 1257.471436,44.554909 1263.864868,48.631168 
z"/>
<path fill="#EED269" opacity="1.000000" stroke="none" 
	d="
M642.544739,26.178633 
	C642.671082,71.512779 642.386658,116.762276 641.978638,162.010651 
	C641.762695,185.950653 641.361572,209.889252 640.959839,233.827057 
	C640.910095,236.791885 640.341064,239.747986 640.014404,243.116669 
	C633.883301,243.525223 627.750427,243.525223 621.202759,243.525223 
	C621.202759,171.181870 621.202759,98.880630 621.202759,26.093510 
	C628.185242,26.093510 635.133911,26.093510 642.544739,26.178633 
z"/>
<path fill="#D2A43E" opacity="1.000000" stroke="none" 
	d="
M137.960175,205.892517 
	C157.552841,197.797729 167.280670,181.885147 172.323502,161.665649 
	C188.181992,166.118057 203.737778,170.485474 219.230789,174.835266 
	C214.472397,210.372986 178.761002,241.808731 138.414154,245.521393 
	C138.000748,243.022430 138.002029,241.030426 137.999741,239.038422 
	C137.987030,227.989792 137.973450,216.941147 137.960175,205.892517 
z"/>
<path fill="#D2A53E" opacity="1.000000" stroke="none" 
	d="
M1663.531006,204.100342 
	C1664.222168,213.562775 1664.526245,222.975235 1664.635010,232.389954 
	C1664.672974,235.682205 1664.229980,238.980011 1664.010254,242.748322 
	C1647.992554,244.807571 1632.585815,241.905685 1617.593262,236.545517 
	C1602.532959,231.161087 1588.976562,223.220703 1577.959961,211.452560 
	C1574.719238,207.990616 1572.064453,203.980026 1568.843140,199.837540 
	C1581.170410,192.034897 1592.783813,184.684158 1604.871460,177.033188 
	C1620.069580,195.083603 1638.760620,205.761124 1663.531006,204.100342 
z"/>
<path fill="#D2A43E" opacity="1.000000" stroke="none" 
	d="
M140.102081,18.383793 
	C164.580276,21.330212 185.928406,30.619448 202.289230,49.613831 
	C210.321762,58.939342 215.245956,69.992760 219.134705,82.356926 
	C202.961441,85.889938 187.014404,89.373535 170.771606,92.921745 
	C166.005203,75.956963 155.635635,64.469894 139.236450,58.142494 
	C139.519150,55.814873 139.953125,54.038101 139.968277,52.257767 
	C140.064438,40.966881 140.067978,29.675207 140.102081,18.383793 
z"/>
<path fill="#F8E178" opacity="1.000000" stroke="none" 
	d="
M1003.876648,33.317787 
	C1004.098877,49.078663 1004.088074,64.632332 1003.949036,80.184853 
	C1003.932495,82.035446 1003.216125,83.879791 1002.454834,85.861481 
	C996.101379,75.130974 987.795044,67.048515 975.252319,64.499771 
	C971.556213,63.748695 967.653992,63.880524 963.844055,63.846985 
	C953.863159,63.759117 943.881042,63.803230 933.439697,63.691021 
	C933.316040,51.446209 933.652039,39.305115 933.988098,26.714111 
	C952.995422,26.490690 972.131531,24.187782 990.910278,28.911411 
	C995.221130,29.995777 999.377563,31.694330 1003.876648,33.317787 
z"/>
<path fill="#DEB850" opacity="1.000000" stroke="none" 
	d="
M1383.013306,200.317490 
	C1408.362671,200.259201 1433.712158,200.200912 1459.524780,200.671082 
	C1459.650391,215.310776 1459.312866,229.422012 1458.975098,243.533234 
	C1442.999146,243.613144 1427.022583,243.774277 1411.048462,243.641708 
	C1409.525391,243.629089 1407.459473,242.128479 1406.589722,240.731049 
	C1398.597168,227.888657 1390.813232,214.916519 1382.968872,201.398071 
	C1382.969238,200.814011 1383.013306,200.317490 1383.013306,200.317490 
z"/>
<path fill="#FAE379" opacity="1.000000" stroke="none" 
	d="
M991.412720,128.409775 
	C991.963318,135.947662 992.324585,143.639145 992.364868,151.332275 
	C992.406372,159.250443 992.134888,167.170242 992.000977,175.559967 
	C985.658081,177.077194 979.346619,178.662003 972.963501,179.041687 
	C963.848999,179.583878 954.681091,179.317795 945.538452,179.202744 
	C944.109863,179.184784 942.011230,178.552750 941.376038,177.505142 
	C933.145874,163.931976 925.124634,150.232193 916.664856,135.911194 
	C932.801941,135.911194 948.199707,136.190475 963.579163,135.780518 
	C970.188232,135.604340 976.828125,134.312790 983.315002,132.892838 
	C986.087158,132.286041 988.504028,130.056335 991.412720,128.409775 
z"/>
<path fill="#F5DD73" opacity="1.000000" stroke="none" 
	d="
M689.467285,63.921936 
	C689.338440,51.620731 689.672668,39.394245 690.006287,26.716084 
	C713.284729,26.216122 736.711060,24.215698 759.719971,31.744278 
	C759.668457,38.699329 759.074890,45.410542 759.071167,52.122086 
	C759.067322,59.167862 759.628662,66.213951 759.949097,73.688866 
	C745.167542,65.735069 729.177124,63.177135 712.393860,63.958969 
	C704.921753,64.307053 697.419189,64.004112 689.467285,63.921936 
z"/>
<path fill="#ECCF66" opacity="1.000000" stroke="none" 
	d="
M1145.399292,78.071716 
	C1145.043701,62.793846 1145.021118,47.419472 1144.998047,31.584396 
	C1160.858643,24.626759 1177.463257,22.875610 1194.414795,23.477516 
	C1198.070557,23.607321 1201.713867,24.087307 1205.697510,25.095177 
	C1205.975952,39.069557 1205.919800,52.354748 1205.863770,65.639938 
	C1184.072021,61.231247 1163.812378,64.290558 1145.399292,78.071716 
z"/>
<path fill="#E8C860" opacity="1.000000" stroke="none" 
	d="
M541.000244,116.613052 
	C550.443481,116.612793 559.386719,116.612793 568.592041,116.612793 
	C568.592041,130.181610 568.592041,143.249786 568.592041,156.992584 
	C564.660950,156.992584 560.736694,156.993271 556.812500,156.992462 
	C544.337524,156.989868 531.861267,157.073151 519.389282,156.878159 
	C517.768860,156.852829 515.413696,155.821228 514.680542,154.528732 
	C507.964417,142.688416 501.527832,130.689453 495.033234,118.724007 
	C494.818665,118.328690 494.854248,117.797607 494.649139,116.613319 
	C510.083344,116.613319 525.291748,116.613319 541.000244,116.613052 
z"/>
<path fill="#ECCD63" opacity="1.000000" stroke="none" 
	d="
M528.466980,243.623810 
	C528.005188,231.991119 528.002380,220.455185 527.999268,208.449234 
	C550.360901,207.906799 572.722900,207.834381 595.638550,208.067856 
	C596.356201,208.623627 596.564148,208.828842 596.816162,208.989426 
	C596.816162,220.405136 596.816162,231.820847 596.816162,243.720551 
	C573.998230,243.720551 551.462097,243.720551 528.466980,243.623810 
z"/>
<path fill="#F4DB72" opacity="1.000000" stroke="none" 
	d="
M753.636719,199.123810 
	C753.670044,209.775681 753.258423,220.443832 753.055176,231.115952 
	C753.005859,233.704666 753.643494,236.306473 753.988647,239.305176 
	C737.927002,244.361801 721.409485,243.830704 704.939697,243.662842 
	C703.785034,243.651077 702.209656,242.488083 701.564697,241.417725 
	C694.630798,229.910217 687.844666,218.313675 680.655090,206.126297 
	C682.901123,206.024429 684.615845,205.901535 686.332092,205.875900 
	C701.143066,205.654465 716.000549,206.075668 730.746277,204.983200 
	C738.356140,204.419403 745.767456,201.174835 753.636719,199.123810 
z"/>
<path fill="#CD9D37" opacity="1.000000" stroke="none" 
	d="
M1668.195801,67.463837 
	C1668.293213,59.616940 1668.741333,52.012951 1668.968140,44.402363 
	C1669.131470,38.919270 1669.000000,33.427395 1669.000000,27.470943 
	C1688.954102,29.803942 1706.499512,37.875820 1721.444458,51.370438 
	C1725.857666,55.355423 1729.761108,59.905277 1734.325439,64.639648 
	C1722.397217,72.325432 1710.978882,79.682671 1699.193237,87.276619 
	C1690.040161,79.061615 1680.490723,71.372940 1668.195801,67.463837 
z"/>
<path fill="#CE9D38" opacity="1.000000" stroke="none" 
	d="
M137.560883,205.908508 
	C137.973450,216.941147 137.987030,227.989792 137.999741,239.038422 
	C138.002029,241.030426 138.000748,243.022430 138.001923,245.477875 
	C118.969612,248.640167 100.183121,247.720474 81.361435,241.950012 
	C81.004227,230.255447 80.902229,218.714981 81.078194,207.178772 
	C81.116814,204.646484 82.144066,202.129257 82.882324,199.249680 
	C92.591866,204.090469 102.480103,208.745178 113.523819,208.629013 
	C121.411690,208.546021 129.282944,206.882660 137.560883,205.908508 
z"/>
<path fill="#CE9D38" opacity="1.000000" stroke="none" 
	d="
M139.732941,18.252031 
	C140.067978,29.675207 140.064438,40.966881 139.968277,52.257767 
	C139.953125,54.038101 139.519150,55.814873 138.963608,57.899345 
	C126.168312,55.161037 113.572701,54.338863 101.197807,58.122929 
	C94.846832,60.064968 88.929703,63.425800 82.444267,66.174759 
	C82.365578,52.023525 82.659126,37.842999 82.929192,23.171741 
	C99.041588,17.381218 115.640907,16.463863 132.438126,17.472162 
	C134.751312,17.611019 137.055466,17.900517 139.732941,18.252031 
z"/>
<path fill="#EDD067" opacity="1.000000" stroke="none" 
	d="
M1136.203735,235.324280 
	C1136.655273,232.186234 1137.805786,229.340286 1137.918091,226.453979 
	C1138.428223,213.330429 1138.645630,200.195526 1138.957520,186.618835 
	C1152.770996,198.907791 1168.897095,206.109665 1188.075684,206.121735 
	C1188.075684,219.581024 1188.075684,232.647171 1188.075684,246.246704 
	C1169.925415,246.662720 1152.823853,242.918411 1136.203735,235.324280 
z"/>
<path fill="#DDB64F" opacity="1.000000" stroke="none" 
	d="
M327.996307,235.674377 
	C328.239044,219.816864 328.579742,204.249405 329.053070,188.685959 
	C329.108887,186.850800 329.892609,185.037781 330.724060,183.088684 
	C351.891693,202.866165 372.674103,222.769470 394.248291,243.431046 
	C391.741943,243.599167 390.358704,243.771133 388.975250,243.772552 
	C374.644135,243.787170 360.288940,243.276764 345.991455,243.967484 
	C338.200684,244.343857 332.473022,242.249817 327.996307,235.674377 
z"/>
<path fill="#E9C961" opacity="1.000000" stroke="none" 
	d="
M1206.179199,65.788216 
	C1205.919800,52.354748 1205.975952,39.069557 1206.048584,25.304560 
	C1219.752930,25.862526 1232.346313,30.520199 1244.776245,36.728088 
	C1245.002075,42.398346 1245.002808,47.804302 1245.002319,53.210258 
	C1245.001587,63.011364 1245.123047,72.815422 1244.887329,82.610893 
	C1244.844116,84.402672 1243.346558,86.159439 1242.118896,88.017502 
	C1232.002075,77.495369 1220.655396,69.480049 1206.179199,65.788216 
z"/>
<path fill="#ECCD64" opacity="1.000000" stroke="none" 
	d="
M596.790161,26.988728 
	C596.790161,38.648327 596.790161,50.307926 596.790161,62.394993 
	C582.428711,62.394993 568.166748,62.394993 553.451294,61.795586 
	C553.334229,49.551338 553.670654,37.906498 554.007080,26.261662 
	C567.702820,26.207243 581.398499,26.152824 595.651794,26.334700 
	C596.369263,26.757124 596.562866,26.896368 596.790161,26.988728 
z"/>
<path fill="#E9C960" opacity="1.000000" stroke="none" 
	d="
M553.544678,26.177277 
	C553.670654,37.906498 553.334229,49.551338 552.996460,61.670319 
	C539.298645,62.226631 525.602112,62.308804 511.450226,62.267906 
	C510.998535,50.486336 511.002136,38.827827 511.005676,26.717764 
	C525.031189,26.208435 539.056763,26.150663 553.544678,26.177277 
z"/>
<path fill="#D6AC46" opacity="1.000000" stroke="none" 
	d="
M282.543701,125.159103 
	C282.645935,145.960968 282.282715,166.700089 281.882019,187.936218 
	C272.495300,179.020859 263.126617,169.627487 253.833984,160.159485 
	C253.102264,159.413940 252.519608,158.152420 252.510117,157.124771 
	C252.413910,146.700348 252.451370,136.274673 252.451370,125.096359 
	C262.636749,125.096359 272.357483,125.096359 282.543701,125.159103 
z"/>
<path fill="#D8B04B" opacity="1.000000" stroke="none" 
	d="
M1459.434814,243.637329 
	C1459.312866,229.422012 1459.650391,215.310776 1459.986328,200.750580 
	C1468.569092,200.301636 1477.153564,200.301636 1485.948486,200.301636 
	C1485.948486,214.848221 1485.948486,229.043259 1485.948486,243.741440 
	C1477.085693,243.741440 1468.490112,243.741440 1459.434814,243.637329 
z"/>
<path fill="#D3AA45" opacity="1.000000" stroke="none" 
	d="
M272.562714,21.200405 
	C272.683350,32.108250 272.350861,42.929642 272.021118,54.174030 
	C263.114532,54.597031 254.205185,54.597031 244.399094,54.597031 
	C248.031845,47.243671 251.381546,40.465355 254.728622,33.685757 
	C255.169495,32.792725 255.757675,31.935238 256.005585,30.989948 
	C258.224854,22.527643 263.595306,19.275537 272.562714,21.200405 
z"/>
<path fill="#D2A945" opacity="1.000000" stroke="none" 
	d="
M271.565613,72.176842 
	C272.017578,83.058495 272.018707,93.855812 272.025055,105.090988 
	C263.121246,105.528847 254.212234,105.528847 244.435303,105.528847 
	C247.302658,99.702484 249.906693,94.409866 252.511948,89.117828 
	C253.831757,86.436859 255.571457,83.878593 256.394257,81.053123 
	C258.618286,73.415810 263.427460,70.512550 271.565613,72.176842 
z"/>
<path fill="#F8E178" opacity="1.000000" stroke="none" 
	d="
M862.714111,26.193941 
	C862.837769,26.491777 862.641357,26.685528 862.206665,26.914486 
	C862.157288,26.710806 862.299255,26.424194 862.714111,26.193941 
z"/>
<path fill="#E4C058" opacity="1.000000" stroke="none" 
	d="
M596.817749,26.746519 
	C596.562866,26.896368 596.369263,26.757124 596.115234,26.417416 
	C596.382141,26.048210 596.656860,26.128368 596.817749,26.746519 
z"/>
<path fill="#D8B04B" opacity="1.000000" stroke="none" 
	d="
M1382.782959,200.281616 
	C1383.013306,200.317490 1382.969238,200.814011 1382.918823,201.058533 
	C1382.673584,201.078262 1382.457031,200.866989 1382.301636,200.617737 
	C1382.269287,200.565994 1382.463013,200.373383 1382.782959,200.281616 
z"/>
<path fill="#D3AA45" opacity="1.000000" stroke="none" 
	d="
M418.320740,22.154091 
	C418.131989,22.273849 418.018982,21.801773 418.000793,21.559776 
	C418.158203,21.556629 418.333832,21.795483 418.320740,22.154091 
z"/>
<path fill="#847034" opacity="1.000000" stroke="none" 
	d="
M486.042175,207.591003 
	C485.818237,207.672134 485.460602,207.567062 485.146301,207.150421 
	C485.454834,206.995041 485.694427,207.183701 486.042175,207.591003 
z"/>
<path fill="#E6C45C" opacity="1.000000" stroke="none" 
	d="
M596.856689,208.704361 
	C596.564148,208.828842 596.356201,208.623627 596.096802,208.175110 
	C596.299927,208.124054 596.598572,208.271683 596.856689,208.704361 
z"/>
</svg>