<svg width="127" height="20" viewBox="0 0 127 20" fill="none" xmlns="http://www.w3.org/2000/svg">
<g clip-path="url(#clip0_1_101)">
<path d="M9.24516 0H10.4773C10.8071 0.0440933 11.1406 0.0772028 11.4667 0.132319C13.482 0.47588 15.3431 1.44328 16.7946 2.90179C18.2461 4.36029 19.2169 6.23842 19.5739 8.27853C19.6391 8.64598 19.6753 9.01342 19.7261 9.38087V10.6301C19.6971 10.869 19.6717 11.1079 19.6391 11.3431C19.3724 13.4735 18.415 15.4536 16.9174 16.9722C14.3805 19.5443 11.3326 20.4814 7.82812 19.7796C5.5047 19.3257 3.43472 18.0022 2.02955 16.072C1.00235 14.7081 0.338696 13.0992 0.102424 11.3999C-0.133848 9.70068 0.0651953 7.96837 0.680459 6.36972C1.29572 4.77108 2.3065 3.35995 3.61545 2.27204C4.9244 1.18413 6.48749 0.456033 8.1543 0.157976C8.52033 0.106534 8.88637 0.0514422 9.24516 0ZM10.6948 8.3006V7.56571C10.6948 6.56259 10.6948 6.54788 11.6914 6.54788H12.467V4.57834C12.4465 4.57604 12.4258 4.57604 12.4054 4.57834C11.6805 4.57834 10.9775 4.5453 10.2671 4.60777C9.86139 4.62545 9.47135 4.77186 9.15208 5.02635C8.83281 5.28083 8.60042 5.63056 8.48769 6.02614C8.39 6.37449 8.33404 6.73346 8.32099 7.09537C8.29562 7.49589 8.32099 7.90011 8.32099 8.32635H7.20841V10.384H8.32825V16.1602H10.7093V10.3656H12.3111L12.5141 8.32267L10.6948 8.3006Z" fill="white"/>
<path d="M10.7092 8.30053H12.5213L12.3184 10.3435H10.7165V16.1381H8.33546V10.3618H7.21558V8.30421H8.3282C8.3282 7.87797 8.31008 7.47375 8.3282 7.07323C8.34125 6.71132 8.39721 6.35235 8.4949 6.004C8.60763 5.60842 8.84002 5.25869 9.15929 5.00421C9.47856 4.74972 9.8686 4.60331 10.2743 4.58563C10.9992 4.52316 11.6986 4.55997 12.4126 4.55629C12.4331 4.55399 12.4537 4.55399 12.4742 4.55629V6.52574H11.6986C10.7201 6.52574 10.702 6.52575 10.702 7.54357L10.7092 8.30053Z" fill="#2F383B"/>
</g>
<g clip-path="url(#clip1_1_101)">
<path d="M46.1679 19.9998H45.0891C44.8093 19.968 44.5285 19.9431 44.2496 19.902C42.8601 19.7131 41.5279 19.2192 40.346 18.4547C40.293 18.4154 40.2311 18.39 40.166 18.381C40.1009 18.3719 40.0346 18.3795 39.9731 18.4029C38.8465 18.7751 37.7171 19.1365 36.5886 19.5043C36.5268 19.5244 36.4641 19.543 36.3763 19.5699C36.7705 18.3809 37.1482 17.2296 37.5342 16.0812C37.5863 15.9266 37.5825 15.8112 37.4826 15.6708C36.6636 14.4928 36.1157 13.1435 35.8794 11.7224C35.8089 11.3081 35.7751 10.887 35.7245 10.4693V9.41484C35.7365 9.34539 35.7501 9.27643 35.7602 9.20746C35.8234 8.7707 35.8601 8.32709 35.9532 7.89767C36.4733 5.48155 37.7055 3.50757 39.6537 2.02855C42.0452 0.213526 44.7345 -0.3861 47.6626 0.233581C50.0218 0.732946 51.9406 1.98502 53.4078 3.91841C54.9912 6.00635 55.6503 8.38334 55.4028 11C55.2025 13.1124 54.3959 14.9797 53.0097 16.5757C51.4808 18.3364 49.5731 19.4315 47.2911 19.8423C46.9186 19.9118 46.5423 19.9489 46.1679 19.9998ZM48.7689 15.6356C49.0887 15.5735 49.3691 15.5534 49.6257 15.4644C51.0205 14.9797 51.4938 14.2975 51.5344 12.9916C51.5406 12.7837 51.4629 12.6463 51.2782 12.5573C50.5492 12.2056 49.825 11.8437 49.0931 11.4974C48.7047 11.314 48.4833 11.3849 48.229 11.7322C48.036 11.9933 47.8503 12.257 47.6524 12.5147C47.3581 12.8967 47.141 12.9505 46.6991 12.7681C45.0886 12.1029 43.883 10.9658 42.9769 9.48135C42.7559 9.11992 42.767 9.01281 43.0497 8.68903C43.2283 8.48458 43.4145 8.28601 43.5805 8.07228C43.7373 7.87126 43.883 7.65166 43.7701 7.37678C43.4323 6.54924 43.0869 5.72316 42.7332 4.90197C42.6889 4.79926 42.5846 4.67699 42.4867 4.65254C41.969 4.52195 41.4282 4.49309 40.9959 4.84818C40.031 5.64197 39.7299 6.71015 39.9152 7.92408C40.0454 8.77413 40.4401 9.51902 40.9168 10.2228C41.6824 11.3546 42.5475 12.3954 43.579 13.2909C44.7263 14.2877 46.0584 14.9206 47.4932 15.348C47.9217 15.4752 48.3655 15.5461 48.7689 15.6356Z" fill="white"/>
<path d="M48.769 15.6358C48.3657 15.5463 47.9218 15.4754 47.4943 15.3477C46.0595 14.9202 44.7274 14.2874 43.5801 13.2906C42.5486 12.395 41.6835 11.3528 40.9203 10.2225C40.4436 9.51869 40.0489 8.7738 39.9187 7.92376C39.7334 6.70983 40.0364 5.64165 40.9994 4.84785C41.4336 4.4913 41.9725 4.52016 42.4902 4.65221C42.5867 4.67667 42.6924 4.79894 42.7367 4.90165C43.0904 5.72284 43.4334 6.54892 43.7736 7.37646C43.8865 7.65133 43.7408 7.87094 43.584 8.07196C43.417 8.28569 43.2308 8.48426 43.0532 8.6887C42.7705 9.01248 42.7594 9.11959 42.9804 9.48103C43.8865 10.9654 45.0921 12.1026 46.7026 12.7677C47.1445 12.9502 47.3616 12.8964 47.6559 12.5144C47.8538 12.2586 48.0419 11.995 48.2325 11.7318C48.4868 11.3846 48.7082 11.3137 49.0966 11.4971C49.8285 11.8433 50.5527 12.2053 51.2817 12.5569C51.4665 12.646 51.5441 12.7834 51.5379 12.9913C51.4973 14.2971 51.024 14.9794 49.6292 15.4641C49.3692 15.5536 49.0889 15.5737 48.769 15.6358Z" fill="#2F383B"/>
</g>
<g clip-path="url(#clip2_1_101)">
<path d="M81.9315 19.9998H80.6986C80.6571 19.9853 80.6145 19.9745 80.5712 19.9674C79.7377 19.9154 78.9158 19.7431 78.1301 19.4556C74.5479 18.1103 72.3733 15.5389 71.6061 11.7412C71.5316 11.376 71.5034 10.9973 71.452 10.6253V9.37321C71.4633 9.31686 71.4762 9.26052 71.4864 9.20365C71.5989 8.56509 71.6601 7.91192 71.8306 7.28953C73.5541 1.00823 80.6729 -1.93053 86.2584 1.35724C88.8911 2.9067 90.4707 5.25228 91.0296 8.29589C91.0948 8.65273 91.1293 9.0148 91.1781 9.37477V10.5867C91.1673 10.6493 91.1539 10.7114 91.1452 10.7745C91.0938 11.1668 91.0578 11.5633 90.9839 11.9515C90.2133 15.9774 87.0032 19.1577 83.0133 19.8459C82.6543 19.9085 82.2911 19.9492 81.9315 19.9998ZM79.8125 8.24633V15.2559H81.9366V15.0175C81.9366 13.9219 81.9335 12.8305 81.9366 11.7376C81.9366 11.3463 81.9685 10.955 82.1457 10.5971C82.3769 10.1276 82.8315 9.91891 83.4525 9.99925C83.8861 10.0514 84.181 10.3451 84.2745 10.8538C84.3228 11.1158 84.3479 11.3818 84.3495 11.6484C84.3577 12.7804 84.3536 13.9131 84.3541 15.0452V15.2538H86.4962C86.4998 15.1897 86.506 15.1391 86.506 15.0879C86.506 13.8359 86.5193 12.589 86.4983 11.3395C86.4918 10.8391 86.4416 10.3403 86.3483 9.849C86.1875 9.02628 85.7359 8.41432 84.9017 8.19416C84.5543 8.10278 84.1961 8.06064 83.8373 8.06895C83.0339 8.08878 82.3743 8.41849 81.9274 9.12331C81.9027 9.14934 81.8755 9.17276 81.8462 9.19322V8.24738L79.8125 8.24633ZM78.4347 15.2549V8.25259H76.309V15.2549H78.4347ZM77.3626 7.27283C77.61 7.27283 77.8518 7.19825 78.0574 7.05856C78.2629 6.91886 78.4231 6.72034 78.5174 6.48814C78.6118 6.25593 78.6362 6.0005 78.5875 5.75421C78.5388 5.50792 78.4192 5.28186 78.2438 5.10467C78.0685 4.92748 77.8453 4.80714 77.6026 4.75889C77.3598 4.71064 77.1084 4.73666 76.8803 4.83365C76.6521 4.93064 76.4574 5.09424 76.3209 5.30371C76.1843 5.51319 76.1121 5.75911 76.1133 6.01031C76.1154 6.3457 76.2478 6.66668 76.4818 6.90335C76.7158 7.14002 77.0324 7.27319 77.3626 7.27388V7.27283Z" fill="white"/>
</g>
<g clip-path="url(#clip3_1_101)">
<path d="M117.038 19.9998C111.589 19.9998 107.172 15.5097 107.178 9.9816C107.184 4.46849 111.611 -0.00824665 117.053 -0.0002334C122.495 0.00777985 126.908 4.48719 126.904 10.0067C126.9 15.5262 122.479 20.0014 117.038 19.9998ZM123.116 10.0099H123.133C123.133 9.26201 123.138 8.51411 123.131 7.77048C123.133 7.47714 123.114 7.18403 123.075 6.8933C122.886 5.61385 122.262 4.65974 121.039 4.17574C120.534 3.98103 119.998 3.88303 119.458 3.88673C117.912 3.88103 116.367 3.88103 114.823 3.88673C114.495 3.88568 114.167 3.91122 113.843 3.96312C112.6 4.17307 111.679 4.81787 111.218 6.04389C111.036 6.54513 110.945 7.07597 110.951 7.61022C110.951 9.16265 110.948 10.7156 110.951 12.2686C110.949 12.5546 110.969 12.8403 111.009 13.1233C111.191 14.3104 111.752 15.2319 112.863 15.7447C113.406 15.9888 113.993 16.113 114.587 16.1091C116.224 16.1187 117.86 16.1187 119.497 16.1091C120.132 16.1048 120.753 15.9841 121.327 15.6924C122.506 15.0941 123.026 14.0561 123.104 12.7846C123.161 11.8636 123.116 10.9346 123.116 10.0083V10.0099Z" fill="white"/>
<path d="M123.116 10.0086C123.116 10.9349 123.162 11.8639 123.105 12.7865C123.026 14.058 122.506 15.0959 121.327 15.6943C120.753 15.9859 120.132 16.1067 119.497 16.1109C117.86 16.1223 116.224 16.1223 114.587 16.1109C113.993 16.1149 113.406 15.9907 112.863 15.7466C111.752 15.2338 111.191 14.3122 111.009 13.1252C110.969 12.8422 110.95 12.5564 110.951 12.2705C110.946 10.7175 110.948 9.16453 110.951 7.6121C110.945 7.07766 111.036 6.54664 111.219 6.04524C111.679 4.81654 112.6 4.17548 113.843 3.96447C114.167 3.91214 114.494 3.88606 114.821 3.88647C116.367 3.87899 117.912 3.87899 119.456 3.88647C119.996 3.88278 120.532 3.98077 121.037 4.17548C122.26 4.65948 122.881 5.61359 123.074 6.89304C123.113 7.18321 123.132 7.47577 123.13 7.76862C123.138 8.51652 123.133 9.26443 123.133 10.0081L123.116 10.0086ZM117.046 5.04038V5.02007C116.888 5.02007 116.73 5.02007 116.572 5.02007C115.77 5.0377 114.966 5.02382 114.168 5.08472C113.246 5.15523 112.562 5.62374 112.257 6.53725C112.143 6.88402 112.082 7.24657 112.077 7.6121C112.057 9.15171 112.067 10.6919 112.07 12.232C112.071 12.4384 112.083 12.6446 112.106 12.8496C112.239 14.0286 113.018 14.8262 114.178 14.9116C114.937 14.9651 115.702 14.9715 116.464 14.9693C117.613 14.9656 118.765 14.9693 119.913 14.9068C120.836 14.8534 121.52 14.3694 121.824 13.457C121.94 13.0967 122 12.7205 122.003 12.3415C122.022 10.8088 122.013 9.27511 122.01 7.74191C122.009 7.52206 121.995 7.30245 121.968 7.08429C121.845 6.07836 121.22 5.36304 120.252 5.13921C119.989 5.07953 119.72 5.04766 119.451 5.04412C118.649 5.03503 117.848 5.04251 117.046 5.04251V5.04038Z" fill="white"/>
<path d="M117.028 13.2502C116.605 13.2496 116.187 13.1639 115.797 12.9981C115.406 12.8323 115.053 12.5896 114.756 12.2842C114.459 11.9788 114.224 11.6166 114.066 11.2188C113.908 10.8209 113.83 10.3952 113.835 9.9664C113.839 9.53761 113.926 9.1137 114.092 8.71923C114.257 8.32477 114.499 7.96759 114.802 7.66838C115.105 7.36916 115.463 7.13387 115.857 6.97611C116.25 6.81836 116.67 6.74129 117.093 6.74935C117.941 6.7616 118.749 7.11426 119.34 7.72993C119.932 8.3456 120.258 9.17396 120.247 10.0332C120.241 10.8924 119.898 11.7138 119.295 12.317C118.691 12.9203 117.876 13.2559 117.028 13.2502ZM117.068 7.90379C116.796 7.89949 116.526 7.9496 116.274 8.05127C116.021 8.15293 115.791 8.30415 115.597 8.49624C115.402 8.68832 115.246 8.9175 115.139 9.17061C115.032 9.42373 114.975 9.6958 114.972 9.97121C114.947 11.1219 115.861 12.0728 117.012 12.0958C118.151 12.1188 119.083 11.1994 119.107 10.0284C119.112 9.7529 119.063 9.47924 118.963 9.22313C118.862 8.96702 118.713 8.73352 118.524 8.53607C118.334 8.33861 118.108 8.1811 117.858 8.07259C117.608 7.96408 117.34 7.90671 117.068 7.90379Z" fill="white"/>
<path d="M120.277 7.41229C120.194 7.41492 120.11 7.40065 120.032 7.37032C119.954 7.33998 119.882 7.29418 119.821 7.23558C119.761 7.17698 119.712 7.10674 119.679 7.02896C119.645 6.95117 119.627 6.86737 119.625 6.78245C119.623 6.69606 119.638 6.61009 119.669 6.52962C119.7 6.44915 119.747 6.3758 119.806 6.3139C119.866 6.25201 119.937 6.20282 120.015 6.16924C120.094 6.13567 120.178 6.11839 120.264 6.11842C120.433 6.11756 120.595 6.18448 120.715 6.30458C120.836 6.42469 120.905 6.58822 120.907 6.75948C120.908 6.93059 120.843 7.09544 120.725 7.21784C120.607 7.34024 120.446 7.41017 120.277 7.41229Z" fill="white"/>
<path d="M117.046 5.04243C117.848 5.04243 118.651 5.03495 119.452 5.0467C119.721 5.05024 119.99 5.08211 120.253 5.14179C121.221 5.36563 121.846 6.08095 121.969 7.08688C121.996 7.30503 122.01 7.52465 122.011 7.7445C122.014 9.2777 122.023 10.8114 122.004 12.3441C122.001 12.7231 121.941 13.0993 121.825 13.4595C121.521 14.372 120.837 14.8576 119.914 14.9094C118.766 14.974 117.614 14.9682 116.465 14.9719C115.703 14.9719 114.936 14.9719 114.179 14.9142C113.02 14.8287 112.24 14.0312 112.108 12.8521C112.084 12.6471 112.072 12.441 112.071 12.2346C112.068 10.6944 112.058 9.15429 112.078 7.61468C112.083 7.24916 112.144 6.8866 112.258 6.53984C112.563 5.62633 113.247 5.15782 114.169 5.0873C114.967 5.0264 115.771 5.04029 116.573 5.02266C116.731 5.01946 116.889 5.02266 117.047 5.02266L117.046 5.04243ZM117.028 13.2501C117.876 13.2558 118.691 12.9202 119.295 12.3169C119.898 11.7137 120.241 10.8923 120.247 10.0331C120.258 9.17386 119.932 8.3455 119.34 7.72983C118.749 7.11416 117.941 6.7615 117.093 6.74925C116.67 6.74119 116.25 6.81826 115.857 6.97601C115.463 7.13377 115.105 7.36906 114.802 7.66828C114.499 7.96749 114.257 8.32467 114.092 8.71913C113.926 9.1136 113.839 9.53751 113.835 9.9663C113.83 10.3951 113.908 10.8208 114.066 11.2187C114.224 11.6165 114.459 11.9787 114.756 12.2841C115.053 12.5895 115.406 12.8322 115.797 12.998C116.187 13.1638 116.605 13.2495 117.028 13.2501ZM120.277 7.41221C120.446 7.4101 120.607 7.34017 120.725 7.21777C120.843 7.09537 120.908 6.93052 120.907 6.7594C120.905 6.58814 120.836 6.42461 120.715 6.30451C120.595 6.18441 120.433 6.11749 120.264 6.11834C120.178 6.11831 120.094 6.13559 120.015 6.16917C119.937 6.20275 119.866 6.25193 119.806 6.31383C119.747 6.37573 119.7 6.44907 119.669 6.52955C119.638 6.61002 119.623 6.69599 119.625 6.78237C119.627 6.8673 119.645 6.95109 119.679 7.02888C119.712 7.10667 119.761 7.17691 119.821 7.23551C119.882 7.29411 119.954 7.33991 120.032 7.37024C120.11 7.40058 120.194 7.41485 120.277 7.41221Z" fill="#2F383B"/>
<path d="M117.068 7.9038C117.34 7.90658 117.609 7.96389 117.859 8.07244C118.109 8.18099 118.335 8.33863 118.525 8.53627C118.715 8.7339 118.864 8.96764 118.964 9.224C119.064 9.48037 119.113 9.75429 119.109 10.03C119.084 11.201 118.152 12.1204 117.013 12.0974C115.862 12.0744 114.949 11.1235 114.973 9.97282C114.976 9.69737 115.033 9.42521 115.14 9.17198C115.247 8.91875 115.402 8.68944 115.597 8.49719C115.791 8.30495 116.021 8.15357 116.274 8.05174C116.526 7.94991 116.796 7.89964 117.068 7.9038Z" fill="#2F383B"/>
</g>
<defs>
<clipPath id="clip0_1_101">
<rect width="19.726" height="20" fill="white"/>
</clipPath>
<clipPath id="clip1_1_101">
<rect width="19.726" height="20" fill="white" transform="translate(35.7261)"/>
</clipPath>
<clipPath id="clip2_1_101">
<rect width="19.726" height="20" fill="white" transform="translate(71.452)"/>
</clipPath>
<clipPath id="clip3_1_101">
<rect width="19.726" height="20" fill="white" transform="translate(107.178)"/>
</clipPath>
</defs>
</svg>
