<svg width="79" height="96" viewBox="0 0 79 96" fill="none" xmlns="http://www.w3.org/2000/svg">
<path d="M47.4579 0C49.4345 0.8525 50.1524 2.55499 50.0529 4.91499C49.9772 6.625 50.0378 8.3425 50.0378 10.075C53.1432 9.3625 55.7945 12.0075 55.2798 15.905C58.2416 16.0635 61.1621 16.7709 63.9299 18C69.825 20.62 74.6733 24.7 77.277 31.585C80.1251 39.11 79.0547 46.1375 74.4312 52.225C69.3795 58.8725 62.9308 62.7825 55.349 64.1425C50.4227 65.0275 45.9009 63.96 41.9586 60.325C38.185 56.845 36.176 52.1475 35.5164 46.71C34.606 39.19 36.1262 32.2225 39.4717 25.7475C39.5668 25.5625 39.649 25.3725 39.7679 25.125L38.5548 24.2075C37.3178 25.9192 36.0772 27.635 34.833 29.355C33.1571 31.68 31.5027 34.0275 29.7965 36.325C29.2814 37.0075 29.0128 37.8926 29.0461 38.7975C29.0612 55.1675 29.0461 71.5475 29.0721 87.9075C29.0721 90.845 28.2784 93.2475 26.1072 94.855C25.4174 95.355 24.5935 95.625 23.8301 96H21.713C20.2965 95.5 18.9925 94.77 17.9869 93.355C16.9662 94.8175 15.6644 95.5025 14.2674 96H12.1632C8.38313 94.8 6.81528 91.6675 6.89529 87.07C7.03802 79.07 6.93638 71.07 6.93638 63.07V62C6.80833 62.0066 6.681 62.0259 6.55577 62.0575C3.4201 63.4625 -0.0723847 60.665 0.00114134 56.385C0.104943 50.36 0.0184426 44.33 0.0292553 38.3C0.0433903 34.9705 0.957905 31.7295 2.64474 29.0308C4.33157 26.3321 6.70626 24.3108 9.43627 23.25C10.0548 23 10.6862 22.825 11.3825 22.5875C9.8558 20.8625 8.81129 18.885 8.51503 16.545C8.32311 14.7499 8.25658 12.9399 8.31608 11.1325C8.37447 7.44501 9.70442 4.465 12.2324 2.2C13.5148 1.05 15.0091 0.5 16.5402 0L19.4531 0C19.5926 0.0782181 19.7372 0.143433 19.8856 0.195007C23.5014 1.16751 26.0078 3.64751 27.1777 7.72501C28.0276 10.6825 27.8524 13.7625 27.4307 16.795C27.1496 18.795 26.237 20.4925 25.2011 22.15C25.7272 21.8937 26.2026 21.516 26.5981 21.04C28.7448 18.12 30.8691 15.1758 32.9711 12.2075C33.0586 12.0695 33.1206 11.9122 33.1533 11.7453C33.186 11.5785 33.1888 11.4056 33.1614 11.2375C32.9989 10.6249 32.9649 9.97633 33.0623 9.34552C33.1597 8.71472 33.3857 8.1198 33.7215 7.61C35.7521 4.43 38.3601 2.1625 41.6126 0.947495C42.6765 0.549995 43.7751 0.3125 44.8694 0L47.4579 0ZM37.9709 43.2275C38.0682 44.1825 38.1201 45.755 38.4034 47.27C40.0404 56.1475 45.663 62.255 54.3261 61.0575C61.3284 60.0875 67.3013 56.405 72.1237 50.4225C74.3922 47.6125 75.7762 44.26 75.9557 40.35C76.2152 34.77 74.2041 30.2525 70.8219 26.5375C66.566 21.8625 61.3522 19.6525 55.5587 19.12C53.9724 18.9387 52.3767 19.3337 50.9936 20.25C48.7511 21.73 46.4069 23 44.1189 24.4025C43.7156 24.6481 43.3612 24.9888 43.0788 25.4025C39.7031 30.47 38.1244 36.25 37.9709 43.2275ZM12.7687 25.705C7.14615 26.2975 2.84055 31.83 2.80379 38.4975C2.77351 44.4325 2.80379 50.37 2.80379 56.3075C2.80284 56.6815 2.84133 57.0543 2.91841 57.4175C3.03457 57.933 3.29955 58.3872 3.66949 58.7048C4.03942 59.0224 4.49211 59.1844 4.95256 59.164C5.41302 59.1436 5.85363 58.942 6.20143 58.5925C6.54923 58.2431 6.78336 57.7668 6.86503 57.2425C6.92164 56.8107 6.94696 56.3742 6.94071 55.9375C6.94071 50.2208 6.94071 44.5025 6.94071 38.7825C6.94071 37.5325 7.4727 36.7825 8.32257 36.7825C9.17245 36.7825 9.71308 37.5575 9.72389 38.7825C9.72389 39.0325 9.72389 39.2825 9.72389 39.5325V87.81C9.72389 88.185 9.71308 88.56 9.72389 88.935C9.85796 91.475 12.0638 93.3225 14.1333 92.6325C15.6319 92.1325 16.5618 90.61 16.564 88.5725C16.564 80.6359 16.564 72.6984 16.564 64.76C16.5496 64.325 16.5927 63.89 16.6916 63.47C16.7866 63.1633 16.9615 62.8983 17.1922 62.7113C17.423 62.5243 17.6982 62.4246 17.9799 62.426C18.2617 62.4274 18.5362 62.5297 18.7656 62.7189C18.9949 62.9082 19.1679 63.1749 19.2606 63.4825C19.3567 63.9031 19.399 64.3377 19.3861 64.7725C19.3861 72.5225 19.3861 80.2725 19.3861 88.0225C19.3861 88.46 19.3861 88.8975 19.412 89.3325C19.585 91.5825 21.6027 93.2275 23.4971 92.6675C25.2055 92.1675 26.2348 90.555 26.2348 88.36C26.2348 71.8 26.2305 55.2392 26.2218 38.6775C26.1876 37.0778 26.6747 35.5216 27.5864 34.3175C30.6723 30.1 33.715 25.8375 36.7663 21.585C36.948 21.335 37.1816 21.0075 37.1816 20.7175C37.1816 19.185 37.7308 17.9675 38.6953 16.865L35.3564 14C35.0125 14.4675 34.7076 14.8675 34.4243 15.2725C32.5191 17.9075 30.6053 20.535 28.7109 23.1775C27.5302 24.8225 26.0121 25.6025 24.1869 25.65C23.8712 25.65 23.5533 25.65 23.3219 25.65C22.3596 28.5925 22.0914 31.445 22.6169 34.455C23.0667 37.0475 23.2332 39.705 23.5014 42.34C23.6376 43.68 23.1489 44.7075 22.2039 45.45C21.3562 46.1125 20.5041 46.7725 19.6434 47.415C18.5319 48.25 17.416 48.225 16.3131 47.38C15.593 46.8275 14.8967 46.23 14.1506 45.7275C12.7925 44.8075 12.3081 43.4775 12.5287 41.7C12.8552 39.1075 13.1537 36.51 13.4456 33.9125C13.5797 32.7075 13.8522 31.475 13.7375 30.295C13.5797 28.75 13.1104 27.2675 12.7687 25.705ZM24.9784 12.75H24.84C24.84 12.0325 24.8789 11.31 24.84 10.5975C24.587 6.59751 21.979 3.6175 18.4346 3.2375C15.2643 2.9 12.04 5.505 11.3847 9.23751C11.056 11.1025 11.0971 13.0875 11.1685 15.0075C11.335 18.815 14.0079 22.0075 17.15 22.3225C20.742 22.695 23.8236 20.285 24.6324 16.3625C24.8789 15.19 24.8724 13.9525 24.9784 12.75ZM47.3 7.69H47.2179C47.2179 6.565 47.1941 5.44001 47.2179 4.31751C47.2438 3.44751 46.9129 3.1575 46.195 3.2025C42.0213 3.4675 38.6413 5.4525 36.0852 9.3125C35.6829 9.9175 35.724 10.3125 36.2668 10.7725C37.8671 12.095 39.4349 13.4775 41.046 14.7725C41.1869 14.8565 41.3421 14.9036 41.5006 14.9105C41.6591 14.9174 41.8169 14.884 41.9629 14.8125C43.5848 13.9025 45.1937 12.9525 46.7745 11.95C46.9134 11.8333 47.0292 11.6838 47.1143 11.5114C47.1993 11.339 47.2515 11.1476 47.2676 10.95C47.339 9.8775 47.3 8.78 47.3 7.6875V7.69ZM18.0367 32.035C17.7123 32.035 17.3879 32.0625 17.0679 32.035C16.5921 31.985 16.4191 32.2 16.3672 32.76C16.0385 35.8825 15.6622 39.01 15.3357 42.1225C15.3321 42.2746 15.3572 42.4258 15.4091 42.5656C15.461 42.7055 15.5385 42.8306 15.6363 42.9325C17.9048 44.92 17.9112 44.91 20.2576 43.055C20.303 43.02 20.3679 42.9975 20.3873 42.9475C20.4911 42.6975 20.6858 42.4475 20.662 42.1975C20.3736 39.3825 20.068 36.57 19.7451 33.76C19.5331 32.0325 19.5093 32.035 18.0367 32.035ZM52.5225 15.175C52.5593 13.565 51.5321 12.8175 50.4941 13.425C47.2561 15.3167 44.0296 17.2333 40.8146 19.175C40.0426 19.6375 39.8047 20.48 40.1377 21.2875C40.4708 22.095 41.2514 22.4475 42.0516 21.975C45.2954 20.0775 48.5175 18.165 51.7224 16.2025C52.1182 15.9625 52.3625 15.3875 52.5225 15.175ZM15.6579 25.6825C15.8612 26.6475 16.0082 27.5 16.2353 28.3225C16.2974 28.4414 16.3827 28.5418 16.4845 28.6157C16.5863 28.6895 16.7017 28.7346 16.8213 28.7475C17.5977 28.7975 18.3805 28.7925 19.159 28.7475C19.358 28.7475 19.6823 28.575 19.7256 28.4075C19.9548 27.5325 20.1105 26.635 20.303 25.6775L15.6579 25.6825Z" fill="#50AC97"/>
<path d="M61.3695 48.095C61.5857 48.6125 61.8236 49.095 62.0182 49.615C62.3815 50.545 62.1328 51.4625 61.43 51.865C61.2685 51.9664 61.0905 52.0274 60.9073 52.0442C60.7241 52.061 60.54 52.0331 60.3667 51.9624C60.1934 51.8917 60.0349 51.7798 59.9015 51.6338C59.768 51.4878 59.6625 51.3111 59.5918 51.115C59.1766 49.935 58.5625 49.615 57.4704 49.655C55.4895 49.7225 53.9758 48.565 52.9291 46.63C52.3928 45.63 52.5247 44.68 53.2297 44.16C53.9347 43.64 54.6872 43.8725 55.2668 44.8925C55.9155 46.0375 56.8195 46.66 57.9981 46.47C59.1766 46.28 60.0027 45.455 60.3185 44.0675C60.4493 43.5377 60.4495 42.9761 60.3192 42.4461C60.189 41.9161 59.9333 41.4387 59.581 41.0675C58.8652 40.2475 57.9851 39.91 56.986 40.25C56.2659 40.5 55.576 40.8975 54.8451 41.0575C53.7249 41.3021 52.5667 41.1382 51.5306 40.5885C50.4945 40.0388 49.6318 39.1305 49.0619 37.9892C48.4919 36.8479 48.2428 35.53 48.3491 34.2178C48.4553 32.9057 48.9117 31.6642 49.655 30.665C50.0594 30.1175 50.1416 29.71 49.7826 29.135C49.6179 28.8496 49.4884 28.5391 49.3977 28.2125C49.2757 27.8444 49.2776 27.4368 49.4029 27.0703C49.5282 26.7037 49.7679 26.4048 50.0746 26.2325C50.6801 25.8775 51.5191 25.9975 51.7743 26.7325C52.2652 28.145 53.0156 28.4825 54.3066 28.46C56.1231 28.46 57.5721 29.605 58.5625 31.415C59.1356 32.4675 59.0123 33.415 58.2597 33.9475C57.5396 34.4475 56.7979 34.1675 56.2183 33.1725C55.4571 31.8625 54.2915 31.3275 53.0718 31.725C52.5201 31.9342 52.0395 32.3391 51.6982 32.8821C51.357 33.4252 51.1725 34.0788 51.1709 34.75C51.1709 36.145 51.9127 37.4525 53.1172 37.7175C53.8742 37.8642 54.6515 37.7673 55.3641 37.4375C58.7031 35.865 62.2712 37.88 63.0519 41.9375C63.4714 44.1225 62.9676 46.075 61.6506 47.7325C61.5533 47.8425 61.4689 47.9625 61.3695 48.095Z" fill="#50AC97"/>
</svg>
