<svg width="20" height="20" viewBox="0 0 20 20" fill="none" xmlns="http://www.w3.org/2000/svg">
<g clip-path="url(#clip0_1_142)">
<path d="M-3.05176e-05 10.6305V9.38102C0.012082 9.31789 0.0250617 9.25476 0.0345787 9.19163C0.106388 8.7164 0.14273 8.23328 0.255203 7.76857C1.00272 4.6787 2.79276 2.41302 5.60026 1.00136C7.45952 0.0666835 9.43991 -0.203374 11.4835 0.149103C14.0426 0.587508 16.1295 1.8694 17.7023 3.95883C19.3462 6.14647 19.983 8.63047 19.6334 11.3547C19.3879 13.3244 18.5485 15.1692 17.23 16.6375C15.7649 18.3303 13.7709 19.4622 11.5812 19.844C11.217 19.9115 10.8476 19.9492 10.4799 20H9.24698C9.00646 19.9694 8.76508 19.9439 8.52542 19.9124C6.5991 19.651 4.79459 18.8094 3.34561 17.4968C1.66118 16.0103 0.533957 13.9807 0.153973 11.7502C0.08822 11.3775 0.0510149 11.0022 -3.05176e-05 10.6305ZM9.85001 14.5472C11.5227 14.5472 13.1982 14.5472 14.8767 14.5472C15.7099 14.5472 16.2194 14.029 16.2203 13.1855V6.82425C16.2203 5.98076 15.7098 5.46432 14.875 5.46432H4.86054C4.01439 5.46432 3.5074 5.979 3.5074 6.83565C3.5074 8.93999 3.52211 11.0505 3.49961 13.1574C3.49096 13.9246 4.02564 14.5682 4.8839 14.5551C6.53725 14.5288 8.19407 14.5472 9.85001 14.5472Z" fill="white"/>
<path d="M9.85003 14.5471C8.19408 14.5471 6.53726 14.5287 4.88131 14.555C4.02565 14.5681 3.49097 13.9246 3.49703 13.1574C3.51952 11.053 3.50395 8.94253 3.50481 6.83556C3.50481 5.97892 4.01181 5.46423 4.85795 5.46423H14.8724C15.7073 5.46423 16.2169 5.98067 16.2177 6.82416V13.1854C16.2177 14.0289 15.7073 14.5462 14.8741 14.5471C13.2003 14.5483 11.5256 14.5483 9.85003 14.5471ZM4.52832 7.02057V13.1381C4.52832 13.4739 4.57417 13.5195 4.90813 13.5195H14.8075C15.1536 13.5195 15.1985 13.4774 15.1985 13.1302V7.02057C15.0757 7.11789 14.9918 7.18453 14.9087 7.25205L10.2489 11.0004C9.97115 11.224 9.75831 11.224 9.48578 11.0057L6.25954 8.40943L4.52832 7.02057ZM14.1967 6.50676H5.5795C5.5847 6.56375 5.61931 6.57953 5.64786 6.60321C7.01138 7.69805 8.37316 8.79465 9.73322 9.89299C9.84656 9.98506 9.90626 9.95963 10.0092 9.87984C11.0676 9.02407 12.1277 8.17036 13.1896 7.31868L14.1967 6.50676Z" fill="white"/>
<path d="M4.52833 7.02063L6.25869 8.46035L9.48492 11.1469C9.75745 11.3731 9.97029 11.3722 10.248 11.1408C11.8019 9.84892 13.3551 8.5565 14.9079 7.2635L15.1977 7.02414V13.3372C15.1977 13.6966 15.1544 13.7396 14.8066 13.7396C11.5068 13.7396 8.20706 13.7396 4.90728 13.7396C4.57332 13.7396 4.52747 13.6931 4.52747 13.345V7.02063H4.52833Z" fill="black"/>
<path d="M14.1967 6.505L13.1896 7.31693C12.1289 8.17036 11.0688 9.02408 10.0092 9.87809C9.91061 9.95788 9.84658 9.9833 9.73324 9.89124C8.37492 8.79055 7.01313 7.69396 5.64788 6.60145C5.61933 6.57778 5.58472 6.562 5.57953 6.505H14.1967Z" fill="black"/>
</g>
<defs>
<clipPath id="clip0_1_142">
<rect width="19.726" height="20" fill="white"/>
</clipPath>
</defs>
</svg>
