<svg width="20" height="20" viewBox="0 0 20 20" fill="none" xmlns="http://www.w3.org/2000/svg">
<g clip-path="url(#clip0_1_149)">
<path d="M0 10.6264V9.37855C0.0147687 9.24878 0.0319844 9.12898 0.046753 8.99421C0.268039 6.82285 1.18267 4.78417 2.65152 3.18815C4.12038 1.59213 6.06311 0.526121 8.18431 0.152204C8.53629 0.0923086 8.89319 0.0523541 9.24764 0.00244141H10.4784C10.5276 0.00244141 10.5768 0.0298641 10.6261 0.0348554C12.1429 0.136539 13.6126 0.610143 14.909 1.41495C16.1355 2.1439 17.1897 3.13628 17.9976 4.32234C18.8056 5.50839 19.3476 6.85936 19.5857 8.28044C19.6522 8.6423 19.6867 9.01169 19.7359 9.37855V10.6264C19.7088 10.8759 19.6817 11.1005 19.6497 11.3401C19.3654 13.4393 18.4323 15.3933 16.9844 16.9213C15.5366 18.4494 13.6484 19.473 11.5909 19.8452C11.2266 19.9126 10.8525 19.95 10.4907 19.9999H9.25996C9.01381 19.97 8.76768 19.945 8.53631 19.9101C6.46958 19.6184 4.5469 18.6711 3.04361 17.2039C1.54031 15.7367 0.533515 13.8247 0.167392 11.7419C0.0861638 11.3726 0.0492289 10.9982 0 10.6264ZM9.863 16.5035C9.93684 16.4212 10.0008 16.3588 10.055 16.2889C10.7934 15.3905 11.5319 14.507 12.2358 13.5862C13.0346 12.5663 13.7152 11.4568 14.2641 10.2794C14.6161 9.49831 14.8499 8.69725 14.7121 7.82378C14.4044 5.88217 13.3706 4.49209 11.5516 3.81328C9.73257 3.13447 8.05879 3.48637 6.59915 4.77162C5.32166 5.89715 4.38385 8.09827 5.4595 10.2894C5.93567 11.254 6.48541 12.1794 7.10373 13.0571C7.95699 14.2591 8.87828 15.4098 9.863 16.5035Z" fill="white"/>
<path d="M9.84581 16.4363C8.86049 15.343 7.93916 14.1922 7.08654 12.9898C6.46822 12.112 5.91845 11.1866 5.44228 10.2221C4.35925 8.03092 5.30444 5.82981 6.58193 4.70428C8.04157 3.41903 9.7252 3.07211 11.5344 3.74593C13.3435 4.41975 14.3872 5.81483 14.6948 7.75643C14.8327 8.6299 14.5989 9.43346 14.2469 10.2121C13.698 11.3895 13.0174 12.499 12.2186 13.5188C11.5171 14.4397 10.7689 15.3232 10.0378 16.2216C9.98612 16.2915 9.92212 16.3564 9.84581 16.4363ZM8.1228 8.60992C8.1194 8.98129 8.22476 9.34531 8.42552 9.65594C8.62629 9.96657 8.91345 10.2098 9.25064 10.3549C9.58783 10.5 9.9599 10.5404 10.3197 10.471C10.6796 10.4016 11.011 10.2255 11.2721 9.96497C11.5332 9.70447 11.7121 9.37128 11.7863 9.0076C11.8605 8.64392 11.8267 8.26607 11.689 7.92191C11.5513 7.57776 11.316 7.28277 11.0129 7.07428C10.7097 6.86578 10.3524 6.75317 9.9861 6.75069C9.49622 6.74802 9.02524 6.94205 8.67608 7.29045C8.32692 7.63885 8.128 8.11326 8.1228 8.60992Z" fill="black"/>
<path d="M8.01201 8.51014C8.01201 7.28478 8.91534 6.29898 10.0156 6.30397C11.1159 6.30897 12.002 7.31971 11.9848 8.56503C11.9675 9.81035 11.0716 10.7687 9.97132 10.7587C8.87105 10.7487 8.00709 9.733 8.01201 8.51014Z" fill="white"/>
</g>
<defs>
<clipPath id="clip0_1_149">
<rect width="19.726" height="20" fill="white"/>
</clipPath>
</defs>
</svg>
