<svg width="68" height="89" viewBox="0 0 68 89" fill="none" xmlns="http://www.w3.org/2000/svg">
<path d="M10.398 88.9206C9.97922 88.7096 9.56979 88.4704 9.17144 88.204C7.76257 87.1395 7.14562 85.5137 7.14562 83.4844C7.14562 81.6035 7.16403 79.7227 7.12904 77.8441C7.11721 77.3951 7.00205 76.96 6.79754 76.5918C5.1069 73.7716 4.21923 70.6384 4.29105 67.0831C4.33341 64.7407 4.33893 62.396 4.29105 60.0536C4.22475 56.9413 4.61703 54.0075 6.27452 51.2778C5.64283 51.2778 5.15847 51.2778 4.67412 51.2778C4.05348 51.2778 3.43283 51.294 2.81404 51.25C1.44937 51.1526 0.235727 49.8329 0.0718199 48.1399C-0.02394 47.1075 -0.02394 46.0646 0.0718199 45.0322C0.211786 43.5015 1.32415 42.0428 2.52306 41.9198C3.73553 41.7872 4.95525 41.7997 6.16586 41.957C7.53421 42.1471 8.35743 42.9264 9.8326 44.8954C9.94494 44.624 10.0518 44.3759 10.1494 44.1231C11.6411 40.2222 13.096 36.3028 14.6301 32.4251C15.8235 29.3892 17.8806 28.0673 20.5105 28.058C24.5309 28.0464 28.553 28.058 32.5734 28.058H33.4647C31.7465 21.1329 32.3708 14.7088 35.66 8.83657C38.0247 4.61332 41.2623 1.879 45.2366 0.619676C53.1557 -1.89201 61.3934 3.42821 64.6366 13.0181C68.0087 22.9906 64.8521 35.0295 56.2976 40.2199C56.9274 41.8039 57.5555 43.3879 58.2258 45.0763L58.6052 44.4918C59.5721 43.0122 60.8023 42.1448 62.3309 42.0265C63.1541 41.9639 63.9884 41.9569 64.8079 41.9616C65.1298 41.9639 65.4498 42.024 65.7582 42.1402C67.493 42.8058 68.2886 45.0716 67.9055 48.1979C67.668 50.1228 66.3991 51.4123 64.7269 51.4169C63.6955 51.4169 62.6642 51.4169 61.5611 51.4169C61.6036 51.5626 61.6553 51.7038 61.7157 51.839C62.841 53.8521 63.5021 56.0855 63.5316 58.5461C63.5684 61.9577 63.5685 65.3715 63.4966 68.7831C63.434 71.7122 62.4966 74.2587 61.0859 76.5616C60.863 76.943 60.7348 77.3989 60.7176 77.872C60.677 79.7273 60.7065 81.5827 60.6991 83.4241C60.6991 86.1538 59.6568 87.9187 57.5794 88.7768C57.5196 88.8146 57.465 88.8639 57.4173 88.9229H51.3399C51.2929 88.8632 51.2389 88.8132 51.1796 88.7745C49.0654 87.8932 48.0654 86.1608 48.058 83.3499C48.058 82.6402 48.058 81.9306 48.058 81.1907H19.7628C19.7628 82.1184 19.7886 83.009 19.7628 83.8949C19.6984 85.7503 19.0427 87.216 17.7757 88.1901C17.3549 88.4718 16.9193 88.7167 16.4718 88.9229L10.398 88.9206ZM34.0909 51.8622C25.8882 51.8622 17.686 51.856 9.48452 51.8437C9.21378 51.8228 8.94325 51.8887 8.69818 52.0351C8.4531 52.1815 8.24147 52.4037 8.08303 52.6809C6.96891 54.4346 6.37207 56.6205 6.39422 58.8662C6.39422 61.6724 6.37028 64.4786 6.40527 67.2848C6.42167 68.2365 6.51047 69.184 6.67047 70.1143C7.30768 73.9247 10.0389 78.5144 14.6283 78.2129C16.6909 78.076 18.7646 78.1897 20.831 78.1897C31.7692 78.1897 42.7062 78.1897 53.6419 78.1897C55.1816 78.1897 56.5886 77.7653 57.863 76.6544C60.6071 74.2517 61.5168 70.7033 61.6513 66.7468C61.7397 64.1493 61.6734 61.5425 61.666 58.9381C61.6963 56.6321 61.0727 54.3881 59.9072 52.609C59.762 52.3572 59.5693 52.1548 59.3465 52.02C59.1237 51.8852 58.8779 51.8222 58.631 51.8367C50.4528 51.8661 42.2728 51.8746 34.0909 51.8622ZM34.8865 20.9845C34.8699 30.9756 41.3047 39.1044 49.2735 39.1623C57.1926 39.218 63.7673 30.9802 63.7637 20.9891C63.76 10.9981 57.2313 2.84609 49.2551 2.79971C41.3507 2.75332 34.9068 10.9076 34.8902 20.9845H34.8865ZM54.176 41.0362C51.5338 42.1057 48.7169 42.2958 45.999 41.5882C41.0708 40.3204 37.3261 36.9483 34.7649 31.4719C34.6923 31.3254 34.5956 31.2003 34.4812 31.105C34.3668 31.0098 34.2374 30.9466 34.1019 30.9199C29.3468 30.8944 24.5898 30.8666 19.8346 30.9338C18.376 30.9547 17.2839 31.9589 16.5988 33.5986C16.4147 34.0323 16.2729 34.4915 16.1034 34.9321C14.2912 39.654 12.4766 44.379 10.6595 49.107H57.2958L54.176 41.0362ZM17.621 80.9124C14.7553 80.8382 11.9118 81.3229 9.28562 79.2009C9.28562 80.7941 9.27457 82.1764 9.28562 83.5563C9.30036 85.0406 10.0702 86.0865 11.2544 86.1283C12.7277 86.1816 14.201 86.177 15.6743 86.1283C16.7941 86.0958 17.5676 85.1102 17.621 83.7094C17.6486 82.8211 17.621 81.9306 17.621 80.9124ZM58.6604 79.3516C56.0416 81.483 53.1686 80.9426 50.3398 81.0492C50.3398 82.0001 50.314 82.8327 50.3398 83.663C50.3932 85.1241 51.1465 86.0935 52.3067 86.1306C53.7801 86.177 55.2423 86.1724 56.7083 86.1306C57.7102 86.1028 58.5849 85.2145 58.6365 84.0828C58.712 82.573 58.6604 81.0516 58.6604 79.3516ZM5.45867 48.4785C6.23953 48.4785 7.02223 48.4948 7.80309 48.4785C8.40347 48.4623 8.65946 47.857 8.37216 47.1914C7.51394 45.2038 6.18059 44.4478 4.39603 44.4431C2.02213 44.4431 2.23023 44.8954 2.2376 47.312C2.2376 48.1028 2.57647 48.4716 3.18421 48.4716C3.94113 48.4832 4.6999 48.4762 5.45867 48.4785ZM62.3861 48.4785C63.143 48.4785 63.8999 48.4785 64.6569 48.4785C65.4488 48.4785 65.7085 48.1283 65.7213 47.1148C65.7213 46.6255 65.7213 46.1338 65.7213 45.6445C65.7213 44.9 65.3899 44.5266 64.8318 44.4849C64.3751 44.4478 63.911 44.5057 63.4561 44.4686C61.7065 44.3202 60.4708 45.2989 59.6236 47.1751C59.2921 47.9103 59.5131 48.4623 60.1872 48.4785C60.9201 48.4924 61.6531 48.4785 62.3861 48.4785Z" fill="#50AC97"/>
<path d="M51.8168 66.1786C50.3435 66.1786 48.8702 66.2482 47.4152 66.1531C46.3563 66.0858 45.8499 65.2254 45.8627 63.878C45.8904 61.2016 47.2016 59.1839 49.3306 58.5809C51.2072 58.0498 53.0931 57.5651 54.9679 57.0224C56.9937 56.4357 58.5996 58.1147 58.3897 60.5012C58.3123 61.3871 58.3897 62.2939 58.3749 63.1891C58.3565 64.9378 57.6622 66.0278 56.2884 66.1392C54.804 66.2574 53.3086 66.1647 51.8187 66.1647L51.8168 66.1786ZM48.2035 63.595H49.6345C51.605 63.595 53.5756 63.5811 55.5462 63.5556C55.839 63.5556 56.2405 63.6692 56.2386 63.0198C56.2386 62.069 56.2626 61.1135 56.2055 60.1672C56.1944 59.9724 55.8372 59.6199 55.6935 59.657C53.6345 60.1858 51.5792 60.7401 49.535 61.3524C48.7431 61.5889 48.2716 62.4609 48.2035 63.595Z" fill="#50AC97"/>
<path d="M16.5123 66.5659C14.8437 66.4383 13.1641 66.4244 11.5122 66.1461C10.1033 65.9142 9.58948 64.9448 9.58211 63.1312C9.58211 62.1478 9.56922 61.1645 9.58211 60.1835C9.61526 58.0452 10.9284 56.5795 12.5969 56.976C14.7553 57.4909 16.9082 58.0707 19.0316 58.7734C20.8899 59.3903 22.1625 61.8023 22.0888 64.2537C22.0557 65.4643 21.5363 66.2505 20.5031 66.3247C19.1771 66.4175 17.8438 66.3456 16.5141 66.3456L16.5123 66.5659ZM19.9249 63.4767C19.6744 62.1409 19.1698 61.408 18.2674 61.1575C16.3299 60.6009 14.3796 60.1093 12.4422 59.548C11.8437 59.3764 11.7055 59.6825 11.7055 60.3342C11.7359 61.0836 11.7359 61.8344 11.7055 62.5838C11.6558 63.3399 11.8621 63.595 12.4698 63.5857C14.7148 63.5509 16.9598 63.5857 19.2066 63.5672C19.4276 63.5602 19.6486 63.5115 19.9249 63.4767Z" fill="#50AC97"/>
<path d="M34.0485 65.0005C36.3445 65.0005 38.641 65.0005 40.9382 65.0005C41.1898 64.996 41.4411 65.0255 41.6877 65.0886C41.9171 65.1443 42.1231 65.3013 42.2686 65.5313C42.4141 65.7614 42.4896 66.0493 42.4815 66.3433C42.5096 66.6521 42.4478 66.9633 42.3076 67.2192C42.1674 67.4751 41.9583 67.6583 41.719 67.7348C41.4295 67.8252 41.1312 67.8635 40.8332 67.8484C36.2646 67.8484 31.6949 67.8484 27.1239 67.8484C25.9876 67.8484 25.4664 67.4147 25.4664 66.4569C25.4664 65.4991 26.0373 64.9981 27.1607 64.9981L34.0485 65.0005Z" fill="#50AC97"/>
<path d="M33.9454 73.5003C31.5347 73.5003 29.1239 73.5003 26.7114 73.5003C25.7003 73.5003 25.1018 72.3569 25.6598 71.4385C25.8065 71.2327 25.984 71.0652 26.1821 70.9458C26.3803 70.8264 26.5952 70.7575 26.8145 70.7428C29.065 70.6755 31.3155 70.7103 33.566 70.7103C36.1149 70.7103 38.6637 70.6802 41.2107 70.7428C41.4257 70.7652 41.6348 70.843 41.8249 70.9715C42.015 71.0999 42.1821 71.2763 42.3157 71.4896C42.487 71.8096 42.4299 72.5796 42.2255 72.895C41.9971 73.2475 41.4888 73.4725 41.1021 73.4817C38.7226 73.5258 36.334 73.5003 33.9454 73.5003Z" fill="#50AC97"/>
<path d="M50.3324 11.6706C50.3324 14.3029 50.3324 16.847 50.3472 19.3889C50.3676 19.516 50.4115 19.6352 50.4756 19.7368C50.5396 19.8384 50.6218 19.9194 50.7155 19.9733C53.3215 21.1561 54.734 23.4521 54.7377 26.5482C54.7414 29.6443 53.2349 32.0424 50.629 33.1463L50.3343 33.2623C50.3343 33.7076 50.3343 34.1899 50.3343 34.6723C50.3159 35.8087 49.9438 36.4141 49.2551 36.4396C48.5663 36.4651 48.0948 35.7716 48.0801 34.6747C48.0801 34.2108 48.0801 33.747 48.0801 33.253C46.8947 32.9489 45.8191 32.1704 45.0137 31.0335C44.2266 29.8872 43.7589 28.4479 43.6822 26.9355C43.6122 25.9383 43.9585 25.2982 44.592 25.1938C45.3287 25.0709 45.8443 25.5649 45.9143 26.6271C46.0211 28.2366 46.5957 29.4101 47.756 30.1058C47.848 30.1488 47.9429 30.1814 48.0396 30.2033C48.0543 30.02 48.0746 29.8832 48.0746 29.7394C48.0746 27.2254 48.0746 24.7091 48.0746 22.1742C47.6455 21.9794 47.2292 21.831 46.8407 21.6106C45.8729 21.0599 45.0557 20.1619 44.4913 19.0291C43.9268 17.8963 43.6403 16.579 43.6675 15.2422C43.701 13.8599 44.0728 12.5243 44.7321 11.4184C45.3915 10.3124 46.3061 9.49006 47.3508 9.06382C47.9567 8.81103 48.1501 8.46547 48.0764 7.71869C48.0442 7.3456 48.0629 6.96832 48.1317 6.60316C48.2514 5.92132 48.6215 5.58503 49.1759 5.58503C49.4194 5.56752 49.66 5.6579 49.8562 5.84048C50.0523 6.02306 50.1915 6.28632 50.2496 6.58461C50.2807 6.66286 50.2953 6.74995 50.2919 6.8374C50.0267 8.42605 50.7965 8.87829 51.7984 9.45344C53.6566 10.518 54.5738 12.5542 54.71 15.1239C54.7635 16.1536 54.3804 16.789 53.6953 16.8447C53.0378 16.8957 52.5277 16.2904 52.4835 15.3117C52.4154 13.8089 51.8942 12.6702 50.8702 11.8956C50.7908 11.8372 50.7077 11.7876 50.6216 11.7471C50.5264 11.715 50.4298 11.6895 50.3324 11.6706ZM48.0377 11.6915C47.4015 11.9688 46.8529 12.4964 46.4729 13.1962C46.0929 13.8961 45.9016 14.7312 45.9272 15.5784C45.9659 17.2019 46.8959 18.8462 48.0377 19.2567V11.6915ZM50.3858 22.805V30.2798C51.7155 29.7301 52.5295 28.1392 52.4743 26.2838C52.4227 24.5955 51.5719 23.1529 50.3858 22.805Z" fill="#50AC97"/>
</svg>
