<svg width="20" height="20" viewBox="0 0 20 20" fill="none" xmlns="http://www.w3.org/2000/svg">
<g clip-path="url(#clip0_1_134)">
<path d="M9.85385 0.00533095C4.35853 0.0232615 -0.041135 4.51013 0.00149741 10.1034C0.043064 15.6514 4.51733 20.0813 10.0031 20.0043C15.4163 19.9283 19.7382 15.4689 19.7265 9.96209C19.7147 4.45529 15.2692 -0.0168186 9.85385 0.00533095Z" fill="white"/>
<path d="M9.85385 0.00529655C15.2692 -0.0115793 19.7147 4.46791 19.7265 9.96206C19.7382 15.4562 15.4163 19.9283 10.0031 20.0042C4.51733 20.0812 0.043064 15.6513 0.00149741 10.1034C-0.041135 4.50482 4.35853 0.0179534 9.85385 0.00529655ZM12.9948 16.0121C13.0719 15.9921 13.1464 15.9631 13.2165 15.9256C14.111 15.3627 14.9172 14.6729 15.6092 13.8783C15.8608 13.5851 15.848 13.4153 15.5421 13.1832C14.7378 12.5617 13.8659 12.0311 12.9426 11.6011C12.6388 11.4619 12.5408 11.4904 12.3116 11.7425C12.0611 12.0177 11.8181 12.2994 11.5741 12.5863C11.5467 12.6298 11.5034 12.6613 11.4533 12.6743C11.4031 12.6872 11.3498 12.6806 11.3044 12.6559C10.8152 12.4259 10.2962 12.2477 9.84319 11.9608C8.59549 11.1812 7.67716 9.97884 7.25967 8.57824C7.2347 8.52216 7.22975 8.45935 7.24563 8.40012C7.26151 8.34089 7.29728 8.28876 7.34706 8.25231C7.61138 8.02132 7.87996 7.78823 8.13149 7.54881C8.40541 7.29462 8.42993 7.20285 8.27539 6.85795C7.85713 5.94728 7.34457 5.08198 6.74594 4.27594C6.504 3.94475 6.33454 3.92577 6.03078 4.19473C5.24773 4.89816 4.57333 5.71161 4.02919 6.60903C3.96273 6.72896 3.93943 6.86769 3.96311 7.00245C4.03634 7.4176 4.13638 7.82768 4.26261 8.23017C4.75821 9.69204 5.60233 10.9419 6.60739 12.0821C7.90555 13.5503 9.39769 14.7622 11.2053 15.5353C11.774 15.782 12.3775 15.941 12.9948 16.0068V16.0121ZM10.2908 4.82125C13.1323 5.13767 14.6745 6.71345 14.9804 9.56758H15.7723C15.8053 6.33269 13.015 3.911 10.2951 4.0344L10.2908 4.82125ZM13.6513 9.57285C13.6886 7.43594 11.7222 6.01943 10.294 6.1903V7.00033C10.9655 7.01129 11.6054 7.28468 12.0739 7.76081C12.5502 8.24731 12.8205 8.89555 12.8296 9.57285H13.6513Z" fill="white"/>
<path d="M12.9944 16.0068C12.3779 15.9372 11.7759 15.7746 11.2091 15.5248C9.39726 14.7516 7.90512 13.5397 6.61123 12.0715C5.60191 10.9314 4.75778 9.6815 4.26644 8.21963C4.14022 7.81714 4.04019 7.40706 3.96696 6.99191C3.94328 6.85715 3.96658 6.71842 4.03304 6.59849C4.57718 5.70107 5.25157 4.88762 6.03463 4.18419C6.33839 3.91523 6.50785 3.93421 6.74979 4.2654C7.34842 5.07144 7.86097 5.93674 8.27922 6.84741C8.43377 7.19231 8.40926 7.28408 8.13534 7.53827C7.87848 7.77769 7.61523 8.01078 7.35091 8.24177C7.30113 8.27822 7.26536 8.33034 7.24948 8.38957C7.2336 8.44879 7.23854 8.51162 7.2635 8.5677C7.68099 9.9683 8.59934 11.1706 9.84704 11.9502C10.3 12.2371 10.8191 12.4154 11.3083 12.6453C11.3537 12.6701 11.4069 12.6767 11.4571 12.6637C11.5073 12.6508 11.5505 12.6193 11.5779 12.5757C11.822 12.293 12.065 12.0114 12.3154 11.7319C12.5446 11.4798 12.6427 11.4513 12.9464 11.5906C13.8697 12.0205 14.7417 12.5512 15.5459 13.1727C15.8518 13.4047 15.8657 13.5746 15.6131 13.8678C14.921 14.6624 14.1148 15.3521 13.2203 15.915C13.1491 15.9547 13.0732 15.9855 12.9944 16.0068Z" fill="#2F383B"/>
<path d="M10.2904 4.816V4.02917C13.0104 3.90577 15.8006 6.32745 15.7676 9.56234H14.9757C14.6741 6.70821 13.1319 5.13137 10.2904 4.816Z" fill="#2F383B"/>
<path d="M13.6509 9.56754H12.8292C12.8201 8.89025 12.5498 8.24199 12.0735 7.75549C11.605 7.27936 10.9651 7.00599 10.2936 6.99503V6.18498C11.7218 6.01728 13.6882 7.43064 13.6509 9.56754Z" fill="#2F383B"/>
</g>
<defs>
<clipPath id="clip0_1_134">
<rect width="19.726" height="20" fill="white"/>
</clipPath>
</defs>
</svg>
