<svg width="83" height="68" viewBox="0 0 83 68" fill="none" xmlns="http://www.w3.org/2000/svg">
<path d="M46.7079 16.539C46.7079 23.2909 40.7589 28.7657 33.422 28.7657C26.0844 28.7657 20.1378 23.2909 20.1378 16.539C20.1378 9.7865 26.0844 4.31169 33.422 4.31169C40.7589 4.31169 46.7079 9.7865 46.7079 16.539ZM15.9597 16.539C15.9597 25.3072 23.7122 32.4412 33.237 32.4412C42.7647 32.4412 50.517 25.3072 50.517 16.539C50.517 7.7683 42.7647 0.636496 33.237 0.636496C23.7122 0.636496 15.9597 7.7683 15.9597 16.539Z" fill="#50AC97"/>
<path d="M82.322 43.4299L82.3449 43.3646C76.4686 43.3646 72.8716 40.0673 68.548 37.29C65.4077 35.2741 61.8852 33.529 56.8163 33.529C54.5387 33.529 52.6066 33.5476 50.9672 33.5921H39.0148C37.2668 33.5921 35.8483 34.8966 35.8483 36.5054C35.8483 38.1145 37.2668 39.4171 39.0148 39.4171H45.7862H50.2361C52.5015 39.7592 54.2294 41.5606 54.2294 43.7402C54.2294 45.3932 53.229 46.8152 51.7607 47.5598C51.403 47.6482 49.6892 48.0677 47.3958 48.6257C45.9195 48.9528 44.5168 49.2989 43.2017 49.6472L42.9196 49.7164C37.9908 50.916 32.6853 52.2022 31.7227 52.4099C31.0845 52.4413 30.5042 52.4159 29.9888 52.2985L12.3152 41.7538L9.11177 39.6228V39.6267C8.95925 39.5323 8.79789 39.4525 8.63148 39.3771C8.39643 39.2662 8.15266 39.1673 7.89486 39.096C7.69253 39.0395 7.48295 38.9994 7.2682 38.97C7.04288 38.9386 6.81226 38.9177 6.5782 38.9177C6.26087 38.9177 5.95314 38.947 5.65685 39.0039C3.0453 39.2113 0.988586 41.204 0.988586 43.6607C0.988586 44.9612 1.57416 46.1231 2.50695 46.9685L2.50167 46.9726L2.52713 46.9894C2.89623 47.3211 3.31614 47.6083 3.78081 47.8266L4.99846 48.6427L32.7055 67.1269V67.1228C32.8195 67.1624 32.9334 67.2022 33.0474 67.2442C33.6724 67.4436 34.3281 67.5739 35.026 67.5739C35.4346 67.5739 35.8308 67.5339 36.213 67.4645L36.3524 67.4311C45.7388 65.2325 65.136 60.6956 74.2121 58.6355C74.4373 58.56 74.6477 58.4887 74.8686 58.4132C77.1849 57.8783 80.3408 57.2429 82.322 57.2429V56.0218L82.3449 56.0198L82.322 54.3438V43.799V43.4299Z" fill="#50AC97"/>
<path d="M40.011 13.0028L39.4687 14.7211L27.9858 13.9695L28.5281 12.2512L40.011 13.0028ZM35.0299 24.4995L28.3116 17.2867L28.2326 16.0115L31.4577 16.2226C32.2965 16.2775 33.0077 16.2233 33.5915 16.0599C34.1751 15.8915 34.6164 15.613 34.9155 15.2244C35.2143 14.8307 35.353 14.3207 35.3316 13.6944C35.2999 12.7701 34.9502 12.024 34.2825 11.4562C33.6145 10.8833 32.6072 10.5528 31.2604 10.4647L27.8581 10.242L28.4024 8.58434L31.2023 8.7676C32.6435 8.86194 33.8319 9.14382 34.7674 9.61325C35.7086 10.078 36.4129 10.6785 36.8801 11.4146C37.3531 12.146 37.6048 12.9562 37.6353 13.8452C37.6628 14.6483 37.4814 15.3747 37.0911 16.0244C36.7065 16.6695 36.0694 17.167 35.1797 17.517C34.2958 17.8673 33.1156 17.9942 31.6389 17.8975L31.5857 17.894L37.7902 24.5592L37.7943 24.6804L35.0299 24.4995ZM39.8854 9.33594L39.3431 11.0542L30.3035 10.402L30.8479 8.7444L39.8854 9.33594Z" fill="#50AC97"/>
</svg>
