<svg width="21" height="20" viewBox="0 0 21 20" fill="none" xmlns="http://www.w3.org/2000/svg">
<g id="Isolation_Mode" clip-path="url(#clip0_191_1756)">
<path id="Vector" d="M10.9316 19.9998H9.69872C9.65726 19.9853 9.61463 19.9745 9.57133 19.9674C8.73783 19.9154 7.91587 19.7431 7.13023 19.4556C3.54804 18.1103 1.37338 15.5389 0.606258 11.7412C0.531772 11.376 0.503518 10.9973 0.452148 10.6253V9.37321C0.46345 9.31686 0.476291 9.26052 0.486565 9.20365C0.599065 8.56509 0.660196 7.91192 0.830744 7.28953C2.5542 1.00823 9.67304 -1.93053 15.2585 1.35724C17.8912 2.9067 19.4708 5.25228 20.0297 8.29589C20.095 8.65273 20.1294 9.0148 20.1782 9.37477V10.5867C20.1674 10.6493 20.154 10.7114 20.1453 10.7745C20.0939 11.1668 20.058 11.5633 19.984 11.9515C19.2134 15.9774 16.0033 19.1577 12.0134 19.8459C11.6544 19.9085 11.2912 19.9492 10.9316 19.9998ZM8.81259 8.24633V15.2559H10.9367V15.0175C10.9367 13.9219 10.9337 12.8305 10.9367 11.7376C10.9367 11.3463 10.9686 10.955 11.1458 10.5971C11.377 10.1276 11.8316 9.91891 12.4527 9.99925C12.8862 10.0514 13.1811 10.3451 13.2746 10.8538C13.3229 11.1158 13.348 11.3818 13.3496 11.6484C13.3578 12.7804 13.3537 13.9131 13.3542 15.0452V15.2538H15.4963C15.4999 15.1897 15.5061 15.1391 15.5061 15.0879C15.5061 13.8359 15.5194 12.589 15.4984 11.3395C15.4919 10.8391 15.4417 10.3403 15.3484 9.849C15.1876 9.02628 14.7361 8.41432 13.9018 8.19416C13.5544 8.10278 13.1962 8.06064 12.8374 8.06895C12.034 8.08878 11.3744 8.41849 10.9275 9.12331C10.9028 9.14934 10.8756 9.17276 10.8463 9.19322V8.24738L8.81259 8.24633ZM7.43485 15.2549V8.25259H5.30917V15.2549H7.43485ZM6.36276 7.27283C6.61012 7.27283 6.8519 7.19825 7.05748 7.05856C7.26306 6.91886 7.42318 6.72034 7.51756 6.48814C7.61193 6.25593 7.63631 6.0005 7.5876 5.75421C7.5389 5.50792 7.4193 5.28186 7.24396 5.10467C7.06862 4.92748 6.84544 4.80714 6.60269 4.75889C6.35994 4.71064 6.10856 4.73666 5.88038 4.83365C5.65221 4.93064 5.45753 5.09424 5.32099 5.30371C5.18446 5.51319 5.11223 5.75911 5.11345 6.01031C5.11548 6.3457 5.24792 6.66668 5.48192 6.90335C5.71592 7.14002 6.03252 7.27319 6.36276 7.27388V7.27283Z" fill="white"/>
</g>
<defs>
<clipPath id="clip0_191_1756">
<rect width="19.726" height="20" fill="white" transform="translate(0.452148)"/>
</clipPath>
</defs>
</svg>
