<?xml version="1.0" encoding="UTF-8"?>
<!DOCTYPE svg PUBLIC "-//W3C//DTD SVG 1.1//EN" "http://www.w3.org/Graphics/SVG/1.1/DTD/svg11.dtd">
<!-- Creator: CorelDRAW X7 -->
<svg xmlns="http://www.w3.org/2000/svg" xml:space="preserve" width="211.667mm" height="215.9mm" version="1.1" style="shape-rendering:geometricPrecision; text-rendering:geometricPrecision; image-rendering:optimizeQuality; fill-rule:evenodd; clip-rule:evenodd"
viewBox="0 0 21167 21590"
 xmlns:xlink="http://www.w3.org/1999/xlink">
 <defs>
  <style type="text/css">
   <![CDATA[
    .fil1 {fill:#B0842C}
    .fil4 {fill:url(#id0)}
    .fil24 {fill:url(#id1)}
    .fil16 {fill:url(#id2)}
    .fil5 {fill:url(#id3)}
    .fil17 {fill:url(#id4)}
    .fil6 {fill:url(#id5)}
    .fil18 {fill:url(#id6)}
    .fil7 {fill:url(#id7)}
    .fil19 {fill:url(#id8)}
    .fil8 {fill:url(#id9)}
    .fil20 {fill:url(#id10)}
    .fil9 {fill:url(#id11)}
    .fil21 {fill:url(#id12)}
    .fil10 {fill:url(#id13)}
    .fil22 {fill:url(#id14)}
    .fil11 {fill:url(#id15)}
    .fil12 {fill:url(#id16)}
    .fil13 {fill:url(#id17)}
    .fil2 {fill:url(#id18)}
    .fil14 {fill:url(#id19)}
    .fil3 {fill:url(#id20)}
    .fil15 {fill:url(#id21)}
    .fil23 {fill:url(#id22);fill-rule:nonzero}
    .fil0 {fill:url(#id23);fill-rule:nonzero}
   ]]>
  </style>
  <linearGradient id="id0" gradientUnits="userSpaceOnUse" x1="10984.5" y1="9071.22" x2="12766.5" y2="8850.66">
   <stop offset="0" style="stop-opacity:1; stop-color:#B4872D"/>
   <stop offset="1" style="stop-opacity:1; stop-color:#BB9234"/>
  </linearGradient>
  <linearGradient id="id1" gradientUnits="userSpaceOnUse" x1="4274.89" y1="13415.5" x2="16891.8" y2="14749.1">
   <stop offset="0" style="stop-opacity:1; stop-color:#CC9933"/>
   <stop offset="0.478431" style="stop-opacity:1; stop-color:#FFEC81"/>
   <stop offset="1" style="stop-opacity:1; stop-color:#CC9933"/>
  </linearGradient>
  <linearGradient id="id2" gradientUnits="userSpaceOnUse" x1="11012.4" y1="9034.52" x2="12794.4" y2="8813.96">
   <stop offset="0" style="stop-opacity:1; stop-color:#C49331"/>
   <stop offset="1" style="stop-opacity:1; stop-color:#E8CB55"/>
  </linearGradient>
  <linearGradient id="id3" gradientUnits="userSpaceOnUse" x1="10986.9" y1="9068.17" x2="12768.8" y2="8847.61">
   <stop offset="0" style="stop-opacity:1; stop-color:#B5882D"/>
   <stop offset="1" style="stop-opacity:1; stop-color:#BF9737"/>
  </linearGradient>
  <linearGradient id="id4" gradientUnits="userSpaceOnUse" x1="11014.7" y1="9031.46" x2="12796.7" y2="8810.9">
   <stop offset="0" style="stop-opacity:1; stop-color:#C59431"/>
   <stop offset="1" style="stop-opacity:1; stop-color:#ECCF57"/>
  </linearGradient>
  <linearGradient id="id5" gradientUnits="userSpaceOnUse" x1="10989.2" y1="9065.11" x2="12771.1" y2="8844.55">
   <stop offset="0" style="stop-opacity:1; stop-color:#B7892E"/>
   <stop offset="1" style="stop-opacity:1; stop-color:#C39C3A"/>
  </linearGradient>
  <linearGradient id="id6" gradientUnits="userSpaceOnUse" x1="11017.1" y1="9028.4" x2="12799" y2="8807.84">
   <stop offset="0" style="stop-opacity:1; stop-color:#C79532"/>
   <stop offset="1" style="stop-opacity:1; stop-color:#F0D45A"/>
  </linearGradient>
  <linearGradient id="id7" gradientUnits="userSpaceOnUse" x1="10991.5" y1="9062.05" x2="12773.4" y2="8841.49">
   <stop offset="0" style="stop-opacity:1; stop-color:#B88A2E"/>
   <stop offset="1" style="stop-opacity:1; stop-color:#C7A03C"/>
  </linearGradient>
  <linearGradient id="id8" gradientUnits="userSpaceOnUse" x1="11019.4" y1="9025.35" x2="12801.3" y2="8804.79">
   <stop offset="0" style="stop-opacity:1; stop-color:#C89632"/>
   <stop offset="1" style="stop-opacity:1; stop-color:#F4D95D"/>
  </linearGradient>
  <linearGradient id="id9" gradientUnits="userSpaceOnUse" x1="10993.8" y1="9058.99" x2="12775.8" y2="8838.43">
   <stop offset="0" style="stop-opacity:1; stop-color:#B98B2E"/>
   <stop offset="1" style="stop-opacity:1; stop-color:#CAA53F"/>
  </linearGradient>
  <linearGradient id="id10" gradientUnits="userSpaceOnUse" x1="11021.7" y1="9022.29" x2="12803.7" y2="8801.73">
   <stop offset="0" style="stop-opacity:1; stop-color:#C99732"/>
   <stop offset="1" style="stop-opacity:1; stop-color:#F7DE60"/>
  </linearGradient>
  <linearGradient id="id11" gradientUnits="userSpaceOnUse" x1="10996.1" y1="9055.93" x2="12778.1" y2="8835.37">
   <stop offset="0" style="stop-opacity:1; stop-color:#BB8C2F"/>
   <stop offset="1" style="stop-opacity:1; stop-color:#CEAA42"/>
  </linearGradient>
  <linearGradient id="id12" gradientUnits="userSpaceOnUse" x1="11024" y1="9019.23" x2="12806" y2="8798.67">
   <stop offset="0" style="stop-opacity:1; stop-color:#CB9833"/>
   <stop offset="1" style="stop-opacity:1; stop-color:#FBE262"/>
  </linearGradient>
  <linearGradient id="id13" gradientUnits="userSpaceOnUse" x1="10998.5" y1="9052.87" x2="12780.4" y2="8832.31">
   <stop offset="0" style="stop-opacity:1; stop-color:#BC8D2F"/>
   <stop offset="1" style="stop-opacity:1; stop-color:#D2AE44"/>
  </linearGradient>
  <linearGradient id="id14" gradientUnits="userSpaceOnUse" x1="11026.4" y1="9016.17" x2="12808.3" y2="8795.61">
   <stop offset="0" style="stop-opacity:1; stop-color:#CC9933"/>
   <stop offset="1" style="stop-opacity:1; stop-color:#FFE765"/>
  </linearGradient>
  <linearGradient id="id15" gradientUnits="userSpaceOnUse" x1="11000.8" y1="9049.81" x2="12782.7" y2="8829.25">
   <stop offset="0" style="stop-opacity:1; stop-color:#BD8E2F"/>
   <stop offset="1" style="stop-opacity:1; stop-color:#D6B347"/>
  </linearGradient>
  <linearGradient id="id16" gradientUnits="userSpaceOnUse" x1="11003.1" y1="9046.76" x2="12785.1" y2="8826.2">
   <stop offset="0" style="stop-opacity:1; stop-color:#BF8F30"/>
   <stop offset="1" style="stop-opacity:1; stop-color:#D9B84A"/>
  </linearGradient>
  <linearGradient id="id17" gradientUnits="userSpaceOnUse" x1="11005.4" y1="9043.7" x2="12787.4" y2="8823.14">
   <stop offset="0" style="stop-opacity:1; stop-color:#C09030"/>
   <stop offset="1" style="stop-opacity:1; stop-color:#DDBD4D"/>
  </linearGradient>
  <linearGradient id="id18" gradientUnits="userSpaceOnUse" x1="10979.9" y1="9077.34" x2="12761.8" y2="8856.78">
   <stop offset="0" style="stop-opacity:1; stop-color:#B1852C"/>
   <stop offset="1" style="stop-opacity:1; stop-color:#B4892F"/>
  </linearGradient>
  <linearGradient id="id19" gradientUnits="userSpaceOnUse" x1="11007.8" y1="9040.64" x2="12789.7" y2="8820.08">
   <stop offset="0" style="stop-opacity:1; stop-color:#C19130"/>
   <stop offset="1" style="stop-opacity:1; stop-color:#E1C14F"/>
  </linearGradient>
  <linearGradient id="id20" gradientUnits="userSpaceOnUse" x1="10982.2" y1="9074.28" x2="12764.1" y2="8853.72">
   <stop offset="0" style="stop-opacity:1; stop-color:#B3862D"/>
   <stop offset="1" style="stop-opacity:1; stop-color:#B88D31"/>
  </linearGradient>
  <linearGradient id="id21" gradientUnits="userSpaceOnUse" x1="11010.1" y1="9037.58" x2="12792" y2="8817.02">
   <stop offset="0" style="stop-opacity:1; stop-color:#C39231"/>
   <stop offset="1" style="stop-opacity:1; stop-color:#E5C652"/>
  </linearGradient>
  <linearGradient id="id22" gradientUnits="objectBoundingBox" x1="0%" y1="50%" x2="100%" y2="50%">
   <stop offset="0" style="stop-opacity:1; stop-color:#B0842C"/>
   <stop offset="0.560784" style="stop-opacity:1; stop-color:#FFEC81"/>
   <stop offset="1" style="stop-opacity:1; stop-color:#B0842C"/>
  </linearGradient>
  <linearGradient id="id23" gradientUnits="userSpaceOnUse" x1="11710.4" y1="8536" x2="9652.91" y2="9129.53">
   <stop offset="0" style="stop-opacity:1; stop-color:#FFEC81"/>
   <stop offset="1" style="stop-opacity:1; stop-color:#CC9933"/>
  </linearGradient>
 </defs>
 <g id="Layer_x0020_1">
  <metadata id="CorelCorpID_0Corel-Layer"/>
  <g id="_2081798093792">
   <path class="fil0" d="M9130 8679c2,15 9,49 16,84 8,38 17,87 27,134l0 44 9 2c15,83 34,158 38,189 36,158 77,314 122,465l997 -131 82 238 -261 35 -1798 238 94 269 1484 -202 614 -80 132 335 -1007 136 -396 58 45 271 1277 -169 2 -4 153 -20 203 357 -930 127 3 2 -29 14 29 280 198 -36c96,114 196,229 308,343 285,293 588,398 930,366 380,-51 660,-95 1035,-177 402,-89 718,-476 863,-1045 302,-1178 -88,-2514 -700,-3241 397,942 696,1707 461,3007 -189,1050 -836,1403 -1616,574 -494,-525 -724,-1136 -958,-1978l-96 -494c-100,-747 -115,-1612 46,-2036 296,-798 803,-898 1281,-527 1099,851 1726,2074 1857,3503 36,-1567 -717,-2796 -1515,-3563 -328,-311 -689,-458 -1021,-398 -311,53 -968,200 -1253,318 -131,53 -243,156 -332,296l810 -127 -114 329 -849 133 -1535 236 -119 307 2338 -365 -24 365 -844 133 -770 118 -138 302 1675 -260 27 385 -878 140 96 -14 -105 300c-3,80 -3,154 9,241 3,55 12,117 27,193z"/>
   <path class="fil1" d="M10943 7406l1354 -299 -33 377 -427 90c109,79 195,187 256,312l359 -77 -37 365 -223 47c55,412 -105,863 -499,1017l1167 1490 -327 105 -1177 -1441 -49 -331c420,-27 588,-411 537,-767l-791 166 82 -368 594 -128c-103,-175 -275,-297 -534,-255l-69 14 0 0 0 0 -249 52 66 -369z"/>
   <g>
    <path class="fil2" d="M10945 7403c452,-100 903,-199 1354,-299 -11,126 -22,251 -33,377 -142,30 -285,60 -427,90 110,79 195,187 256,312 120,-26 240,-52 360,-78 -13,122 -25,244 -38,366 -74,16 -148,31 -222,47 55,412 -106,863 -500,1017 389,497 779,993 1168,1490 -109,35 -218,70 -327,105 -393,-480 -785,-961 -1178,-1441 -16,-110 -33,-221 -49,-331 420,-27 588,-411 537,-767 -264,55 -527,111 -791,166 27,-123 55,-245 82,-368 198,-42 397,-85 595,-128 -104,-175 -275,-297 -535,-255 -23,4 -45,9 -68,14 0,0 0,0 0,0 0,0 0,0 0,0 -84,17 -167,35 -250,52 22,-123 44,-246 66,-369z"/>
    <path class="fil3" d="M10948 7400c451,-100 902,-200 1353,-299 -11,126 -22,251 -33,377 -142,30 -284,60 -427,90 110,79 196,187 257,312 119,-26 239,-52 359,-78 -12,122 -25,244 -38,366 -74,16 -148,31 -222,47 55,412 -105,863 -499,1017 389,497 778,993 1167,1490 -109,35 -218,70 -327,105 -393,-480 -785,-961 -1178,-1441 -16,-110 -32,-221 -48,-331 419,-27 587,-411 537,-767 -264,55 -528,111 -792,166 28,-123 55,-245 83,-368 198,-42 396,-85 594,-128 -104,-175 -275,-298 -534,-256 -23,5 -46,10 -69,15 0,0 0,0 0,0 0,0 0,0 0,0 -83,17 -166,35 -250,52 22,-123 45,-246 67,-369z"/>
    <path class="fil4" d="M10950 7397c451,-100 902,-200 1354,-299 -11,125 -22,251 -33,377 -143,30 -285,60 -427,89 109,80 195,188 256,313 120,-26 240,-52 359,-78 -12,122 -25,244 -37,366 -74,16 -149,31 -223,47 55,412 -105,863 -499,1017 389,497 778,993 1167,1490 -109,35 -218,70 -327,105 -392,-480 -785,-961 -1177,-1441 -17,-110 -33,-221 -49,-331 420,-27 588,-411 537,-767 -264,55 -528,110 -791,166 27,-123 54,-245 82,-368 198,-43 396,-85 594,-128 -103,-175 -275,-298 -534,-256 -23,5 -46,10 -69,15 0,0 0,0 0,0 0,0 0,0 0,0 -83,17 -166,35 -249,52 22,-123 44,-246 66,-369z"/>
    <path class="fil5" d="M10952 7393c452,-99 903,-199 1354,-298 -11,125 -22,251 -33,377 -142,30 -285,60 -427,89 110,80 195,188 256,313 120,-26 240,-52 360,-78 -13,122 -25,244 -38,366 -74,16 -148,31 -222,47 55,412 -106,863 -500,1017 389,497 779,993 1168,1490 -109,35 -218,70 -327,105 -393,-480 -786,-961 -1178,-1441 -16,-110 -33,-221 -49,-331 420,-27 588,-411 537,-767 -264,55 -527,110 -791,166 27,-123 55,-245 82,-368 198,-43 397,-85 595,-128 -104,-175 -275,-298 -535,-256 -23,5 -45,10 -68,15 0,0 0,0 0,0 0,0 0,0 0,0 -84,17 -167,35 -250,52 22,-123 44,-246 66,-370z"/>
    <path class="fil6" d="M10955 7390c451,-99 902,-199 1353,-298 -11,125 -22,251 -33,377 -142,30 -284,59 -427,89 110,79 196,188 257,313 119,-26 239,-52 359,-78 -12,122 -25,244 -38,366 -74,16 -148,31 -222,47 55,412 -106,863 -499,1017 389,497 778,993 1167,1490 -109,35 -218,70 -327,105 -393,-480 -785,-961 -1178,-1441 -16,-110 -32,-221 -48,-331 419,-27 587,-411 537,-767 -264,55 -528,110 -792,166 28,-123 55,-245 83,-368 198,-43 396,-85 594,-128 -104,-175 -275,-298 -534,-256 -23,5 -46,10 -69,15 0,0 0,0 0,0 0,0 0,0 0,0 -83,17 -166,35 -250,52 22,-123 45,-246 67,-370z"/>
    <path class="fil7" d="M10957 7387c451,-99 902,-199 1354,-298 -11,125 -22,251 -33,377 -143,29 -285,59 -427,89 109,79 195,188 256,313 120,-26 240,-52 359,-78 -12,122 -25,244 -37,366 -74,16 -149,31 -223,47 55,412 -105,863 -499,1017 389,496 778,993 1167,1490 -109,35 -218,70 -327,105 -392,-480 -785,-961 -1177,-1441 -17,-110 -33,-221 -49,-331 420,-28 588,-411 537,-767 -264,55 -528,110 -791,166 27,-123 54,-245 82,-368 198,-43 396,-85 594,-128 -103,-175 -275,-298 -534,-256 -23,5 -46,10 -69,15 0,0 0,0 0,0 0,0 0,0 0,0 -83,17 -166,35 -249,52 22,-123 44,-246 66,-370z"/>
    <path class="fil8" d="M10959 7384c452,-99 903,-199 1354,-298 -11,125 -22,251 -33,376 -142,30 -285,60 -427,90 110,79 195,188 256,313 120,-26 240,-52 360,-78 -13,122 -25,244 -38,366 -74,16 -148,31 -222,47 55,412 -106,863 -500,1017 389,496 779,993 1168,1490 -109,35 -218,70 -327,105 -393,-481 -786,-961 -1178,-1441 -16,-111 -33,-221 -49,-331 420,-28 588,-411 537,-767 -264,55 -527,110 -791,166 27,-123 55,-246 82,-368 198,-43 397,-85 595,-128 -104,-175 -275,-298 -535,-256 -23,5 -46,10 -68,15 0,0 0,0 0,0 0,0 0,0 0,0 -84,17 -167,35 -250,52 22,-123 44,-246 66,-370z"/>
    <path class="fil9" d="M10962 7381c451,-99 902,-199 1353,-298 -11,125 -22,251 -33,376 -142,30 -284,60 -427,90 110,79 196,188 257,312 119,-25 239,-51 359,-77 -13,122 -25,244 -38,366 -74,15 -148,31 -222,47 55,412 -106,863 -499,1017 389,496 778,993 1167,1490 -109,35 -218,70 -327,105 -393,-481 -785,-961 -1178,-1441 -16,-111 -32,-221 -49,-331 420,-28 588,-411 537,-767 -263,55 -527,110 -791,166 28,-123 55,-246 83,-368 198,-43 396,-86 594,-128 -104,-175 -275,-298 -534,-256 -23,5 -46,10 -69,15 0,0 0,0 0,0 0,0 0,0 0,0 -83,17 -167,35 -250,52 22,-123 45,-247 67,-370z"/>
    <path class="fil10" d="M10964 7378c451,-99 902,-199 1354,-298 -11,125 -22,251 -33,376 -143,30 -285,60 -427,90 109,79 195,188 256,312 120,-25 240,-51 359,-77 -12,122 -25,244 -37,366 -74,15 -149,31 -223,47 55,412 -105,863 -499,1017 389,496 778,993 1167,1490 -109,35 -218,70 -327,105 -392,-481 -785,-961 -1178,-1441 -16,-111 -32,-221 -48,-331 420,-28 588,-411 537,-767 -264,55 -528,110 -792,165 28,-122 55,-245 83,-367 198,-43 396,-86 594,-128 -104,-175 -275,-298 -534,-256 -23,5 -46,10 -69,14 0,0 0,0 0,0 0,0 0,0 0,0 -83,18 -166,35 -249,53 22,-123 44,-247 66,-370z"/>
    <path class="fil11" d="M10966 7375c452,-99 903,-199 1354,-299 -11,126 -22,252 -33,377 -142,30 -285,60 -427,90 110,79 195,188 256,312 120,-25 240,-51 360,-77 -13,122 -25,244 -38,366 -74,15 -148,31 -223,46 56,412 -105,863 -499,1018 389,496 779,993 1168,1490 -109,35 -218,70 -327,105 -393,-481 -786,-961 -1178,-1441 -16,-111 -33,-221 -49,-331 420,-28 588,-412 537,-768 -264,56 -527,111 -791,166 27,-122 55,-245 82,-367 198,-43 397,-86 595,-128 -104,-176 -275,-298 -535,-256 -23,5 -46,10 -68,14 0,0 0,0 0,0 0,0 0,0 0,0 -84,18 -167,35 -250,53 22,-123 44,-247 66,-370z"/>
    <path class="fil12" d="M10969 7372c451,-100 902,-199 1353,-299 -11,126 -22,252 -33,377 -142,30 -285,60 -427,90 110,79 196,188 257,312 119,-26 239,-51 359,-77 -13,122 -25,244 -38,366 -74,15 -148,31 -222,46 55,412 -106,863 -499,1017 389,497 778,994 1167,1491 -109,35 -218,70 -327,105 -393,-481 -785,-961 -1178,-1441 -16,-111 -32,-221 -49,-331 420,-28 588,-412 537,-768 -263,56 -527,111 -791,166 28,-122 55,-245 83,-367 198,-43 396,-86 594,-128 -104,-176 -275,-298 -534,-256 -23,5 -46,10 -69,14 0,0 0,0 0,0 0,0 0,0 0,0 -83,18 -167,35 -250,53 22,-123 44,-247 67,-370z"/>
    <path class="fil13" d="M10971 7369c451,-100 902,-199 1354,-299 -11,126 -22,252 -34,377 -142,30 -284,60 -427,90 110,79 196,188 257,312 120,-26 240,-51 359,-77 -12,122 -25,244 -37,366 -75,15 -149,31 -223,46 55,412 -105,863 -499,1017 389,497 778,994 1167,1491 -109,35 -218,70 -327,105 -392,-481 -785,-961 -1178,-1442 -16,-110 -32,-220 -48,-331 420,-27 588,-411 537,-767 -264,56 -528,111 -792,166 28,-122 55,-245 83,-367 198,-43 396,-86 594,-128 -104,-176 -275,-298 -534,-256 -23,5 -46,9 -69,14 0,0 0,0 0,0 0,0 0,0 0,0 -83,18 -166,35 -249,53 22,-123 44,-247 66,-370z"/>
    <path class="fil14" d="M10973 7366c451,-100 903,-199 1354,-299 -11,126 -22,252 -33,377 -143,30 -285,60 -427,90 110,79 195,188 256,312 120,-26 240,-51 360,-77 -13,122 -25,244 -38,366 -74,15 -148,31 -223,46 56,412 -105,863 -499,1017 389,497 778,994 1168,1490 -109,35 -218,70 -327,105 -393,-480 -786,-960 -1178,-1441 -16,-110 -33,-220 -49,-331 420,-27 588,-411 537,-767 -264,56 -527,111 -791,166 27,-122 55,-245 82,-367 198,-43 397,-86 595,-129 -104,-175 -275,-297 -535,-255 -23,5 -46,9 -68,14 0,0 0,0 0,0 0,0 0,0 0,0 -84,18 -167,35 -250,53 22,-124 44,-247 66,-370z"/>
    <path class="fil15" d="M10976 7363c451,-100 902,-199 1353,-299 -11,126 -22,251 -33,377 -142,30 -285,60 -427,90 110,79 196,188 256,312 120,-26 240,-51 360,-77 -13,122 -25,244 -38,366 -74,15 -148,31 -222,46 55,412 -106,863 -499,1017 389,497 778,994 1167,1490 -109,35 -218,70 -327,105 -393,-480 -785,-960 -1178,-1441 -16,-110 -32,-220 -49,-331 420,-27 588,-411 537,-767 -263,56 -527,111 -791,166 28,-122 55,-245 83,-368 198,-42 396,-85 594,-128 -104,-175 -275,-297 -535,-255 -22,5 -45,9 -68,14 0,0 0,0 0,0 0,0 0,0 0,0 -83,18 -167,35 -250,53 22,-124 44,-247 67,-370z"/>
    <path class="fil16" d="M10978 7360c451,-100 902,-199 1354,-299 -11,126 -23,251 -34,377 -142,30 -284,60 -427,90 110,79 196,187 257,312 120,-26 239,-52 359,-77 -12,122 -25,244 -37,366 -75,15 -149,31 -223,46 55,412 -105,863 -499,1017 389,497 778,994 1167,1490 -109,35 -218,70 -327,105 -392,-480 -785,-960 -1178,-1441 -16,-110 -32,-220 -48,-331 420,-27 588,-411 537,-767 -264,55 -528,111 -792,166 28,-122 55,-245 83,-368 198,-42 396,-85 594,-128 -104,-175 -275,-297 -534,-255 -23,4 -46,9 -69,14 0,0 0,0 0,0 0,0 0,0 0,0 -83,18 -166,35 -249,53 22,-124 44,-247 66,-370z"/>
    <path class="fil17" d="M10980 7357c451,-100 903,-199 1354,-299 -11,126 -22,251 -33,377 -143,30 -285,60 -427,90 110,79 195,187 256,312 120,-26 240,-52 360,-77 -13,122 -25,243 -38,365 -74,16 -148,32 -223,47 56,412 -105,863 -499,1017 389,497 778,994 1168,1490 -109,35 -218,70 -327,105 -393,-480 -786,-960 -1178,-1441 -16,-110 -33,-220 -49,-331 420,-27 588,-411 537,-767 -264,55 -527,111 -791,166 27,-123 55,-245 82,-368 198,-42 397,-85 595,-128 -104,-175 -275,-297 -535,-255 -23,4 -46,9 -68,14 0,0 0,0 -1,0 0,0 1,0 1,0 -84,18 -167,35 -250,53 22,-124 44,-247 66,-370z"/>
    <path class="fil18" d="M10983 7354c451,-100 902,-199 1353,-299 -11,126 -22,251 -33,377 -142,30 -285,60 -427,90 110,79 196,187 256,312 120,-26 240,-52 360,-77 -13,121 -25,243 -38,365 -74,16 -148,31 -222,47 55,412 -106,863 -499,1017 389,497 778,994 1167,1490 -109,35 -218,70 -327,105 -393,-480 -785,-960 -1178,-1441 -16,-110 -32,-220 -49,-331 420,-27 588,-411 537,-767 -263,55 -527,111 -791,166 28,-123 55,-245 83,-368 198,-42 396,-85 594,-128 -104,-175 -275,-297 -535,-255 -22,4 -45,9 -68,14 0,0 0,0 0,0 0,0 0,0 0,0 -83,17 -167,35 -250,52 22,-123 44,-246 67,-369z"/>
    <path class="fil19" d="M10985 7351c451,-100 902,-199 1354,-299 -11,126 -23,251 -34,377 -142,30 -284,60 -427,90 110,79 196,187 257,312 120,-26 239,-52 359,-78 -12,122 -25,244 -37,366 -75,16 -149,31 -223,47 55,412 -105,863 -499,1017 389,497 778,993 1167,1490 -109,35 -218,70 -327,105 -392,-480 -785,-961 -1178,-1441 -16,-110 -32,-221 -48,-331 420,-27 588,-411 537,-767 -264,55 -528,111 -792,166 28,-123 55,-245 83,-368 198,-42 396,-85 594,-128 -104,-175 -275,-297 -534,-255 -23,4 -46,9 -69,14 0,0 0,0 0,0 0,0 0,0 0,0 -83,17 -166,35 -249,52 22,-123 44,-246 66,-369z"/>
    <path class="fil20" d="M10987 7348c451,-100 903,-200 1354,-299 -11,126 -22,251 -33,377 -143,30 -285,60 -427,90 110,79 195,187 256,312 120,-26 240,-52 360,-78 -13,122 -26,244 -38,366 -74,16 -148,31 -223,47 56,412 -105,863 -499,1017 389,497 778,993 1168,1490 -109,35 -218,70 -327,105 -393,-480 -786,-961 -1178,-1441 -16,-110 -33,-221 -49,-331 420,-27 588,-411 537,-767 -264,55 -527,111 -791,166 27,-123 55,-245 82,-368 198,-42 396,-85 595,-128 -104,-175 -275,-298 -535,-256 -23,5 -46,10 -68,15 -1,0 -1,0 -1,0 0,0 0,0 0,0 -83,17 -166,35 -249,52 22,-123 44,-246 66,-369z"/>
    <path class="fil21" d="M10990 7345c451,-100 902,-200 1353,-299 -11,125 -22,251 -33,377 -142,30 -285,60 -427,89 110,80 196,188 256,313 120,-26 240,-52 360,-78 -13,122 -25,244 -38,366 -74,16 -148,31 -222,47 55,412 -106,863 -499,1017 389,497 778,993 1167,1490 -109,35 -218,70 -327,105 -393,-480 -785,-961 -1178,-1441 -16,-110 -32,-221 -49,-331 420,-27 588,-411 537,-767 -263,55 -527,111 -791,166 28,-123 55,-245 83,-368 198,-43 396,-85 594,-128 -104,-175 -275,-298 -535,-256 -22,5 -45,10 -68,15 0,0 0,0 0,0 0,0 0,0 0,0 -83,17 -167,35 -250,52 22,-123 44,-246 67,-369z"/>
   </g>
   <path class="fil22" d="M10992 7341l1354 -298 -34 377 -427 89c110,80 196,188 257,313l359 -78 -37 366 -223 47c55,412 -105,863 -499,1017l1167 1490 -327 105 -1178 -1441 -48 -331c419,-27 588,-411 537,-767l-792 166 83 -368 594 -128c-104,-175 -275,-298 -534,-256l-69 15 0 0 0 0 -250 52 67 -370z"/>
   <polygon class="fil23" points="4689,15865 4689,15948 4353,15948 4353,15396 4436,15396 4436,15865 "/>
   <polygon id="1" class="fil23" points="5671,15527 5671,15948 5588,15948 5588,15396 5681,15396 5966,15802 5966,15396 6049,15396 6049,15948 5968,15948 "/>
   <path id="2" class="fil23" d="M6567 15865l0 0c35,0 68,-8 97,-26 29,-17 53,-40 70,-70 17,-29 26,-61 26,-97 0,-35 -9,-68 -26,-97 -17,-29 -41,-53 -70,-70 -29,-17 -62,-26 -97,-26l-129 0 0 386 129 0zm0 -469l0 0c51,0 97,12 139,37 41,25 75,59 100,100 25,42 37,88 37,139 0,51 -12,97 -37,139 -25,42 -59,75 -100,100 -42,25 -88,37 -139,37l-212 0 0 -552 212 0z"/>
   <polygon id="3" class="fil23" points="7402,15865 7402,15948 7099,15948 7099,15865 7208,15865 7208,15479 7099,15479 7099,15396 7402,15396 7402,15479 7292,15479 7292,15865 "/>
   <polygon id="4" class="fil23" points="7771,15527 7771,15948 7688,15948 7688,15396 7780,15396 8065,15802 8065,15396 8148,15396 8148,15948 8067,15948 "/>
   <path id="5" class="fil23" d="M8686 15954l0 0c-49,0 -93,-12 -133,-36 -40,-24 -73,-56 -97,-96 -24,-40 -36,-85 -36,-134l0 -35c0,-49 12,-94 36,-134 24,-40 57,-72 97,-96 40,-24 84,-36 133,-36 47,0 91,11 131,34 40,22 72,54 97,95l-71 42c-17,-28 -40,-49 -67,-65 -28,-15 -57,-23 -90,-23 -33,0 -64,8 -92,25 -28,16 -50,38 -66,66 -16,27 -25,58 -25,92l0 35c0,34 9,65 25,92 16,28 38,50 66,66 28,17 59,25 92,25 44,0 82,-13 115,-41 34,-27 55,-62 64,-106l0 -12 -230 0 0 -83 313 0 0 107c-8,42 -25,80 -50,113 -24,32 -55,58 -92,77 -37,19 -77,28 -120,28z"/>
   <path id="6" class="fil23" d="M9704 15478l0 214 216 0c29,0 54,-10 75,-31 21,-21 31,-46 31,-76 0,-29 -10,-54 -31,-75 -21,-21 -46,-32 -75,-32l-216 0zm405 107l0 0c0,35 -8,67 -25,96 -17,29 -40,51 -69,69 -29,17 -60,25 -95,25l-216 0 0 173 -83 0 0 -552 299 0c35,0 66,8 95,25 29,17 52,40 69,69 17,29 25,60 25,95z"/>
   <path id="7" class="fil23" d="M11067 15658l0 25c0,35 9,66 26,95 17,28 40,51 68,68 28,17 60,25 94,25l29 0c34,0 65,-8 94,-25 28,-17 51,-40 68,-68 17,-29 26,-60 26,-95l0 -25c0,-35 -9,-66 -26,-95 -17,-28 -40,-51 -68,-68 -29,-17 -60,-25 -94,-25l-29 0c-34,0 -66,8 -94,25 -28,17 -51,40 -68,68 -17,29 -26,60 -26,95zm188 296l0 0c-50,0 -95,-12 -136,-36 -41,-25 -73,-58 -98,-99 -24,-41 -36,-86 -36,-136l0 -25c0,-50 12,-95 36,-136 25,-41 57,-74 98,-98 41,-25 86,-37 136,-37l29 0c49,0 95,12 136,37 41,24 73,57 98,98 24,41 36,86 36,136l0 25c0,50 -12,95 -36,136 -25,41 -57,74 -98,99 -41,24 -87,36 -136,36l-29 0z"/>
   <path id="8" class="fil23" d="M11906 15478l0 214 215 0c30,0 55,-10 76,-31 21,-21 31,-46 31,-76 0,-29 -10,-54 -31,-75 -21,-21 -46,-32 -76,-32l-215 0zm405 107l0 0c0,35 -8,67 -26,96 -17,29 -40,51 -68,69 -29,17 -61,25 -96,25l-215 0 0 173 -83 0 0 -552 298 0c35,0 67,8 96,25 28,17 51,40 68,69 18,29 26,60 26,95z"/>
   <polygon id="9" class="fil23" points="12916,15865 12916,15948 12580,15948 12580,15396 12663,15396 12663,15865 "/>
   <polygon id="10" class="fil23" points="14295,15714 14295,15948 14212,15948 14212,15396 14295,15396 14295,15631 14564,15631 14564,15396 14647,15396 14647,15948 14564,15948 14564,15714 "/>
   <path id="11" class="fil23" d="M15010 15658l0 25c0,35 9,66 26,95 17,28 40,51 68,68 28,17 60,25 94,25l29 0c34,0 65,-8 94,-25 28,-17 51,-40 68,-68 17,-29 26,-60 26,-95l0 -25c0,-35 -9,-66 -26,-95 -17,-28 -40,-51 -68,-68 -29,-17 -60,-25 -94,-25l-29 0c-34,0 -66,8 -94,25 -28,17 -51,40 -68,68 -17,29 -26,60 -26,95zm188 296l0 0c-49,0 -95,-12 -136,-36 -41,-25 -73,-58 -98,-99 -24,-41 -36,-86 -36,-136l0 -25c0,-50 12,-95 36,-136 25,-41 57,-74 98,-98 41,-25 87,-37 136,-37l29 0c49,0 95,12 136,37 41,24 73,57 98,98 24,41 36,86 36,136l0 25c0,50 -12,95 -36,136 -25,41 -57,74 -98,99 -41,24 -87,36 -136,36l-29 0z"/>
   <path id="12" class="fil23" d="M15849 15478l0 214 215 0c30,0 55,-10 76,-31 21,-21 31,-46 31,-76 0,-29 -10,-54 -31,-75 -21,-21 -46,-32 -76,-32l-215 0zm405 107l0 0c0,35 -8,67 -26,96 -17,29 -39,51 -68,69 -29,17 -61,25 -96,25l-215 0 0 173 -83 0 0 -552 298 0c35,0 67,8 96,25 29,17 51,40 68,69 18,29 26,60 26,95z"/>
   <path id="13" class="fil23" d="M5235 15725l-125 0 -52 -105 177 0 0 105zm67 -338l0 94 -263 0 -1 374 264 0 0 93 -376 0 0 -561 376 0z"/>
   <path id="14" class="fil23" d="M10669 15725l-125 0 -52 -105 177 0 0 105zm66 -338l1 94 -264 0 0 374 263 0 0 93 -376 0 0 -561 376 0z"/>
   <path id="15" class="fil23" d="M13462 15725l-125 0 -52 -105 177 0 0 105zm67 -338l1 94 -264 0 -1 374 264 0 0 93 -376 0 0 -561 376 0z"/>
   <path id="16" class="fil23" d="M16814 15725l-126 0 -52 -105 178 0 0 105zm66 -338l1 94 -264 0 -1 374 264 0 0 93 -376 0 0 -561 376 0z"/>
   <path class="fil24" d="M4660 14331l402 113c-62,208 -165,362 -309,462 -143,101 -325,151 -546,151 -273,0 -498,-85 -674,-256 -176,-171 -264,-405 -264,-702 0,-314 89,-557 265,-731 177,-174 410,-261 698,-261 252,0 456,69 613,205 94,81 164,197 211,348l-411 89c-24,-97 -75,-174 -152,-231 -78,-56 -172,-84 -282,-84 -152,0 -276,50 -371,150 -95,100 -143,262 -143,487 0,238 47,407 140,508 94,102 216,152 366,152 110,0 206,-32 285,-96 80,-65 137,-166 172,-304zm12668 -382c83,23 159,48 228,75 70,27 130,61 181,100 50,40 90,87 118,142 28,55 43,120 43,196l0 8c0,82 -17,158 -51,226 -33,69 -79,128 -139,177 -59,49 -128,86 -208,113 -80,27 -167,40 -262,40 -87,0 -171,-11 -251,-32 -80,-21 -152,-50 -218,-84 -65,-35 -122,-75 -171,-119 -49,-45 -86,-90 -112,-139l302 -190c32,36 65,68 97,96 33,29 67,53 103,73 36,19 76,34 119,45 43,10 90,15 142,15 32,0 65,-3 99,-10 33,-7 64,-18 91,-34 28,-15 50,-34 67,-58 17,-23 26,-52 26,-86 0,-24 -6,-48 -18,-70 -12,-22 -33,-44 -62,-66 -29,-21 -69,-42 -118,-62 -50,-20 -113,-39 -188,-58 -93,-22 -176,-47 -250,-76 -74,-28 -137,-62 -188,-103 -52,-41 -91,-89 -119,-146 -27,-56 -41,-124 -41,-201 0,-84 16,-160 48,-228 31,-68 76,-125 132,-172 57,-47 123,-82 200,-107 76,-25 158,-37 246,-37 91,0 173,10 247,31 74,20 140,46 198,78 59,32 110,68 154,108 43,41 80,80 109,117l-296 191c-74,-70 -144,-120 -210,-148 -66,-28 -135,-43 -207,-43 -45,0 -83,6 -115,17 -32,11 -58,25 -78,41 -21,17 -37,35 -48,56 -11,20 -17,40 -17,59 0,34 9,64 27,89 18,25 45,48 80,68 35,21 79,40 131,57 53,17 112,34 179,51zm-1400 -765l420 0 0 1842 -420 0 0 -1842zm-1491 1842l0 -1842 402 0 0 1842 -402 0zm463 -369l884 0 0 369 -660 0 -224 -369zm-1638 -1497c142,0 274,25 397,75 238,97 425,266 530,503 50,114 76,237 76,367 0,453 -319,819 -756,915l-201 -313c80,-5 154,-25 220,-59 206,-107 323,-313 323,-543 0,-158 -58,-312 -167,-427 -51,-54 -113,-97 -185,-129 -72,-31 -151,-47 -237,-47 -86,0 -165,16 -237,47 -223,98 -355,314 -355,556 0,241 132,457 355,555 72,32 151,47 237,47l0 342c-142,0 -274,-24 -396,-73 -239,-96 -426,-268 -530,-504 -51,-115 -77,-237 -77,-367 0,-130 26,-253 77,-367 104,-237 292,-406 530,-503 122,-50 254,-75 396,-75zm-1859 24c98,0 190,17 276,51 167,66 304,183 381,346 37,79 56,163 56,253 0,89 -19,173 -56,252 -78,164 -215,278 -381,344 -86,34 -178,51 -276,51l-224 0 -218 -368 442 0c127,0 230,-67 280,-183 17,-38 25,-80 25,-125 0,-39 -8,-76 -25,-112 -50,-111 -156,-191 -280,-191l-508 0 0 1524 -400 0 0 -1842 908 0zm-2085 0c137,0 268,24 390,72 237,93 427,259 536,491 53,112 79,231 79,358 0,126 -26,245 -79,358 -109,232 -299,397 -536,490 -122,49 -253,73 -390,73l-167 0 -190 -321 357 0c339,0 603,-260 603,-600 0,-247 -142,-460 -369,-554 -74,-31 -152,-46 -234,-46l-460 0 0 1521 -402 0 0 -1842 862 0zm-1302 1108l-448 0 -187 -343 635 0 0 343zm239 -1108l2 308 -945 0 -3 1228 946 0 0 306 -1348 0 0 -1842 1348 0zm-1507 -42l-140 284 -320 0c16,17 31,39 46,66 15,27 25,54 30,81l384 0 -140 284 -244 0c-35,195 -200,326 -379,387 -66,23 -137,37 -210,43l764 739 -497 0 -704 -719 0 -284 208 0c26,0 59,-2 99,-5 79,-6 163,-29 229,-72 33,-22 55,-51 67,-89l-672 0 140 -284 531 0c-11,-34 -32,-61 -62,-81 -69,-45 -165,-58 -246,-62 -52,-3 -105,-4 -160,-4l-203 0 140 -284 1339 0z"/>
  </g>
 </g>
</svg>
