<svg width="21" height="20" viewBox="0 0 21 20" fill="none" xmlns="http://www.w3.org/2000/svg">
<g id="Speech_bubble" clip-path="url(#clip0_191_1752)">
<g id="Group 15">
<path id="Vector" d="M11.1671 19.9998H10.0883C9.80843 19.968 9.52764 19.9431 9.24877 19.902C7.85923 19.7131 6.52705 19.2192 5.34516 18.4547C5.29213 18.4154 5.23027 18.39 5.16516 18.381C5.10004 18.3719 5.03373 18.3795 4.97221 18.4029C3.84566 18.7751 2.71621 19.1365 1.58773 19.5043C1.52597 19.5244 1.46325 19.543 1.37544 19.5699C1.76962 18.3809 2.14739 17.2296 2.53336 16.0812C2.58546 15.9266 2.5816 15.8112 2.48173 15.6708C1.66275 14.4928 1.11489 13.1435 0.878504 11.7224C0.808064 11.3081 0.774292 10.887 0.723633 10.4693V9.41484C0.735694 9.34539 0.749204 9.27643 0.759335 9.20746C0.822538 8.7707 0.859205 8.32709 0.952321 7.89767C1.47242 5.48155 2.70463 3.50757 4.65282 2.02855C7.0444 0.213526 9.73365 -0.3861 12.6617 0.233581C15.021 0.732946 16.9397 1.98502 18.4069 3.91841C19.9904 6.00635 20.6494 8.38334 20.4019 11C20.2017 13.1124 19.395 14.9797 18.0089 16.5757C16.4799 18.3364 14.5723 19.4315 12.2902 19.8423C11.9178 19.9118 11.5414 19.9489 11.1671 19.9998ZM13.768 15.6356C14.0879 15.5735 14.3682 15.5534 14.6249 15.4644C16.0197 14.9797 16.493 14.2975 16.5335 12.9916C16.5398 12.7837 16.4621 12.6463 16.2773 12.5573C15.5483 12.2056 14.8241 11.8437 14.0922 11.4974C13.7038 11.314 13.4824 11.3849 13.2281 11.7322C13.0352 11.9933 12.8494 12.257 12.6516 12.5147C12.3573 12.8967 12.1402 12.9505 11.6982 12.7681C10.0878 12.1029 8.8821 10.9658 7.97603 9.48135C7.75507 9.11992 7.76616 9.01281 8.04889 8.68903C8.2274 8.48458 8.41363 8.28601 8.5796 8.07228C8.7364 7.87126 8.8821 7.65166 8.76921 7.37678C8.43148 6.54924 8.08604 5.72316 7.73239 4.90197C7.688 4.79926 7.58379 4.67699 7.48585 4.65254C6.96817 4.52195 6.42732 4.49309 5.99504 4.84818C5.03011 5.64197 4.72905 6.71015 4.91432 7.92408C5.04458 8.77413 5.43924 9.51902 5.91591 10.2228C6.68158 11.3546 7.54664 12.3954 8.57815 13.2909C9.72545 14.2877 11.0575 14.9206 12.4924 15.348C12.9208 15.4752 13.3647 15.5461 13.768 15.6356Z" fill="white"/>
<path id="Vector_2" d="M13.7681 15.6358C13.3648 15.5463 12.9209 15.4754 12.4935 15.3477C11.0586 14.9202 9.72654 14.2874 8.57924 13.2906C7.54773 12.395 6.68267 11.3528 5.91941 10.2225C5.44274 9.51869 5.04808 8.7738 4.91782 7.92376C4.73255 6.70983 5.03554 5.64165 5.99854 4.84785C6.43275 4.4913 6.97167 4.52016 7.48935 4.65221C7.58584 4.67667 7.6915 4.79894 7.73589 4.90165C8.08954 5.72284 8.43257 6.54892 8.77271 7.37646C8.8856 7.65133 8.7399 7.87094 8.5831 8.07196C8.41616 8.28569 8.22993 8.48426 8.05239 8.6887C7.76966 9.01248 7.75857 9.11959 7.97953 9.48103C8.8856 10.9654 10.0913 12.1026 11.7017 12.7677C12.1437 12.9502 12.3608 12.8964 12.6551 12.5144C12.8529 12.2586 13.0411 11.995 13.2316 11.7318C13.4859 11.3846 13.7073 11.3137 14.0957 11.4971C14.8276 11.8433 15.5518 12.2053 16.2808 12.5569C16.4656 12.646 16.5433 12.7834 16.537 12.9913C16.4965 14.2971 16.0232 14.9794 14.6284 15.4641C14.3683 15.5536 14.088 15.5737 13.7681 15.6358Z" fill="#2F383B"/>
</g>
</g>
<defs>
<clipPath id="clip0_191_1752">
<rect width="19.726" height="20" fill="white" transform="translate(0.725586)"/>
</clipPath>
</defs>
</svg>
